<?xml version="1.0" encoding="UTF-8"?>
<svg xmlns="http://www.w3.org/2000/svg" width="150" height="150" xmlns:xlink="http://www.w3.org/1999/xlink" version="1.1" viewBox="0 0 150 150">
  <!-- Generator: Adobe Illustrator 29.4.0, SVG Export Plug-In . SVG Version: 2.1.0 Build 152)  -->
  <defs>
    <clipPath id="clippath">
      <path d="M136.19-172.205H38.473v62.543c-.083.042-.276.166-.276.426s.193.385.276.427c9.391,4.66,13.95,15.667,10.605,25.604-.029.088-.078.312.106.496.053.053.133.133.323.133.061,0,.12-.01.177-.028,2.166-.729,4.422-1.098,6.706-1.098,7.95,0,15.366,4.594,18.895,11.706.041.083.165.275.426.275s.385-.193.425-.273c3.527-7.112,10.944-11.708,18.895-11.708,2.285,0,4.542.37,6.709,1.099.053.018.114.027.174.027.19,0,.27-.081.323-.133.184-.184.135-.408.106-.495-2.148-6.379-1.025-13.19,2.53-18.489h19.968v-7.969h11.349v-62.543Z" style="fill: none;"/>
    </clipPath>
    <clipPath id="clippath-1">
      <rect x="11.111" y="-169.684" width="122.847" height="248.628" style="fill: none;"/>
    </clipPath>
    <clipPath id="clippath-2">
      <path d="M68.364,75.063h-26.448v-1.155c0-1.186.547-2.306,1.482-3.036,2.879-2.247,8.948-6.984,8.948-6.984l16.018-.004v11.179Z" style="clip-rule: evenodd; fill: none;"/>
    </clipPath>
    <clipPath id="clippath-3">
      <path d="M80.636,75.063h26.447v-1.155c0-1.186-.546-2.306-1.482-3.036-2.879-2.247-8.948-6.984-8.948-6.984l-16.017-.004v11.179Z" style="clip-rule: evenodd; fill: none;"/>
    </clipPath>
    <clipPath id="clippath-4">
      <polygon points="101.549 5.242 84.795 -6.508 78.014 5.242 79.871 66.217 99.819 66.217 101.549 5.242" style="clip-rule: evenodd; fill: none;"/>
    </clipPath>
    <clipPath id="clippath-7">
      <path d="M120.095,59.683c-2.225-1.104-3.308-3.716-2.515-6.071,1.944-5.772.625-12.396-3.974-16.996h0c-4.599-4.6-11.224-5.918-16.996-3.975-2.354.793-4.967-.289-6.071-2.515-2.707-5.456-8.324-9.208-14.828-9.208s-12.121,3.752-14.828,9.208c-1.104,2.225-3.716,3.307-6.071,2.515-5.772-1.944-12.397-.625-16.996,3.974h0c-4.599,4.6-5.918,11.224-3.974,16.996.793,2.354-.289,4.967-2.515,6.071-5.456,2.707-9.208,8.324-9.208,14.828h0c0,6.505,3.752,12.121,9.208,14.828,2.225,1.104,3.307,3.716,2.515,6.071-1.944,5.772-.625,12.397,3.974,16.996,4.6,4.599,11.224,5.918,16.996,3.974,2.354-.793,4.967.289,6.071,2.515,2.707,5.456,8.324,9.208,14.828,9.208s12.121-3.752,14.828-9.208c1.104-2.225,3.716-3.308,6.071-2.515,5.772,1.944,12.397.625,16.996-3.974s5.918-11.224,3.974-16.996c-.793-2.354.289-4.967,2.515-6.071,5.456-2.707,9.208-8.324,9.208-14.828h0c0-6.505-3.752-12.121-9.208-14.828Z" style="fill: none;"/>
    </clipPath>
    <clipPath id="clippath-8">
      <path d="M117.936,83.882l4.326-14.93-2.984-25.395-18.367-11.75-30.983-6.557-26.363,3.237-13.395,23.163-1.116,12,12.69,8.419c-1.011.76-2.102,1.438-3.268,2.016-.083.042-.276.166-.276.426s.193.385.276.427c9.391,4.66,13.951,15.667,10.605,25.604-.029.088-.078.312.106.496.053.053.133.133.323.133.061,0,.12-.01.177-.028,2.166-.729,4.422-1.098,6.706-1.098,7.95,0,15.366,4.594,18.895,11.705.041.083.165.275.426.275s.385-.192.425-.273c3.527-7.113,10.944-11.708,18.895-11.708,2.285,0,4.542.369,6.709,1.099.053.018.114.027.174.027.189,0,.27-.081.323-.133.184-.184.135-.408.106-.495-1.908-5.665-1.239-11.674,1.423-16.661h14.168Z" style="fill: none;"/>
    </clipPath>
    <clipPath id="clippath-9">
      <path d="M116.181,44.355s-4.91-8.283-20.124-13.779c0,0-7.633.977-14.034-.169-6.401-1.147-13.22-4.712-13.22-4.712-16.175-.126-23.655,5.938-23.655,5.938-9.665,9.935-12.991,29.698-12.991,29.698-.481,2.684,14.961,9.286,14.961,9.286l-7.471,41.713c4.557,6.546,47.14,14.172,53.686,9.615l7.471-41.713s16.773-.832,17.254-3.517c0,0,3.739-19.688-1.877-32.361Z" style="fill: none;"/>
    </clipPath>
  </defs>
  <g style="isolation: isolate;">
    <g id="Layer_1">
      <g style="clip-path: url(#clippath);">
        <g style="clip-path: url(#clippath-1);">
          <path d="M43.25-54.307c.337-6.036,3.041-11.695,7.524-15.752l36.318,2,3.332,74.968h-45.93c-1.213,0-2.372-.499-3.205-1.38-.833-.881-1.267-2.066-1.199-3.277.641-11.465,2.305-41.233,3.161-56.558Z" style="fill: #fff; fill-rule: evenodd;"/>
          <polygon points="102.504 -37.376 77.06 -37.376 78.014 5.242 101.549 5.242 102.504 -37.376" style="fill: #258e8e; fill-rule: evenodd;"/>
          <path d="M111.965,74.209c0-2.614-2.122-4.735-4.735-4.735H41.44c-2.614,0-4.735,2.122-4.735,4.735s2.122,4.735,4.735,4.735h65.789c2.613,0,4.735-2.122,4.735-4.735Z" style="fill-rule: evenodd; opacity: .15;"/>
          <path d="M68.364,75.063h-26.448v-1.155c0-1.186.547-2.306,1.482-3.036,2.879-2.247,8.948-6.984,8.948-6.984l16.018-.004v11.179Z" style="fill: #ffb50c; fill-rule: evenodd;"/>
          <g style="clip-path: url(#clippath-2);">
            <polygon points="68.364 72.828 40.054 72.828 40.108 75.063 68.364 75.063 68.364 72.828" style="fill: #2d4145; fill-rule: evenodd;"/>
          </g>
          <path d="M80.636,75.063h26.447v-1.155c0-1.186-.546-2.306-1.482-3.036-2.879-2.247-8.948-6.984-8.948-6.984l-16.017-.004v11.179Z" style="fill: #ffb50c; fill-rule: evenodd;"/>
          <g style="clip-path: url(#clippath-3);">
            <polygon points="80.636 72.828 108.946 72.828 108.891 75.063 80.636 75.063 80.636 72.828" style="fill: #2d4145; fill-rule: evenodd;"/>
          </g>
          <polygon points="101.549 5.242 84.795 -6.508 78.014 5.242 79.871 66.217 99.819 66.217 101.549 5.242" style="fill: #258e8e; fill-rule: evenodd;"/>
          <g style="clip-path: url(#clippath-4);">
            <path d="M132.863,13.166h-42.644c-1.893,0-3.451-1.489-3.536-3.379-.175-3.859-.436-9.643-.436-9.643l38.691-9.995L128.88.005l4.053.138-.071,13.023Z" style="fill: #218080; fill-rule: evenodd;"/>
          </g>
          <path d="M100.007-105.472c-.257-2.225-2.142-3.904-4.382-3.904h-14.198v46.241s3.677,50.968,4.758,65.949c.166,2.307,2.087,4.094,4.4,4.094h17.493c1.258,0,2.456-.537,3.293-1.477.838-.94,1.234-2.192,1.088-3.442-2.243-19.352-10.433-90.034-12.453-107.461Z" style="fill: #fff; fill-rule: evenodd;"/>
          <polygon points="71.971 -37.376 46.527 -37.376 47.482 5.242 71.017 5.242 71.971 -37.376" style="fill: #258e8e; fill-rule: evenodd;"/>
          <polygon points="71.017 5.242 47.482 5.242 49.223 66.217 69.5 66.217 71.017 5.242" style="fill: #258e8e; fill-rule: evenodd;"/>
          <path d="M59.249-6.525c6.495,0,11.768,5.273,11.768,11.767s-5.273,11.768-11.768,11.768-11.768-5.273-11.768-11.768,5.273-11.767,11.768-11.767Z" style="fill: #258e8e; fill-rule: evenodd;"/>
        </g>
      </g>
      <g>
        <g style="clip-path: url(#clippath-7);">
          <path d="M120.095,59.683c-2.225-1.104-3.308-3.716-2.515-6.071,1.944-5.772.625-12.396-3.974-16.996h0c-4.599-4.6-11.224-5.918-16.996-3.975-2.354.793-4.967-.289-6.071-2.515-2.707-5.456-8.324-9.208-14.828-9.208s-12.121,3.752-14.828,9.208c-1.104,2.225-3.716,3.307-6.071,2.515-5.772-1.944-12.397-.625-16.996,3.974h0c-4.599,4.6-5.918,11.224-3.974,16.996.793,2.354-.289,4.967-2.515,6.071-5.456,2.707-9.208,8.324-9.208,14.828h0c0,6.505,3.752,12.121,9.208,14.828,2.225,1.104,3.307,3.716,2.515,6.071-1.944,5.772-.625,12.397,3.974,16.996,4.6,4.599,11.224,5.918,16.996,3.974,2.354-.793,4.967.289,6.071,2.515,2.707,5.456,8.324,9.208,14.828,9.208s12.121-3.752,14.828-9.208c1.104-2.225,3.716-3.308,6.071-2.515,5.772,1.944,12.397.625,16.996-3.974s5.918-11.224,3.974-16.996c-.793-2.354.289-4.967,2.515-6.071,5.456-2.707,9.208-8.324,9.208-14.828h0c0-6.505-3.752-12.121-9.208-14.828Z" style="fill: #dd1d68;"/>
          <path d="M75.712,112.025c-.261,0-.385-.193-.426-.275-3.529-7.111-10.945-11.705-18.895-11.705-2.284,0-4.541.369-6.706,1.098-.057.019-.116.028-.177.028-.189,0-.27-.08-.323-.133-.184-.184-.136-.408-.106-.496,3.346-9.936-1.214-20.944-10.605-25.604-.084-.042-.276-.165-.276-.427s.193-.384.276-.426c9.393-4.661,13.952-15.668,10.605-25.605-.029-.087-.078-.311.106-.495.055-.054.135-.134.323-.134.061,0,.12.009.173.027,2.166.73,4.425,1.1,6.712,1.1,7.949-.001,15.364-4.595,18.892-11.704.042-.084.166-.277.427-.277s.385.194.426.276c3.527,7.11,10.943,11.705,18.894,11.705,2.287-.001,4.546-.371,6.714-1.101.049-.017.109-.026.17-.026.19,0,.271.081.324.134.184.183.135.408.105.496-3.347,9.935,1.212,20.943,10.604,25.604.085.042.277.165.277.426s-.193.385-.276.426c-9.394,4.662-13.953,15.669-10.606,25.606.029.087.078.311-.106.495-.053.052-.133.133-.323.133-.061,0-.121-.009-.174-.027-2.168-.73-4.424-1.099-6.709-1.099-7.951,0-15.368,4.595-18.895,11.707-.04.081-.164.273-.425.273Z" style="fill: #b50859;"/>
          <rect x="22.12" y="20.92" width="53.592" height="107.183" style="fill: #d2deef; mix-blend-mode: multiply;"/>
        </g>
        <g style="clip-path: url(#clippath-8);">
          <g style="clip-path: url(#clippath-9);">
            <path d="M116.181,44.355s-4.91-8.283-20.124-13.779c0,0-7.633.977-14.034-.169-6.401-1.147-13.22-4.712-13.22-4.712-16.175-.126-23.655,5.938-23.655,5.938-9.665,9.935-12.991,29.698-12.991,29.698-.481,2.684,14.961,9.286,14.961,9.286l-7.471,41.713c4.557,6.546,47.14,14.172,53.686,9.615l7.471-41.713s16.773-.832,17.254-3.517c0,0,3.739-19.688-1.877-32.361Z" style="fill: #05ddb2;"/>
            <ellipse cx="81.594" cy="30.712" rx="8.549" ry="16.206" transform="translate(36.978 105.613) rotate(-79.846)" style="fill: #01b593;"/>
            <path d="M88.409,64.983l2.443-13.643-13.643-2.443c-5.927-1.062-11.593,2.883-12.655,8.81l-1.879,10.49,13.668-9.516c1.022-.712,2.441-.458,3.153.565s.458,2.441-.565,3.153l-13.668,9.516,10.49,1.879c5.927,1.062,11.593-2.883,12.655-8.81Z" style="fill: #01b593;"/>
            <path d="M45.316,74.158c-.613-.11-1.021-.696-.911-1.309l3.625-20.241c.266-1.485.145-3.024-.349-4.449l-1.774-5.117c-.204-.588.108-1.231.696-1.435.589-.203,1.231.108,1.435.696l1.774,5.117c.621,1.79.772,3.721.438,5.585l-3.625,20.241c-.11.613-.696,1.021-1.309.911Z" style="fill: #01b593;"/>
            <path d="M101.245,84.21c-.613-.11-1.021-.696-.911-1.309l3.625-20.241c.334-1.864,1.146-3.623,2.349-5.086l3.44-4.183c.396-.481,1.106-.55,1.587-.155.481.396.55,1.106.155,1.587l-3.44,4.183c-.958,1.166-1.605,2.567-1.871,4.052l-3.625,20.241c-.11.613-.696,1.021-1.309.911Z" style="fill: #01b593;"/>
          </g>
        </g>
      </g>
    </g>
  </g>
</svg>