<?xml version="1.0" encoding="UTF-8"?>
<svg xmlns="http://www.w3.org/2000/svg" width="150" height="150" xmlns:xlink="http://www.w3.org/1999/xlink" version="1.1" viewBox="0 0 150 150">
  <!-- Generator: Adobe Illustrator 29.4.0, SVG Export Plug-In . SVG Version: 2.1.0 Build 152)  -->
  <defs>
    <clipPath id="clippath">
      <path d="M120.117,59.683c-2.225-1.104-3.308-3.716-2.515-6.071,1.944-5.772.625-12.396-3.974-16.996h0c-4.599-4.6-11.224-5.918-16.996-3.975-2.354.793-4.967-.289-6.071-2.515-2.707-5.456-8.324-9.208-14.828-9.208s-12.121,3.752-14.828,9.208c-1.104,2.225-3.716,3.307-6.071,2.515-5.772-1.944-12.397-.625-16.996,3.974h0c-4.599,4.6-5.918,11.224-3.974,16.996.793,2.354-.289,4.967-2.515,6.071-5.456,2.707-9.208,8.324-9.208,14.828h0c0,6.505,3.752,12.121,9.208,14.828,2.225,1.104,3.307,3.716,2.515,6.071-1.944,5.772-.625,12.397,3.974,16.996,4.6,4.599,11.224,5.918,16.996,3.974,2.354-.793,4.967.289,6.071,2.515,2.707,5.456,8.324,9.208,14.828,9.208s12.121-3.752,14.828-9.208c1.104-2.225,3.716-3.308,6.071-2.515,5.772,1.944,12.397.625,16.996-3.974s5.918-11.224,3.974-16.996c-.793-2.354.289-4.967,2.515-6.071,5.456-2.707,9.208-8.324,9.208-14.828h0c0-6.505-3.752-12.121-9.208-14.828Z" style="fill: none;"/>
    </clipPath>
    <clipPath id="clippath-1">
      <path d="M69.302,42.632h0c0-16.184,13.121-29.301,29.298-29.301h35.689c2.368,0,4.537-1.369,5.552-3.514.187-.407.373-.814.56-1.199.117-.24.373-.369.642-.311.257.058.443.288.443.554v.003c0,5.688-4.619,10.299-10.298,10.299h-30.149c-12.958,0-23.466,10.507-23.466,23.469h0s-8.269.001-8.269.001Z" style="clip-rule: evenodd; fill: none;"/>
    </clipPath>
    <clipPath id="clippath-2">
      <path d="M67.457,38.949c-.183-.239-.216-.561-.082-.83.135-.27.408-.44.709-.44.208,0,.399.096.526.26.856,1.119,4.181,5.473,4.181,5.473h-1.928s-2.119-2.773-3.407-4.462Z" style="clip-rule: evenodd; fill: none;"/>
    </clipPath>
    <clipPath id="clippath-3">
      <path d="M62.449,38.947c-.183-.239-.212-.561-.081-.83.134-.27.408-.44.709-.44.208,0,.403.096.526.259.856,1.119,4.181,5.473,4.181,5.473h-1.928s-2.115-2.773-3.407-4.462Z" style="clip-rule: evenodd; fill: none;"/>
    </clipPath>
    <clipPath id="clippath-4">
      <path d="M84.3,9.4c0-.749-.297-1.467-.827-1.997-.53-.53-1.247-.827-1.997-.827-2.209,0-5.196,0-6.964,0-.933,0-1.805.46-2.331,1.231-3.88,5.68-19.87,29.079-19.87,29.079,0,0,6.182,0,12.804,0,8.766,0,15.873-7.107,15.873-15.873v-2.674c0-.275.106-.538.297-.736.412-.423,1.17-1.211,1.826-1.888.762-.791,1.19-1.846,1.19-2.945v-3.369Z" style="clip-rule: evenodd; fill: none;"/>
    </clipPath>
    <clipPath id="clippath-5">
      <path d="M80.872,51.431v-6.092c0-12.525,10.159-22.679,22.685-22.679h35.386c2.542,0,4.852-1.506,5.878-3.838.175-.404.35-.805.525-1.187.105-.248.373-.386.642-.33.257.056.455.289.455.561v.006c0,2.817-1.12,5.518-3.114,7.51-1.994,1.992-4.689,3.111-7.511,3.111h-29.613c-4.525,0-8.864,1.798-12.071,4.999-3.196,3.2-4.992,7.541-4.992,12.068v5.872h-8.269Z" style="clip-rule: evenodd; fill: none;"/>
    </clipPath>
    <clipPath id="clippath-6">
      <path d="M25.025,75l10.18-.231,6.616,2.23c7.092,5.37,10.202,14.864,7.279,23.543-.029.088-.078.312.106.496.053.053.133.133.323.133.061,0,.12-.01.177-.028,2.166-.729,4.422-1.098,6.706-1.098,7.95,0,15.366,4.594,18.895,11.706.041.083.165.275.426.275s.385-.193.425-.273c3.527-7.112,10.944-11.708,18.895-11.708,2.285,0,4.542.37,6.709,1.099.053.018.114.027.174.027.189,0,.27-.081.323-.133.184-.184.135-.408.106-.495-1.315-3.903-1.394-7.967-.455-11.751h8.084l8.372-14.28,6.675-33.534-6.675-37.394L25.025,57.803v17.197Z" style="fill: none;"/>
    </clipPath>
    <clipPath id="clippath-7">
      <path d="M105.063,247.983c-14.383,0-28.139-5.869-38.111-16.25-9.954-10.381-15.244-24.375-14.652-38.747,2.044-49.095,4.86-116.952,5.901-141.718.215-5.327,4.609-9.532,9.935-9.532h15.764c5.506,0,9.954,4.453,9.954,9.946v.949-.002c0-7.997,6.475-14.48,14.473-14.48h14.222v2.297c0,5.097-2.026,9.986-5.631,13.587-3.605,3.603-8.501,5.626-13.594,5.621-.807,0-1.596,0-2.332-.002-1.865-.002-3.623.768-4.896,2.123-1.255,1.358-1.901,3.178-1.775,5.025,1.237,17.09,4.34,60.367,5.793,80.675.448,6.105,5.524,10.834,11.639,10.834h64.672c10.833,0,21.163,4.581,28.426,12.61,7.264,8.029,10.797,18.757,9.721,29.532-2.332,23.279-4.771,47.531-4.771,47.531h-104.737Z" style="clip-rule: evenodd; fill: none;"/>
    </clipPath>
    <clipPath id="clippath-8">
      <path d="M73.498,47.133s-30.04,7.201-39.527,9.471c-1.65.398-2.834,1.881-2.834,3.589v3.008c0,.673.269,1.32.753,1.795.466.477,1.112.744,1.793.744v2.796c0,2.037,1.65,3.689,3.695,3.689h35.277l.843-25.092Z" style="clip-rule: evenodd; fill: none;"/>
    </clipPath>
  </defs>
  <g style="isolation: isolate;">
    <g id="Layer_1">
      <g style="clip-path: url(#clippath);">
        <path d="M120.117,59.683c-2.225-1.104-3.308-3.716-2.515-6.071,1.944-5.772.625-12.396-3.974-16.996h0c-4.599-4.6-11.224-5.918-16.996-3.975-2.354.793-4.967-.289-6.071-2.515-2.707-5.456-8.324-9.208-14.828-9.208s-12.121,3.752-14.828,9.208c-1.104,2.225-3.716,3.307-6.071,2.515-5.772-1.944-12.397-.625-16.996,3.974h0c-4.599,4.6-5.918,11.224-3.974,16.996.793,2.354-.289,4.967-2.515,6.071-5.456,2.707-9.208,8.324-9.208,14.828h0c0,6.505,3.752,12.121,9.208,14.828,2.225,1.104,3.307,3.716,2.515,6.071-1.944,5.772-.625,12.397,3.974,16.996,4.6,4.599,11.224,5.918,16.996,3.974,2.354-.793,4.967.289,6.071,2.515,2.707,5.456,8.324,9.208,14.828,9.208s12.121-3.752,14.828-9.208c1.104-2.225,3.716-3.308,6.071-2.515,5.772,1.944,12.397.625,16.996-3.974s5.918-11.224,3.974-16.996c-.793-2.354.289-4.967,2.515-6.071,5.456-2.707,9.208-8.324,9.208-14.828h0c0-6.505-3.752-12.121-9.208-14.828Z" style="fill: #dd1d68;"/>
        <path d="M75.733,112.025c-.261,0-.385-.193-.426-.275-3.529-7.111-10.945-11.705-18.895-11.705-2.284,0-4.541.369-6.706,1.098-.057.019-.116.028-.177.028-.189,0-.27-.08-.323-.133-.184-.184-.136-.408-.106-.496,3.346-9.936-1.214-20.944-10.605-25.604-.084-.042-.276-.165-.276-.427s.193-.384.276-.426c9.393-4.661,13.952-15.668,10.605-25.605-.029-.087-.078-.311.106-.495.055-.054.135-.134.323-.134.061,0,.12.009.173.027,2.166.73,4.425,1.1,6.712,1.1,7.949-.001,15.364-4.595,18.892-11.704.042-.084.166-.277.427-.277s.385.194.426.276c3.527,7.11,10.943,11.705,18.894,11.705,2.287-.001,4.546-.371,6.714-1.101.049-.017.109-.026.17-.026.19,0,.271.081.324.134.184.183.135.408.105.496-3.347,9.935,1.212,20.943,10.604,25.604.085.042.277.165.277.426s-.193.385-.276.426c-9.394,4.662-13.953,15.669-10.606,25.606.029.087.078.311-.106.495-.053.052-.133.133-.323.133-.061,0-.121-.009-.174-.027-2.168-.73-4.424-1.099-6.709-1.099-7.951,0-15.368,4.595-18.895,11.707-.04.081-.164.273-.425.273Z" style="fill: #b50859;"/>
        <rect x="22.142" y="20.92" width="53.592" height="107.183" style="fill: #d2deef; mix-blend-mode: multiply;"/>
      </g>
      <g>
        <g>
          <path d="M69.302,42.632h0c0-16.184,13.121-29.301,29.298-29.301h35.689c2.368,0,4.537-1.369,5.552-3.514.187-.407.373-.814.56-1.199.117-.24.373-.369.642-.311.257.058.443.288.443.554v.003c0,5.688-4.619,10.299-10.298,10.299h-30.149c-12.958,0-23.466,10.507-23.466,23.469h0s-8.269.001-8.269.001Z" style="fill: #f8caa8; fill-rule: evenodd;"/>
          <g style="clip-path: url(#clippath-1);">
            <polygon points="75.811 20.478 75.892 20.485 75.974 20.496 76.056 20.51 76.126 20.527 76.207 20.548 76.277 20.573 76.359 20.601 76.429 20.631 76.499 20.666 76.569 20.704 76.639 20.744 76.709 20.789 76.767 20.835 85.958 27.868 86.016 27.918 86.074 27.971 86.132 28.027 86.191 28.084 86.237 28.145 86.284 28.208 86.331 28.272 86.377 28.338 86.424 28.407 86.459 28.478 86.494 28.551 86.517 28.624 86.552 28.699 86.576 28.775 86.587 28.851 86.611 28.93 86.622 29.008 86.634 29.087 86.634 29.166 86.646 29.246 86.634 29.326 86.634 29.405 86.622 29.485 86.611 29.563 86.599 29.641 86.576 29.718 86.552 29.795 86.529 29.87 86.506 29.944 86.471 30.017 86.436 30.088 86.389 30.157 86.354 30.224 86.308 30.29 86.261 30.353 86.202 30.414 86.156 30.473 86.097 30.529 86.039 30.582 85.969 30.632 85.911 30.68 85.841 30.726 85.771 30.767 85.701 30.806 85.631 30.841 85.561 30.874 85.491 30.902 85.409 30.928 85.339 30.95 85.258 30.968 85.176 30.984 85.106 30.995 85.024 31.002 84.943 31.007 84.861 31.007 84.78 31.005 84.71 30.998 84.628 30.987 84.546 30.973 84.465 30.956 84.395 30.935 84.313 30.91 84.243 30.882 84.173 30.851 84.091 30.817 84.021 30.778 83.963 30.737 83.893 30.694 83.823 30.646 74.644 23.614 74.574 23.565 74.516 23.511 74.458 23.456 74.411 23.398 74.353 23.338 74.306 23.275 74.259 23.211 74.213 23.144 74.178 23.075 74.143 23.005 74.108 22.932 74.073 22.859 74.049 22.784 74.026 22.708 74.003 22.632 73.991 22.553 73.979 22.475 73.968 22.396 73.956 22.317 73.956 22.236 73.956 22.157 73.968 22.078 73.968 21.998 73.979 21.92 74.003 21.842 74.014 21.764 74.038 21.688 74.073 21.612 74.096 21.539 74.131 21.466 74.166 21.395 74.201 21.326 74.248 21.259 74.294 21.193 74.341 21.13 74.388 21.069 74.446 21.01 74.504 20.954 74.563 20.901 74.621 20.851 74.691 20.803 74.749 20.757 74.819 20.715 74.889 20.677 74.959 20.642 75.029 20.609 75.111 20.58 75.181 20.555 75.263 20.533 75.344 20.515 75.414 20.499 75.496 20.488 75.577 20.481 75.659 20.476 75.729 20.476 75.811 20.478" style="fill: #f7b487; fill-rule: evenodd;"/>
            <polygon points="70.375 30.244 70.457 30.251 70.551 30.263 70.632 30.278 70.714 30.298 70.795 30.321 70.877 30.349 81.735 34.333 81.817 34.365 81.899 34.401 81.969 34.439 82.05 34.482 82.12 34.529 82.19 34.579 82.26 34.633 82.319 34.689 82.389 34.75 82.447 34.811 82.494 34.877 82.552 34.946 82.598 35.015 82.645 35.089 82.68 35.164 82.727 35.241 82.762 35.32 82.785 35.4 82.82 35.482 82.832 35.565 82.855 35.649 82.867 35.733 82.878 35.819 82.89 35.904 82.89 35.991 82.878 36.076 82.878 36.162 82.867 36.247 82.855 36.331 82.832 36.415 82.809 36.498 82.774 36.578 82.75 36.659 82.715 36.737 82.668 36.813 82.633 36.887 82.587 36.96 82.529 37.03 82.482 37.096 82.424 37.162 82.365 37.223 82.295 37.282 82.237 37.338 82.167 37.39 82.097 37.438 82.027 37.483 81.945 37.525 81.875 37.564 81.794 37.598 81.712 37.628 81.631 37.654 81.549 37.677 81.467 37.695 81.374 37.709 81.292 37.719 81.211 37.724 81.117 37.726 81.036 37.723 80.954 37.716 80.861 37.705 80.779 37.689 80.697 37.67 80.616 37.646 80.534 37.619 69.676 33.633 69.594 33.602 69.512 33.567 69.442 33.527 69.361 33.484 69.291 33.439 69.221 33.388 69.151 33.335 69.093 33.278 69.034 33.218 68.964 33.155 68.918 33.09 68.859 33.022 68.813 32.951 68.766 32.879 68.731 32.803 68.684 32.726 68.649 32.648 68.626 32.567 68.603 32.486 68.579 32.403 68.556 32.319 68.544 32.234 68.533 32.149 68.533 32.064 68.521 31.977 68.533 31.891 68.533 31.806 68.544 31.721 68.568 31.637 68.579 31.553 68.603 31.47 68.638 31.388 68.661 31.309 68.696 31.231 68.743 31.154 68.778 31.08 68.824 31.008 68.882 30.938 68.929 30.87 68.988 30.806 69.046 30.744 69.116 30.686 69.174 30.63 69.244 30.578 69.314 30.529 69.384 30.483 69.466 30.442 69.536 30.404 69.617 30.37 69.699 30.34 69.781 30.313 69.862 30.291 69.944 30.273 70.037 30.259 70.119 30.249 70.201 30.243 70.294 30.242 70.375 30.244" style="fill: #f7b487; fill-rule: evenodd;"/>
            <polygon points="83.24 14.079 83.322 14.084 83.403 14.091 83.485 14.102 83.555 14.117 83.637 14.136 83.718 14.159 83.788 14.185 83.87 14.214 83.94 14.247 84.01 14.283 84.08 14.323 84.15 14.366 84.22 14.411 84.29 14.46 84.348 14.513 84.406 14.568 84.465 14.625 84.511 14.684 84.57 14.747 84.616 14.811 91.334 24.221 91.381 24.288 91.416 24.356 91.463 24.428 91.498 24.5 91.533 24.573 91.556 24.649 91.579 24.726 91.602 24.804 91.626 24.883 91.637 24.962 91.649 25.042 91.649 25.123 91.661 25.203 91.661 25.285 91.649 25.365 91.649 25.446 91.637 25.525 91.614 25.604 91.602 25.684 91.579 25.761 91.556 25.838 91.521 25.914 91.486 25.987 91.451 26.059 91.416 26.129 91.369 26.198 91.322 26.265 91.276 26.329 91.229 26.391 91.171 26.45 91.113 26.507 91.054 26.562 90.984 26.613 90.926 26.661 90.856 26.707 90.786 26.749 90.716 26.788 90.646 26.823 90.576 26.856 90.494 26.885 90.425 26.911 90.343 26.932 90.261 26.95 90.179 26.966 90.098 26.976 90.028 26.983 89.946 26.987 89.865 26.987 89.783 26.982 89.701 26.975 89.62 26.963 89.538 26.948 89.457 26.929 89.386 26.906 89.305 26.88 89.235 26.851 89.153 26.819 89.083 26.781 89.013 26.742 88.943 26.7 88.885 26.653 88.815 26.604 88.757 26.553 88.698 26.498 88.64 26.441 88.582 26.381 88.535 26.318 88.488 26.254 81.77 16.844 81.724 16.778 81.677 16.709 81.642 16.638 81.607 16.565 81.572 16.491 81.549 16.416 81.514 16.339 81.502 16.261 81.479 16.183 81.467 16.102 81.455 16.023 81.444 15.943 81.444 15.862 81.444 15.781 81.444 15.7 81.455 15.62 81.467 15.54 81.479 15.46 81.502 15.382 81.525 15.304 81.549 15.228 81.584 15.152 81.607 15.078 81.654 15.006 81.689 14.936 81.735 14.867 81.782 14.801 81.829 14.737 81.875 14.675 81.934 14.615 81.992 14.558 82.05 14.503 82.109 14.452 82.179 14.404 82.249 14.359 82.307 14.317 82.389 14.277 82.459 14.241 82.529 14.21 82.61 14.18 82.68 14.155 82.762 14.133 82.844 14.115 82.913 14.1 82.995 14.089 83.077 14.082 83.158 14.079 83.24 14.079" style="fill: #f7b487; fill-rule: evenodd;"/>
            <polygon points="91.101 8.086 91.183 8.094 91.276 8.106 91.357 8.122 91.439 8.143 91.521 8.168 91.602 8.197 91.684 8.23 91.766 8.266 91.836 8.306 91.906 8.35 91.987 8.398 92.046 8.448 92.116 8.503 92.186 8.56 92.244 8.621 92.302 8.683 92.361 8.75 92.407 8.819 92.454 8.89 92.5 8.963 92.535 9.039 92.582 9.116 92.606 9.196 96.804 19.957 96.839 20.038 96.862 20.12 96.886 20.203 96.898 20.287 96.909 20.372 96.921 20.457 96.921 20.544 96.921 20.63 96.921 20.715 96.909 20.8 96.898 20.886 96.886 20.97 96.862 21.053 96.839 21.136 96.816 21.217 96.781 21.296 96.746 21.374 96.699 21.45 96.664 21.523 96.606 21.595 96.559 21.665 96.501 21.731 96.454 21.795 96.384 21.856 96.326 21.913 96.256 21.968 96.186 22.019 96.116 22.068 96.046 22.112 95.965 22.153 95.895 22.189 95.813 22.223 95.731 22.252 95.65 22.277 95.568 22.299 95.486 22.315 95.393 22.328 95.311 22.338 95.23 22.342 95.136 22.342 95.055 22.339 94.973 22.331 94.88 22.318 94.798 22.301 94.717 22.28 94.635 22.256 94.553 22.228 94.472 22.195 94.402 22.159 94.32 22.118 94.25 22.075 94.18 22.027 94.11 21.976 94.04 21.922 93.97 21.864 93.912 21.805 93.854 21.74 93.807 21.674 93.749 21.606 93.702 21.534 93.655 21.461 93.62 21.386 93.585 21.308 93.55 21.228 89.351 10.467 89.316 10.386 89.293 10.305 89.27 10.221 89.258 10.137 89.247 10.052 89.235 9.966 89.235 9.881 89.235 9.795 89.235 9.709 89.247 9.624 89.258 9.538 89.27 9.454 89.293 9.37 89.316 9.289 89.34 9.207 89.375 9.128 89.41 9.051 89.457 8.975 89.503 8.9 89.55 8.829 89.596 8.76 89.655 8.694 89.713 8.63 89.771 8.569 89.83 8.511 89.9 8.456 89.97 8.405 90.04 8.357 90.11 8.313 90.191 8.272 90.261 8.234 90.343 8.202 90.425 8.173 90.506 8.147 90.588 8.126 90.67 8.108 90.763 8.096 90.844 8.088 90.926 8.083 91.019 8.082 91.101 8.086" style="fill: #f7b487; fill-rule: evenodd;"/>
            <polygon points="100.887 8.927 100.968 8.934 101.061 8.945 101.143 8.961 101.236 8.981 101.318 9.005 101.4 9.033 101.481 9.067 101.563 9.103 101.645 9.144 101.715 9.19 101.796 9.239 101.866 9.291 101.936 9.347 101.994 9.407 102.065 9.47 102.123 9.535 102.181 9.604 102.228 9.675 102.274 9.749 102.321 9.825 102.368 9.903 102.403 9.984 102.438 10.067 102.461 10.151 102.484 10.236 102.508 10.322 102.519 10.41 102.531 10.497 102.543 10.586 102.543 10.674 102.543 22.224 102.543 22.313 102.531 22.402 102.519 22.489 102.508 22.577 102.484 22.663 102.461 22.748 102.438 22.832 102.403 22.914 102.368 22.994 102.321 23.074 102.274 23.149 102.228 23.224 102.181 23.295 102.123 23.364 102.065 23.429 101.994 23.492 101.936 23.552 101.866 23.608 101.796 23.66 101.715 23.709 101.645 23.754 101.563 23.796 101.481 23.832 101.4 23.864 101.318 23.893 101.236 23.918 101.143 23.938 101.061 23.954 100.968 23.965 100.887 23.972 100.793 23.974 100.7 23.972 100.618 23.965 100.525 23.954 100.443 23.938 100.35 23.918 100.268 23.893 100.187 23.864 100.105 23.832 100.023 23.796 99.942 23.754 99.872 23.709 99.79 23.66 99.72 23.608 99.65 23.552 99.592 23.492 99.522 23.429 99.464 23.364 99.405 23.295 99.359 23.224 99.312 23.149 99.265 23.074 99.218 22.994 99.183 22.914 99.149 22.832 99.125 22.748 99.102 22.663 99.079 22.577 99.067 22.489 99.055 22.402 99.044 22.313 99.044 22.224 99.044 10.674 99.044 10.586 99.055 10.497 99.067 10.41 99.079 10.322 99.102 10.236 99.125 10.151 99.149 10.067 99.183 9.984 99.218 9.903 99.265 9.825 99.312 9.749 99.359 9.675 99.405 9.604 99.464 9.535 99.522 9.47 99.592 9.407 99.65 9.347 99.72 9.291 99.79 9.239 99.872 9.19 99.942 9.144 100.023 9.103 100.105 9.067 100.187 9.033 100.268 9.005 100.35 8.981 100.443 8.961 100.525 8.945 100.618 8.934 100.7 8.927 100.793 8.925 100.887 8.927" style="fill: #f7b487; fill-rule: evenodd;"/>
            <polygon points="109.039 8.927 109.121 8.934 109.214 8.945 109.296 8.961 109.389 8.981 109.47 9.005 109.552 9.033 109.634 9.067 109.715 9.103 109.797 9.144 109.867 9.19 109.949 9.239 110.019 9.291 110.089 9.347 110.147 9.407 110.217 9.47 110.275 9.535 110.334 9.604 110.38 9.675 110.427 9.749 110.474 9.825 110.52 9.903 110.555 9.984 110.59 10.067 110.613 10.151 110.637 10.236 110.66 10.322 110.672 10.41 110.683 10.497 110.695 10.586 110.695 10.674 110.695 22.224 110.695 22.313 110.683 22.402 110.672 22.489 110.66 22.577 110.637 22.663 110.613 22.748 110.59 22.832 110.555 22.914 110.52 22.994 110.474 23.074 110.427 23.149 110.38 23.224 110.334 23.295 110.275 23.364 110.217 23.429 110.147 23.492 110.089 23.552 110.019 23.608 109.949 23.66 109.867 23.709 109.797 23.754 109.715 23.796 109.634 23.832 109.552 23.864 109.47 23.893 109.389 23.918 109.296 23.938 109.214 23.954 109.121 23.965 109.039 23.972 108.946 23.974 108.852 23.972 108.771 23.965 108.677 23.954 108.596 23.938 108.503 23.918 108.421 23.893 108.339 23.864 108.257 23.832 108.176 23.796 108.094 23.754 108.024 23.709 107.943 23.66 107.873 23.608 107.803 23.552 107.744 23.492 107.674 23.429 107.616 23.364 107.558 23.295 107.511 23.224 107.464 23.149 107.418 23.074 107.371 22.994 107.336 22.914 107.301 22.832 107.278 22.748 107.255 22.663 107.231 22.577 107.22 22.489 107.208 22.402 107.196 22.313 107.196 22.224 107.196 10.674 107.196 10.586 107.208 10.497 107.22 10.41 107.231 10.322 107.255 10.236 107.278 10.151 107.301 10.067 107.336 9.984 107.371 9.903 107.418 9.825 107.464 9.749 107.511 9.675 107.558 9.604 107.616 9.535 107.674 9.47 107.744 9.407 107.803 9.347 107.873 9.291 107.943 9.239 108.024 9.19 108.094 9.144 108.176 9.103 108.257 9.067 108.339 9.033 108.421 9.005 108.503 8.981 108.596 8.961 108.677 8.945 108.771 8.934 108.852 8.927 108.946 8.925 109.039 8.927" style="fill: #f7b487; fill-rule: evenodd;"/>
            <polygon points="117.192 8.927 117.273 8.934 117.366 8.945 117.448 8.961 117.542 8.981 117.623 9.005 117.705 9.033 117.786 9.067 117.868 9.103 117.95 9.144 118.02 9.19 118.101 9.239 118.171 9.291 118.241 9.347 118.3 9.407 118.37 9.47 118.428 9.535 118.486 9.604 118.533 9.675 118.579 9.749 118.626 9.825 118.673 9.903 118.708 9.984 118.743 10.067 118.766 10.151 118.789 10.236 118.813 10.322 118.824 10.41 118.836 10.497 118.848 10.586 118.848 10.674 118.848 22.224 118.848 22.313 118.836 22.402 118.824 22.489 118.813 22.577 118.789 22.663 118.766 22.748 118.743 22.832 118.708 22.914 118.673 22.994 118.626 23.074 118.579 23.149 118.533 23.224 118.486 23.295 118.428 23.364 118.37 23.429 118.3 23.492 118.241 23.552 118.171 23.608 118.101 23.66 118.02 23.709 117.95 23.754 117.868 23.796 117.786 23.832 117.705 23.864 117.623 23.893 117.542 23.918 117.448 23.938 117.366 23.954 117.273 23.965 117.192 23.972 117.098 23.974 117.005 23.972 116.923 23.965 116.83 23.954 116.748 23.938 116.655 23.918 116.573 23.893 116.492 23.864 116.41 23.832 116.329 23.796 116.247 23.754 116.177 23.709 116.095 23.66 116.025 23.608 115.955 23.552 115.897 23.492 115.827 23.429 115.769 23.364 115.71 23.295 115.664 23.224 115.617 23.149 115.57 23.074 115.524 22.994 115.489 22.914 115.454 22.832 115.43 22.748 115.407 22.663 115.384 22.577 115.372 22.489 115.36 22.402 115.349 22.313 115.349 22.224 115.349 10.674 115.349 10.586 115.36 10.497 115.372 10.41 115.384 10.322 115.407 10.236 115.43 10.151 115.454 10.067 115.489 9.984 115.524 9.903 115.57 9.825 115.617 9.749 115.664 9.675 115.71 9.604 115.769 9.535 115.827 9.47 115.897 9.407 115.955 9.347 116.025 9.291 116.095 9.239 116.177 9.19 116.247 9.144 116.329 9.103 116.41 9.067 116.492 9.033 116.573 9.005 116.655 8.981 116.748 8.961 116.83 8.945 116.923 8.934 117.005 8.927 117.098 8.925 117.192 8.927" style="fill: #f7b487; fill-rule: evenodd;"/>
            <polygon points="125.356 8.927 125.437 8.934 125.531 8.945 125.612 8.961 125.706 8.981 125.787 9.005 125.869 9.033 125.951 9.067 126.032 9.103 126.114 9.144 126.184 9.19 126.266 9.239 126.335 9.291 126.405 9.347 126.464 9.407 126.534 9.47 126.592 9.535 126.65 9.604 126.697 9.675 126.744 9.749 126.79 9.825 126.837 9.903 126.872 9.984 126.907 10.067 126.93 10.151 126.954 10.236 126.977 10.322 126.989 10.41 127 10.497 127.012 10.586 127.012 10.674 127.012 22.224 127.012 22.313 127 22.402 126.989 22.489 126.977 22.577 126.954 22.663 126.93 22.748 126.907 22.832 126.872 22.914 126.837 22.994 126.79 23.074 126.744 23.149 126.697 23.224 126.65 23.295 126.592 23.364 126.534 23.429 126.464 23.492 126.405 23.552 126.335 23.608 126.266 23.66 126.184 23.709 126.114 23.754 126.032 23.796 125.951 23.832 125.869 23.864 125.787 23.893 125.706 23.918 125.612 23.938 125.531 23.954 125.437 23.965 125.356 23.972 125.262 23.974 125.169 23.972 125.088 23.965 124.994 23.954 124.913 23.938 124.819 23.918 124.738 23.893 124.656 23.864 124.574 23.832 124.493 23.796 124.411 23.754 124.341 23.709 124.259 23.66 124.19 23.608 124.12 23.552 124.061 23.492 123.991 23.429 123.933 23.364 123.875 23.295 123.828 23.224 123.781 23.149 123.735 23.074 123.688 22.994 123.653 22.914 123.618 22.832 123.595 22.748 123.571 22.663 123.548 22.577 123.536 22.489 123.525 22.402 123.513 22.313 123.513 22.224 123.513 10.674 123.513 10.586 123.525 10.497 123.536 10.41 123.548 10.322 123.571 10.236 123.595 10.151 123.618 10.067 123.653 9.984 123.688 9.903 123.735 9.825 123.781 9.749 123.828 9.675 123.875 9.604 123.933 9.535 123.991 9.47 124.061 9.407 124.12 9.347 124.19 9.291 124.259 9.239 124.341 9.19 124.411 9.144 124.493 9.103 124.574 9.067 124.656 9.033 124.738 9.005 124.819 8.981 124.913 8.961 124.994 8.945 125.088 8.934 125.169 8.927 125.262 8.925 125.356 8.927" style="fill: #f7b487; fill-rule: evenodd;"/>
            <polygon points="133.508 8.927 133.59 8.934 133.683 8.945 133.765 8.961 133.858 8.981 133.94 9.005 134.022 9.033 134.103 9.067 134.185 9.103 134.266 9.144 134.336 9.19 134.418 9.239 134.488 9.291 134.558 9.347 134.616 9.407 134.686 9.47 134.745 9.535 134.803 9.604 134.85 9.675 134.896 9.749 134.943 9.825 134.99 9.903 135.025 9.984 135.059 10.067 135.083 10.151 135.106 10.236 135.129 10.322 135.141 10.41 135.153 10.497 135.165 10.586 135.165 10.674 135.165 22.224 135.165 22.313 135.153 22.402 135.141 22.489 135.129 22.577 135.106 22.663 135.083 22.748 135.059 22.832 135.025 22.914 134.99 22.994 134.943 23.074 134.896 23.149 134.85 23.224 134.803 23.295 134.745 23.364 134.686 23.429 134.616 23.492 134.558 23.552 134.488 23.608 134.418 23.66 134.336 23.709 134.266 23.754 134.185 23.796 134.103 23.832 134.022 23.864 133.94 23.893 133.858 23.918 133.765 23.938 133.683 23.954 133.59 23.965 133.508 23.972 133.415 23.974 133.333 23.972 133.24 23.965 133.147 23.954 133.065 23.938 132.984 23.918 132.89 23.893 132.809 23.864 132.727 23.832 132.645 23.796 132.564 23.754 132.494 23.709 132.412 23.66 132.342 23.608 132.272 23.552 132.214 23.492 132.144 23.429 132.086 23.364 132.027 23.295 131.98 23.224 131.934 23.149 131.887 23.074 131.84 22.994 131.806 22.914 131.771 22.832 131.747 22.748 131.724 22.663 131.701 22.577 131.689 22.489 131.677 22.402 131.666 22.313 131.666 22.224 131.666 10.674 131.666 10.586 131.677 10.497 131.689 10.41 131.701 10.322 131.724 10.236 131.747 10.151 131.771 10.067 131.806 9.984 131.84 9.903 131.887 9.825 131.934 9.749 131.98 9.675 132.027 9.604 132.086 9.535 132.144 9.47 132.214 9.407 132.272 9.347 132.342 9.291 132.412 9.239 132.494 9.19 132.564 9.144 132.645 9.103 132.727 9.067 132.809 9.033 132.89 9.005 132.984 8.981 133.065 8.961 133.147 8.945 133.24 8.934 133.333 8.927 133.415 8.925 133.508 8.927" style="fill: #f7b487; fill-rule: evenodd;"/>
          </g>
        </g>
        <g>
          <path d="M67.457,38.949c-.183-.239-.216-.561-.082-.83.135-.27.408-.44.709-.44.208,0,.399.096.526.26.856,1.119,4.181,5.473,4.181,5.473h-1.928s-2.119-2.773-3.407-4.462Z" style="fill: #f26116; fill-rule: evenodd;"/>
          <g style="clip-path: url(#clippath-2);">
            <line x1="69.242" y1="41.948" x2="72.796" y2="39.913" style="fill: none; stroke: #cd4b07; stroke-linecap: round; stroke-linejoin: round; stroke-width: 1.223px;"/>
            <line x1="68.443" y1="41.153" x2="71.997" y2="39.118" style="fill: none; stroke: #cd4b07; stroke-linecap: round; stroke-linejoin: round; stroke-width: 1.223px;"/>
            <line x1="69.976" y1="42.738" x2="73.525" y2="40.703" style="fill: none; stroke: #cd4b07; stroke-linecap: round; stroke-linejoin: round; stroke-width: 1.223px;"/>
            <line x1="70.754" y1="44.32" x2="74.303" y2="42.284" style="fill: none; stroke: #cd4b07; stroke-linecap: round; stroke-linejoin: round; stroke-width: 1.223px;"/>
          </g>
          <path d="M67.457,38.949c-.183-.239-.216-.561-.082-.83.135-.27.408-.44.709-.44.208,0,.399.096.526.26.46.601,1.557,2.04,1.557,2.04h-1.923s-.383-.497-.786-1.029Z" style="fill: #cd4b07; fill-rule: evenodd;"/>
          <path d="M68.17,43.536c0-.615.497-1.114,1.112-1.114,1.496,0,4.136,0,5.632,0,.615,0,1.112.499,1.112,1.114h0s-7.857,0-7.857,0h0Z" style="fill: #f26116; fill-rule: evenodd;"/>
          <path d="M62.449,38.947c-.183-.239-.212-.561-.081-.83.134-.27.408-.44.709-.44.208,0,.403.096.526.259.856,1.119,4.181,5.473,4.181,5.473h-1.928s-2.115-2.773-3.407-4.462Z" style="fill: #f28216; fill-rule: evenodd;"/>
          <g style="clip-path: url(#clippath-3);">
            <line x1="63.892" y1="41.615" x2="67.441" y2="39.58" style="fill: none; stroke: #f25b0d; stroke-linecap: round; stroke-linejoin: round; stroke-width: 1.223px;"/>
            <line x1="64.621" y1="42.406" x2="68.174" y2="40.37" style="fill: none; stroke: #f25b0d; stroke-linecap: round; stroke-linejoin: round; stroke-width: 1.223px;"/>
            <line x1="65.733" y1="44.32" x2="69.287" y2="42.284" style="fill: none; stroke: #f25b0d; stroke-linecap: round; stroke-linejoin: round; stroke-width: 1.223px;"/>
          </g>
          <path d="M62.449,38.947c-.183-.239-.212-.561-.081-.83.134-.27.408-.44.709-.44.208,0,.403.096.526.259.501.658,1.785,2.338,1.785,2.338h-1.923s-.513-.668-1.015-1.327Z" style="fill: #f26116; fill-rule: evenodd;"/>
          <path d="M63.072,43.536c0-.615.497-1.114,1.112-1.114,1.496,0,4.136,0,5.632,0,.615,0,1.112.499,1.112,1.114h0s-7.857,0-7.857,0h0Z" style="fill: #f28216; fill-rule: evenodd;"/>
          <path d="M70.595,34.579c.257.444.395.947.395,1.459,0,1.61-1.32,2.918-2.942,2.918s-2.938-1.307-2.938-2.918c0-.512.134-1.015.395-1.459h5.09Z" style="fill: #2cadc8; fill-rule: evenodd;"/>
          <path d="M84.3,9.4c0-.749-.297-1.467-.827-1.997-.53-.53-1.247-.827-1.997-.827-2.209,0-5.196,0-6.964,0-.933,0-1.805.46-2.331,1.231-3.88,5.68-19.87,29.079-19.87,29.079,0,0,6.182,0,12.804,0,8.766,0,15.873-7.107,15.873-15.873v-2.674c0-.275.106-.538.297-.736.412-.423,1.17-1.211,1.826-1.888.762-.791,1.19-1.846,1.19-2.945v-3.369Z" style="fill: #e8ddea; fill-rule: evenodd;"/>
          <g style="clip-path: url(#clippath-4);">
            <path d="M51.316,30.759h14.218s3.729-5.784,6.182-9.59c1.312-2.031,3.562-3.258,5.978-3.258,3.219,0,7.278,0,7.278,0v19.766h-36.643s2.987-6.918,2.987-6.918Z" style="fill: #57c1d8; fill-rule: evenodd;"/>
          </g>
          <path d="M76.048,13.584c0-.337.273-.611.611-.611.603,0,1.52,0,2.123,0,.338,0,.611.274.611.611,0,.337-.273.611-.611.611-.603,0-1.52,0-2.123,0-.338,0-.611-.274-.611-.611Z" style="fill: #d3c6d6; fill-rule: evenodd;"/>
          <path d="M80.632,11.343c0-.216.086-.423.24-.576.151-.153.359-.239.575-.239h2.853v1.63h-2.853c-.216,0-.424-.086-.575-.239-.155-.153-.24-.36-.24-.576Z" style="fill: #648ddb; fill-rule: evenodd;"/>
          <path d="M81.431,11.343c0-.225.183-.408.408-.408h.016c.224,0,.408.183.408.408,0,.225-.183.408-.408.408h-.016c-.224,0-.408-.183-.408-.408Z" style="fill: #280029; fill-rule: evenodd;"/>
          <polygon points="81.431 12.158 84.3 15.163 84.3 12.158 81.431 12.158" style="fill: #ffa625; fill-rule: evenodd;"/>
          <path d="M53.903,34.579h4.78s-2.421,3.504-3.488,5.049c-.31.449-.819.718-1.369.718-.762,0-1.459-.423-1.813-1.097-.355-.675-.306-1.49.126-2.117.917-1.323,1.765-2.553,1.765-2.553Z" style="fill: #57c1d8; fill-rule: evenodd;"/>
          <path d="M57.331,34.053h4.776s-2.417,3.504-3.484,5.049c-.31.45-.823.718-1.369.718-.762,0-1.463-.423-1.813-1.097-.355-.675-.306-1.49.126-2.117.913-1.323,1.765-2.553,1.765-2.553Z" style="fill: #57c1d8; fill-rule: evenodd;"/>
          <path d="M59.478,31.911h1.593s-3.06,4.435-3.814,5.527c-.106.151-.277.241-.46.241-.253,0-.485-.141-.603-.365-.118-.225-.102-.496.041-.705,1.153-1.668,3.244-4.697,3.244-4.697Z" style="fill: #2cadc8; fill-rule: evenodd;"/>
          <path d="M57.408,31.12h1.593s-3.044,4.411-3.81,5.518c-.106.156-.285.249-.477.249-.253,0-.481-.139-.599-.362-.114-.223-.098-.492.045-.699,1.149-1.666,3.248-4.706,3.248-4.706Z" style="fill: #2cadc8; fill-rule: evenodd;"/>
          <path d="M56.813,30.304h2.787s-.738,1.068-1.247,1.803c-.293.424-.774.677-1.292.677-.383,0-.734-.212-.913-.552-.175-.339-.151-.749.065-1.064.326-.472.599-.864.599-.864Z" style="fill: #e8ddea; fill-rule: evenodd;"/>
          <path d="M60.794,28.402h3.961s-2.258,3.273-3.338,4.837c-.355.51-.933.814-1.553.814-.583,0-1.112-.322-1.381-.835s-.232-1.134.098-1.611c1.055-1.527,2.213-3.205,2.213-3.205Z" style="fill: #e8ddea; fill-rule: evenodd;"/>
          <path d="M63.822,29.277h2.628s-1.63,2.359-2.302,3.334c-.179.26-.477.415-.791.415-.416,0-.795-.23-.99-.597-.192-.367-.163-.81.073-1.151.672-.978,1.381-2.001,1.381-2.001Z" style="fill: #e8ddea; fill-rule: evenodd;"/>
          <path d="M65.546,35.199c.257.444.395.947.395,1.459,0,1.61-1.32,2.918-2.942,2.918-1.622,0-2.938-1.307-2.938-2.918,0-.512.134-1.015.395-1.459h5.09Z" style="fill: #57c1d8; fill-rule: evenodd;"/>
          <rect x="76.206" y="9.713" width="3.203" height="3.26" rx=".64" ry=".64" style="fill: #fff;"/>
          <rect x="76.149" y="9.713" width="2.038" height="3.26" rx=".408" ry=".408" style="fill: #280029;"/>
        </g>
        <path d="M80.872,51.431v-6.092c0-12.525,10.159-22.679,22.685-22.679h35.386c2.542,0,4.852-1.506,5.878-3.838.175-.404.35-.805.525-1.187.105-.248.373-.386.642-.33.257.056.455.289.455.561v.006c0,2.817-1.12,5.518-3.114,7.51-1.994,1.992-4.689,3.111-7.511,3.111h-29.613c-4.525,0-8.864,1.798-12.071,4.999-3.196,3.2-4.992,7.541-4.992,12.068v5.872h-8.269Z" style="fill: #f8e2d3; fill-rule: evenodd;"/>
        <g style="clip-path: url(#clippath-5);">
          <polygon points="80.476 34.911 80.569 34.919 80.651 34.93 80.732 34.947 80.826 34.966 91.999 37.956 92.081 37.98 92.162 38.008 92.244 38.042 92.326 38.078 92.407 38.119 92.477 38.163 92.547 38.212 92.617 38.264 92.687 38.319 92.757 38.377 92.815 38.439 92.874 38.504 92.932 38.572 92.979 38.642 93.026 38.714 93.072 38.789 93.107 38.866 93.154 38.945 93.177 39.025 93.212 39.108 93.235 39.192 93.259 39.276 93.27 39.362 93.282 39.449 93.294 39.536 93.294 39.622 93.294 39.71 93.294 39.797 93.282 39.884 93.27 39.97 93.247 40.055 93.224 40.139 93.2 40.222 93.165 40.304 93.13 40.384 93.095 40.462 93.049 40.538 93.002 40.613 92.955 40.684 92.897 40.753 92.839 40.819 92.78 40.882 92.722 40.942 92.652 40.999 92.582 41.052 92.512 41.103 92.442 41.149 92.361 41.192 92.291 41.231 92.209 41.266 92.127 41.296 92.046 41.323 91.952 41.346 91.871 41.364 91.789 41.379 91.696 41.388 91.614 41.394 91.521 41.395 91.439 41.392 91.346 41.384 91.264 41.372 91.183 41.356 91.089 41.336 79.916 38.348 79.834 38.322 79.753 38.294 79.671 38.261 79.59 38.224 79.519 38.183 79.438 38.139 79.368 38.091 79.298 38.039 79.228 37.984 79.17 37.925 79.099 37.864 79.041 37.798 78.995 37.732 78.936 37.661 78.89 37.588 78.843 37.514 78.808 37.437 78.773 37.357 78.738 37.277 78.703 37.194 78.68 37.11 78.656 37.026 78.645 36.94 78.633 36.854 78.621 36.767 78.621 36.68 78.621 36.592 78.633 36.505 78.633 36.419 78.656 36.332 78.668 36.247 78.691 36.163 78.715 36.08 78.75 35.999 78.785 35.918 78.82 35.84 78.866 35.764 78.913 35.691 78.96 35.618 79.018 35.55 79.076 35.484 79.134 35.42 79.193 35.361 79.263 35.304 79.333 35.25 79.403 35.2 79.473 35.153 79.554 35.111 79.636 35.071 79.706 35.036 79.788 35.006 79.869 34.979 79.963 34.956 80.044 34.939 80.126 34.925 80.219 34.914 80.301 34.909 80.394 34.908 80.476 34.911" style="fill: #f8c7a6; fill-rule: evenodd;"/>
          <polygon points="86.051 24.66 86.121 24.666 86.202 24.675 86.272 24.687 86.354 24.702 86.424 24.72 86.494 24.741 86.564 24.766 86.634 24.794 86.704 24.824 86.774 24.858 86.832 24.894 86.902 24.934 86.96 24.976 87.03 25.02 87.089 25.067 87.136 25.117 87.194 25.169 95.382 33.336 95.428 33.39 95.475 33.447 95.521 33.505 95.568 33.566 95.615 33.628 95.65 33.692 95.684 33.758 95.72 33.826 95.755 33.895 95.778 33.965 95.801 34.036 95.825 34.107 95.848 34.18 95.86 34.254 95.871 34.329 95.883 34.403 95.883 34.478 95.895 34.554 95.895 34.628 95.883 34.704 95.883 34.779 95.871 34.853 95.848 34.927 95.836 35 95.813 35.074 95.79 35.145 95.766 35.216 95.743 35.285 95.708 35.354 95.673 35.42 95.638 35.486 95.591 35.548 95.545 35.61 95.51 35.67 95.451 35.727 95.405 35.783 95.346 35.837 95.3 35.887 95.241 35.936 95.183 35.981 95.113 36.026 95.055 36.065 94.985 36.104 94.926 36.139 94.856 36.171 94.787 36.2 94.717 36.226 94.647 36.249 94.565 36.269 94.495 36.287 94.425 36.301 94.343 36.311 94.273 36.318 94.204 36.322 94.122 36.323 94.052 36.321 93.97 36.315 93.9 36.307 93.819 36.295 93.749 36.279 93.678 36.261 93.609 36.239 93.539 36.214 93.469 36.188 93.399 36.156 93.329 36.123 93.259 36.086 93.2 36.048 93.13 36.006 93.072 35.961 93.014 35.914 92.955 35.865 92.909 35.812 84.721 27.646 84.675 27.591 84.616 27.535 84.57 27.476 84.535 27.416 84.488 27.353 84.453 27.289 84.406 27.223 84.383 27.156 84.348 27.087 84.325 27.017 84.29 26.946 84.278 26.873 84.255 26.801 84.243 26.726 84.231 26.653 84.22 26.578 84.208 26.503 84.208 26.428 84.208 26.352 84.22 26.277 84.22 26.202 84.231 26.128 84.243 26.053 84.266 25.98 84.278 25.908 84.301 25.835 84.336 25.765 84.36 25.695 84.395 25.628 84.43 25.561 84.465 25.496 84.511 25.433 84.546 25.371 84.593 25.312 84.639 25.253 84.698 25.199 84.745 25.145 84.803 25.094 84.861 25.046 84.919 24.999 84.978 24.956 85.048 24.915 85.106 24.878 85.176 24.842 85.246 24.81 85.316 24.781 85.386 24.754 85.456 24.731 85.526 24.711 85.608 24.695 85.678 24.681 85.748 24.67 85.829 24.663 85.899 24.659 85.981 24.657 86.051 24.66" style="fill: #f8c7a6; fill-rule: evenodd;"/>
          <polygon points="94.6 18.043 94.682 18.051 94.775 18.063 94.856 18.079 94.938 18.1 95.02 18.125 95.101 18.154 95.183 18.187 95.265 18.223 95.335 18.262 95.405 18.307 95.486 18.355 95.545 18.405 95.615 18.46 95.684 18.517 95.743 18.577 95.801 18.64 95.86 18.707 95.906 18.776 95.953 18.847 95.999 18.92 96.034 18.996 96.081 19.073 96.104 19.152 100.303 29.914 100.338 29.994 100.361 30.077 100.385 30.16 100.396 30.244 100.408 30.329 100.42 30.414 100.42 30.501 100.42 30.586 100.42 30.672 100.408 30.757 100.396 30.842 100.385 30.926 100.361 31.01 100.338 31.092 100.315 31.174 100.28 31.253 100.245 31.331 100.198 31.407 100.152 31.48 100.105 31.552 100.058 31.621 100 31.688 99.942 31.751 99.883 31.813 99.825 31.87 99.755 31.925 99.685 31.976 99.615 32.024 99.545 32.069 99.464 32.11 99.394 32.146 99.312 32.18 99.23 32.209 99.149 32.234 99.067 32.256 98.985 32.272 98.892 32.285 98.81 32.294 98.729 32.299 98.635 32.299 98.554 32.296 98.472 32.287 98.379 32.275 98.297 32.258 98.216 32.237 98.134 32.213 98.052 32.185 97.971 32.152 97.901 32.116 97.819 32.075 97.749 32.031 97.679 31.984 97.609 31.933 97.539 31.879 97.469 31.821 97.411 31.761 97.353 31.697 97.306 31.631 97.247 31.562 97.201 31.491 97.154 31.417 97.119 31.343 97.084 31.265 97.049 31.185 92.85 20.424 92.815 20.343 92.792 20.26 92.769 20.178 92.757 20.094 92.746 20.008 92.734 19.923 92.734 19.837 92.734 19.752 92.734 19.666 92.746 19.58 92.757 19.495 92.769 19.411 92.792 19.327 92.815 19.246 92.839 19.164 92.874 19.085 92.909 19.008 92.955 18.932 93.002 18.857 93.049 18.786 93.095 18.717 93.154 18.651 93.212 18.587 93.27 18.526 93.329 18.468 93.399 18.413 93.469 18.362 93.539 18.314 93.609 18.269 93.69 18.229 93.76 18.191 93.842 18.159 93.924 18.13 94.005 18.104 94.087 18.083 94.169 18.065 94.262 18.053 94.343 18.044 94.425 18.04 94.518 18.039 94.6 18.043" style="fill: #f8c7a6; fill-rule: evenodd;"/>
          <polygon points="104.385 18.884 104.467 18.891 104.56 18.903 104.642 18.918 104.735 18.938 104.817 18.962 104.899 18.991 104.98 19.024 105.062 19.061 105.143 19.102 105.214 19.147 105.295 19.196 105.365 19.248 105.435 19.304 105.493 19.363 105.563 19.426 105.622 19.492 105.68 19.561 105.727 19.632 105.773 19.706 105.82 19.782 105.867 19.862 105.901 19.942 105.936 20.024 105.96 20.108 105.983 20.193 106.007 20.279 106.018 20.367 106.03 20.454 106.042 20.543 106.042 20.631 106.042 32.181 106.042 32.27 106.03 32.359 106.018 32.446 106.007 32.534 105.983 32.62 105.96 32.705 105.936 32.789 105.901 32.872 105.867 32.952 105.82 33.03 105.773 33.107 105.727 33.181 105.68 33.252 105.622 33.321 105.563 33.387 105.493 33.449 105.435 33.509 105.365 33.565 105.295 33.617 105.214 33.666 105.143 33.712 105.062 33.752 104.98 33.79 104.899 33.822 104.817 33.85 104.735 33.875 104.642 33.895 104.56 33.911 104.467 33.921 104.385 33.928 104.292 33.931 104.199 33.928 104.117 33.921 104.024 33.911 103.942 33.895 103.849 33.875 103.767 33.85 103.686 33.822 103.604 33.79 103.522 33.752 103.441 33.712 103.371 33.666 103.289 33.617 103.219 33.565 103.149 33.509 103.091 33.449 103.021 33.387 102.963 33.321 102.904 33.252 102.858 33.181 102.811 33.107 102.764 33.03 102.717 32.952 102.682 32.872 102.648 32.789 102.624 32.705 102.601 32.62 102.578 32.534 102.566 32.446 102.554 32.359 102.543 32.27 102.543 32.181 102.543 20.631 102.543 20.543 102.554 20.454 102.566 20.367 102.578 20.279 102.601 20.193 102.624 20.108 102.648 20.024 102.682 19.942 102.717 19.862 102.764 19.782 102.811 19.706 102.858 19.632 102.904 19.561 102.963 19.492 103.021 19.426 103.091 19.363 103.149 19.304 103.219 19.248 103.289 19.196 103.371 19.147 103.441 19.102 103.522 19.061 103.604 19.024 103.686 18.991 103.767 18.962 103.849 18.938 103.942 18.918 104.024 18.903 104.117 18.891 104.199 18.884 104.292 18.882 104.385 18.884" style="fill: #f8c7a6; fill-rule: evenodd;"/>
          <polygon points="112.538 18.884 112.619 18.891 112.713 18.903 112.795 18.918 112.888 18.938 112.969 18.962 113.051 18.991 113.133 19.024 113.214 19.061 113.296 19.102 113.366 19.147 113.448 19.196 113.518 19.248 113.588 19.304 113.646 19.363 113.716 19.426 113.774 19.492 113.832 19.561 113.879 19.632 113.926 19.706 113.973 19.782 114.019 19.862 114.054 19.942 114.089 20.024 114.112 20.108 114.136 20.193 114.159 20.279 114.171 20.367 114.182 20.454 114.194 20.543 114.194 20.631 114.194 32.181 114.194 32.27 114.182 32.359 114.171 32.446 114.159 32.534 114.136 32.62 114.112 32.705 114.089 32.789 114.054 32.872 114.019 32.952 113.973 33.03 113.926 33.107 113.879 33.181 113.832 33.252 113.774 33.321 113.716 33.387 113.646 33.449 113.588 33.509 113.518 33.565 113.448 33.617 113.366 33.666 113.296 33.712 113.214 33.752 113.133 33.79 113.051 33.822 112.969 33.85 112.888 33.875 112.795 33.895 112.713 33.911 112.619 33.921 112.538 33.928 112.445 33.931 112.351 33.928 112.27 33.921 112.176 33.911 112.095 33.895 112.002 33.875 111.92 33.85 111.838 33.822 111.756 33.79 111.675 33.752 111.593 33.712 111.523 33.666 111.441 33.617 111.372 33.565 111.302 33.509 111.243 33.449 111.173 33.387 111.115 33.321 111.057 33.252 111.01 33.181 110.963 33.107 110.917 33.03 110.87 32.952 110.835 32.872 110.8 32.789 110.777 32.705 110.754 32.62 110.73 32.534 110.719 32.446 110.707 32.359 110.695 32.27 110.695 32.181 110.695 20.631 110.695 20.543 110.707 20.454 110.719 20.367 110.73 20.279 110.754 20.193 110.777 20.108 110.8 20.024 110.835 19.942 110.87 19.862 110.917 19.782 110.963 19.706 111.01 19.632 111.057 19.561 111.115 19.492 111.173 19.426 111.243 19.363 111.302 19.304 111.372 19.248 111.441 19.196 111.523 19.147 111.593 19.102 111.675 19.061 111.756 19.024 111.838 18.991 111.92 18.962 112.002 18.938 112.095 18.918 112.176 18.903 112.27 18.891 112.351 18.884 112.445 18.882 112.538 18.884" style="fill: #f8c7a6; fill-rule: evenodd;"/>
          <polygon points="120.691 18.884 120.772 18.891 120.865 18.903 120.947 18.918 121.041 18.938 121.122 18.962 121.204 18.991 121.285 19.024 121.367 19.061 121.449 19.102 121.519 19.147 121.6 19.196 121.67 19.248 121.74 19.304 121.799 19.363 121.869 19.426 121.927 19.492 121.985 19.561 122.032 19.632 122.078 19.706 122.125 19.782 122.172 19.862 122.207 19.942 122.242 20.024 122.265 20.108 122.288 20.193 122.312 20.279 122.323 20.367 122.335 20.454 122.347 20.543 122.347 20.631 122.347 32.181 122.347 32.27 122.335 32.359 122.323 32.446 122.312 32.534 122.288 32.62 122.265 32.705 122.242 32.789 122.207 32.872 122.172 32.952 122.125 33.03 122.078 33.107 122.032 33.181 121.985 33.252 121.927 33.321 121.869 33.387 121.799 33.449 121.74 33.509 121.67 33.565 121.6 33.617 121.519 33.666 121.449 33.712 121.367 33.752 121.285 33.79 121.204 33.822 121.122 33.85 121.041 33.875 120.947 33.895 120.865 33.911 120.772 33.921 120.691 33.928 120.597 33.931 120.504 33.928 120.422 33.921 120.329 33.911 120.247 33.895 120.154 33.875 120.072 33.85 119.991 33.822 119.909 33.79 119.828 33.752 119.746 33.712 119.676 33.666 119.594 33.617 119.524 33.565 119.454 33.509 119.396 33.449 119.326 33.387 119.268 33.321 119.209 33.252 119.163 33.181 119.116 33.107 119.069 33.03 119.023 32.952 118.988 32.872 118.953 32.789 118.929 32.705 118.906 32.62 118.883 32.534 118.871 32.446 118.859 32.359 118.848 32.27 118.848 32.181 118.848 20.631 118.848 20.543 118.859 20.454 118.871 20.367 118.883 20.279 118.906 20.193 118.929 20.108 118.953 20.024 118.988 19.942 119.023 19.862 119.069 19.782 119.116 19.706 119.163 19.632 119.209 19.561 119.268 19.492 119.326 19.426 119.396 19.363 119.454 19.304 119.524 19.248 119.594 19.196 119.676 19.147 119.746 19.102 119.828 19.061 119.909 19.024 119.991 18.991 120.072 18.962 120.154 18.938 120.247 18.918 120.329 18.903 120.422 18.891 120.504 18.884 120.597 18.882 120.691 18.884" style="fill: #f8c7a6; fill-rule: evenodd;"/>
          <polygon points="128.855 18.884 128.936 18.891 129.03 18.903 129.111 18.918 129.205 18.938 129.286 18.962 129.368 18.991 129.45 19.024 129.531 19.061 129.613 19.102 129.683 19.147 129.765 19.196 129.834 19.248 129.904 19.304 129.963 19.363 130.033 19.426 130.091 19.492 130.149 19.561 130.196 19.632 130.243 19.706 130.289 19.782 130.336 19.862 130.371 19.942 130.406 20.024 130.429 20.108 130.453 20.193 130.476 20.279 130.488 20.367 130.499 20.454 130.511 20.543 130.511 20.631 130.511 32.181 130.511 32.27 130.499 32.359 130.488 32.446 130.476 32.534 130.453 32.62 130.429 32.705 130.406 32.789 130.371 32.872 130.336 32.952 130.289 33.03 130.243 33.107 130.196 33.181 130.149 33.252 130.091 33.321 130.033 33.387 129.963 33.449 129.904 33.509 129.834 33.565 129.765 33.617 129.683 33.666 129.613 33.712 129.531 33.752 129.45 33.79 129.368 33.822 129.286 33.85 129.205 33.875 129.111 33.895 129.03 33.911 128.936 33.921 128.855 33.928 128.761 33.931 128.668 33.928 128.587 33.921 128.493 33.911 128.411 33.895 128.318 33.875 128.237 33.85 128.155 33.822 128.073 33.79 127.992 33.752 127.91 33.712 127.84 33.666 127.758 33.617 127.689 33.565 127.618 33.509 127.56 33.449 127.49 33.387 127.432 33.321 127.374 33.252 127.327 33.181 127.28 33.107 127.233 33.03 127.187 32.952 127.152 32.872 127.117 32.789 127.094 32.705 127.07 32.62 127.047 32.534 127.035 32.446 127.024 32.359 127.012 32.27 127.012 32.181 127.012 20.631 127.012 20.543 127.024 20.454 127.035 20.367 127.047 20.279 127.07 20.193 127.094 20.108 127.117 20.024 127.152 19.942 127.187 19.862 127.233 19.782 127.28 19.706 127.327 19.632 127.374 19.561 127.432 19.492 127.49 19.426 127.56 19.363 127.618 19.304 127.689 19.248 127.758 19.196 127.84 19.147 127.91 19.102 127.992 19.061 128.073 19.024 128.155 18.991 128.237 18.962 128.318 18.938 128.411 18.918 128.493 18.903 128.587 18.891 128.668 18.884 128.761 18.882 128.855 18.884" style="fill: #f8c7a6; fill-rule: evenodd;"/>
          <polygon points="137.007 18.884 137.089 18.891 137.182 18.903 137.264 18.918 137.357 18.938 137.439 18.962 137.521 18.991 137.602 19.024 137.684 19.061 137.765 19.102 137.847 19.147 137.917 19.196 137.987 19.248 138.057 19.304 138.127 19.363 138.185 19.426 138.244 19.492 138.302 19.561 138.349 19.632 138.395 19.706 138.442 19.782 138.489 19.862 138.524 19.942 138.558 20.024 138.582 20.108 138.605 20.193 138.628 20.279 138.64 20.367 138.652 20.454 138.663 20.543 138.663 20.631 138.663 32.181 138.663 32.27 138.652 32.359 138.64 32.446 138.628 32.534 138.605 32.62 138.582 32.705 138.558 32.789 138.524 32.872 138.489 32.952 138.442 33.03 138.395 33.107 138.349 33.181 138.302 33.252 138.244 33.321 138.185 33.387 138.127 33.449 138.057 33.509 137.987 33.565 137.917 33.617 137.847 33.666 137.765 33.712 137.684 33.752 137.602 33.79 137.521 33.822 137.439 33.85 137.357 33.875 137.264 33.895 137.182 33.911 137.089 33.921 137.007 33.928 136.914 33.931 136.832 33.928 136.739 33.921 136.646 33.911 136.564 33.895 136.483 33.875 136.389 33.85 136.307 33.822 136.226 33.79 136.144 33.752 136.063 33.712 135.993 33.666 135.911 33.617 135.841 33.565 135.771 33.509 135.713 33.449 135.643 33.387 135.585 33.321 135.538 33.252 135.479 33.181 135.433 33.107 135.386 33.03 135.339 32.952 135.305 32.872 135.281 32.789 135.246 32.705 135.223 32.62 135.2 32.534 135.188 32.446 135.176 32.359 135.165 32.27 135.165 32.181 135.165 20.631 135.165 20.543 135.176 20.454 135.188 20.367 135.2 20.279 135.223 20.193 135.246 20.108 135.281 20.024 135.305 19.942 135.339 19.862 135.386 19.782 135.433 19.706 135.479 19.632 135.538 19.561 135.585 19.492 135.643 19.426 135.713 19.363 135.771 19.304 135.841 19.248 135.911 19.196 135.993 19.147 136.063 19.102 136.144 19.061 136.226 19.024 136.307 18.991 136.389 18.962 136.483 18.938 136.564 18.918 136.646 18.903 136.739 18.891 136.832 18.884 136.914 18.882 137.007 18.884" style="fill: #f8c7a6; fill-rule: evenodd;"/>
        </g>
      </g>
      <g style="clip-path: url(#clippath-6);">
        <g>
          <path d="M105.063,247.983c-14.383,0-28.139-5.869-38.111-16.25-9.954-10.381-15.244-24.375-14.652-38.747,2.044-49.095,4.86-116.952,5.901-141.718.215-5.327,4.609-9.532,9.935-9.532h15.764c5.506,0,9.954,4.453,9.954,9.946v.949-.002c0-7.997,6.475-14.48,14.473-14.48h14.222v2.297c0,5.097-2.026,9.986-5.631,13.587-3.605,3.603-8.501,5.626-13.594,5.621-.807,0-1.596,0-2.332-.002-1.865-.002-3.623.768-4.896,2.123-1.255,1.358-1.901,3.178-1.775,5.025,1.237,17.09,4.34,60.367,5.793,80.675.448,6.105,5.524,10.834,11.639,10.834h64.672c10.833,0,21.163,4.581,28.426,12.61,7.264,8.029,10.797,18.757,9.721,29.532-2.332,23.279-4.771,47.531-4.771,47.531h-104.737Z" style="fill: #f8d6bf; fill-rule: evenodd;"/>
          <g style="clip-path: url(#clippath-7);">
            <path d="M125.347,236.942c-30.399-.437-54.808-25.202-54.808-55.601v-113.91l-18.723-4.229c3.443-21.096,21.396-36.764,42.773-37.313,15.011-.387,28.893-.744,28.893-.744v27.908l-7.766,96.414h74.374c11.729,0,22.813,5.37,30.076,14.575,7.264,9.205,9.918,21.231,7.21,32.64-5.075,21.224-9.936,41.586-9.936,41.586,0,0-50.342-.725-92.093-1.326Z" style="fill: #f7a06c; fill-rule: evenodd;"/>
          </g>
          <path d="M116.416,43.53h-8.376c-4.878,0-8.824,3.953-8.824,8.829v1.932h8.375c4.878,0,8.824-3.953,8.824-8.829v-1.932Z" style="fill: #f8b98f; fill-rule: evenodd;"/>
          <path d="M73.498,47.133s-30.04,7.201-39.527,9.471c-1.65.398-2.834,1.881-2.834,3.589v3.008c0,.673.269,1.32.753,1.795.466.477,1.112.744,1.793.744v2.796c0,2.037,1.65,3.689,3.695,3.689h35.277l.843-25.092Z" style="fill: #f7a06c; fill-rule: evenodd;"/>
          <g style="clip-path: url(#clippath-8);">
            <path d="M70.539,71.312c0-2.611-1.04-5.117-2.888-6.964-1.847-1.845-4.34-2.884-6.958-2.884h-25.234c-.681,0-1.363.231-1.901.658-.968.766-2.439,1.926-2.439,1.926,0,0-.305,3.35-.538,6.031-.072.847.215,1.686.771,2.319.574.633,1.381,1.003,2.224,1.02,9.613.203,36.963.778,36.963.778v-2.886Z" style="fill: #f8d6bf; fill-rule: evenodd;"/>
          </g>
          <path d="M83.201,51.298c0-.633-.251-1.239-.7-1.688s-1.058-.699-1.686-.699h-13.271c-1.309,0-2.385,1.069-2.385,2.387v4.193c0,1.318,1.076,2.387,2.385,2.387h13.271c.628,0,1.237-.251,1.686-.699s.7-1.055.7-1.688v-4.193Z" style="fill: #fff; fill-rule: evenodd;"/>
          <line x1="34.114" y1="66.845" x2="52.318" y2="66.845" style="fill: none; stroke: #270228; stroke-linecap: round; stroke-linejoin: round; stroke-width: 3.587px;"/>
          <path d="M84.887,51.298c0-1.318-1.076-2.387-2.385-2.387h-5.99c-.628,0-1.238.251-1.686.699s-.699,1.055-.699,1.688v4.193c0,.633.251,1.239.699,1.688s1.058.699,1.686.699h5.99c1.309,0,2.385-1.069,2.385-2.387v-4.193Z" style="fill: #270228; fill-rule: evenodd;"/>
          <path d="M31.083,61.465h7.174v5.38h-3.139c-2.224,0-4.035-1.806-4.035-4.035v-1.345Z" style="fill: #270228; fill-rule: evenodd;"/>
        </g>
      </g>
    </g>
  </g>
</svg>