<?xml version="1.0" encoding="UTF-8"?>
<svg xmlns="http://www.w3.org/2000/svg" width="150" height="150" xmlns:xlink="http://www.w3.org/1999/xlink" version="1.1" viewBox="0 0 150 150">
  <!-- Generator: Adobe Illustrator 29.4.0, SVG Export Plug-In . SVG Version: 2.1.0 Build 152)  -->
  <defs>
    <clipPath id="clippath">
      <path d="M-146.993,75l10.18-.231,6.616,2.23c7.092,5.37,10.202,14.864,7.279,23.543-.029.088-.078.312.106.496.053.053.133.133.323.133.061,0,.12-.01.177-.028,2.166-.729,4.422-1.098,6.706-1.098,7.95,0,15.366,4.594,18.895,11.706.041.083.165.275.426.275s.385-.193.425-.273c3.527-7.112,10.944-11.708,18.895-11.708,2.285,0,4.542.37,6.709,1.099.053.018.114.027.174.027.189,0,.27-.081.323-.133.184-.184.135-.408.106-.495-1.315-3.903-1.394-7.967-.455-11.751h8.084l8.372-14.28,6.675-33.534L-53.65,3.582l-93.343,54.221v17.197Z" style="fill: none;"/>
    </clipPath>
    <clipPath id="clippath-1">
      <path d="M-66.955,247.983c-14.383,0-28.139-5.869-38.111-16.25-9.954-10.381-15.244-24.375-14.652-38.747,2.044-49.095,4.86-116.952,5.901-141.718.215-5.327,4.609-9.532,9.935-9.532h15.764c5.506,0,9.954,4.453,9.954,9.946v.949-.002c0-7.997,6.475-14.48,14.473-14.48h14.222v2.297c0,5.097-2.026,9.986-5.631,13.587-3.605,3.603-8.501,5.626-13.594,5.621-.807,0-1.596,0-2.332-.002-1.865-.002-3.623.768-4.896,2.123-1.255,1.358-1.901,3.178-1.775,5.025,1.237,17.09,4.34,60.367,5.793,80.675.448,6.105,5.524,10.834,11.639,10.834H4.407c10.833,0,21.163,4.581,28.426,12.61,7.264,8.029,10.797,18.757,9.721,29.532-2.332,23.279-4.771,47.531-4.771,47.531h-104.737Z" style="clip-rule: evenodd; fill: none;"/>
    </clipPath>
    <clipPath id="clippath-2">
      <path d="M120.095,59.683c-2.225-1.104-3.308-3.716-2.515-6.071,1.944-5.772.625-12.396-3.974-16.996h0c-4.599-4.6-11.224-5.918-16.996-3.975-2.354.793-4.967-.289-6.071-2.515-2.707-5.456-8.324-9.208-14.828-9.208s-12.121,3.752-14.828,9.208c-1.104,2.225-3.716,3.307-6.071,2.515-5.772-1.944-12.397-.625-16.996,3.974h0c-4.599,4.6-5.918,11.224-3.974,16.996.793,2.354-.289,4.967-2.515,6.071-5.456,2.707-9.208,8.324-9.208,14.828h0c0,6.505,3.752,12.121,9.208,14.828,2.225,1.104,3.307,3.716,2.515,6.071-1.944,5.772-.625,12.397,3.974,16.996,4.6,4.599,11.224,5.918,16.996,3.974,2.354-.793,4.967.289,6.071,2.515,2.707,5.456,8.324,9.208,14.828,9.208s12.121-3.752,14.828-9.208c1.104-2.225,3.716-3.308,6.071-2.515,5.772,1.944,12.397.625,16.996-3.974s5.918-11.224,3.974-16.996c-.793-2.354.289-4.967,2.515-6.071,5.456-2.707,9.208-8.324,9.208-14.828h0c0-6.505-3.752-12.121-9.208-14.828Z" style="fill: none;"/>
    </clipPath>
    <clipPath id="clippath-3">
      <path d="M77.654,21.721h-30.558l-8.798,52.504c-.055.068-.101.16-.101.286,0,.262.193.385.276.427,9.391,4.66,13.951,15.667,10.605,25.604-.029.088-.078.312.106.496.053.053.133.133.323.133.061,0,.12-.01.177-.028,2.166-.729,4.422-1.098,6.706-1.098,7.95,0,15.366,4.594,18.895,11.706.041.083.165.275.426.275s.385-.193.425-.273c3.527-7.112,10.944-11.708,18.895-11.708,2.285,0,4.542.37,6.709,1.099.053.018.114.027.174.027.189,0,.27-.081.323-.133.184-.184.135-.408.106-.495-.245-.726-.435-1.459-.596-2.194l19.441-13.557,22.896-2.636,4.834-9.522L77.654,21.721Z" style="fill: none;"/>
    </clipPath>
    <clipPath id="clippath-4">
      <path d="M50.076,44.139l-1.313-.032c-.495-.012-.872-.449-.812-.941l.161-1.303c.3-2.432,2.291-4.304,4.737-4.454l1.839-.113c.553-.034.987.469.872,1.011l-.382,1.802c-.508,2.397-2.653,4.091-5.102,4.03Z" style="clip-rule: evenodd; fill: none;"/>
    </clipPath>
    <clipPath id="clippath-5">
      <path d="M61.464,23.844l-.287-1.281c-.108-.484-.61-.768-1.081-.613l-1.247.411c-2.327.767-3.776,3.084-3.448,5.512l.247,1.826c.074.549.651.877,1.161.659l1.694-.725c2.252-.964,3.497-3.397,2.962-5.788Z" style="clip-rule: evenodd; fill: none;"/>
    </clipPath>
    <clipPath id="clippath-6">
      <path d="M56.784,48.587l-1.313-.032c-.495-.012-.872-.449-.812-.941l.161-1.303c.3-2.432,2.291-4.304,4.737-4.454l1.839-.113c.553-.034.987.469.872,1.011l-.382,1.802c-.508,2.397-2.653,4.091-5.102,4.03Z" style="clip-rule: evenodd; fill: none;"/>
    </clipPath>
  </defs>
  <g style="isolation: isolate;">
    <g id="Layer_1">
      <g style="clip-path: url(#clippath);">
        <g>
          <path d="M-66.955,247.983c-14.383,0-28.139-5.869-38.111-16.25-9.954-10.381-15.244-24.375-14.652-38.747,2.044-49.095,4.86-116.952,5.901-141.718.215-5.327,4.609-9.532,9.935-9.532h15.764c5.506,0,9.954,4.453,9.954,9.946v.949-.002c0-7.997,6.475-14.48,14.473-14.48h14.222v2.297c0,5.097-2.026,9.986-5.631,13.587-3.605,3.603-8.501,5.626-13.594,5.621-.807,0-1.596,0-2.332-.002-1.865-.002-3.623.768-4.896,2.123-1.255,1.358-1.901,3.178-1.775,5.025,1.237,17.09,4.34,60.367,5.793,80.675.448,6.105,5.524,10.834,11.639,10.834H4.407c10.833,0,21.163,4.581,28.426,12.61,7.264,8.029,10.797,18.757,9.721,29.532-2.332,23.279-4.771,47.531-4.771,47.531h-104.737Z" style="fill: #f8d6bf; fill-rule: evenodd;"/>
          <g style="clip-path: url(#clippath-1);">
            <path d="M-46.671,236.942c-30.399-.437-54.808-25.202-54.808-55.601v-113.91l-18.723-4.229c3.443-21.096,21.396-36.764,42.773-37.313,15.011-.387,28.893-.744,28.893-.744v27.908l-7.766,96.414H18.073c11.729,0,22.813,5.37,30.076,14.575,7.264,9.205,9.918,21.231,7.21,32.64-5.075,21.224-9.936,41.586-9.936,41.586,0,0-50.342-.725-92.093-1.326Z" style="fill: #f7a06c; fill-rule: evenodd;"/>
          </g>
        </g>
      </g>
      <g>
        <g style="clip-path: url(#clippath-2);">
          <path d="M120.095,59.683c-2.225-1.104-3.308-3.716-2.515-6.071,1.944-5.772.625-12.396-3.974-16.996h0c-4.599-4.6-11.224-5.918-16.996-3.975-2.354.793-4.967-.289-6.071-2.515-2.707-5.456-8.324-9.208-14.828-9.208s-12.121,3.752-14.828,9.208c-1.104,2.225-3.716,3.307-6.071,2.515-5.772-1.944-12.397-.625-16.996,3.974h0c-4.599,4.6-5.918,11.224-3.974,16.996.793,2.354-.289,4.967-2.515,6.071-5.456,2.707-9.208,8.324-9.208,14.828h0c0,6.505,3.752,12.121,9.208,14.828,2.225,1.104,3.307,3.716,2.515,6.071-1.944,5.772-.625,12.397,3.974,16.996,4.6,4.599,11.224,5.918,16.996,3.974,2.354-.793,4.967.289,6.071,2.515,2.707,5.456,8.324,9.208,14.828,9.208s12.121-3.752,14.828-9.208c1.104-2.225,3.716-3.308,6.071-2.515,5.772,1.944,12.397.625,16.996-3.974s5.918-11.224,3.974-16.996c-.793-2.354.289-4.967,2.515-6.071,5.456-2.707,9.208-8.324,9.208-14.828h0c0-6.505-3.752-12.121-9.208-14.828Z" style="fill: #dd1d68;"/>
          <path d="M75.712,112.025c-.261,0-.385-.193-.426-.275-3.529-7.111-10.945-11.705-18.895-11.705-2.284,0-4.541.369-6.706,1.098-.057.019-.116.028-.177.028-.189,0-.27-.08-.323-.133-.184-.184-.136-.408-.106-.496,3.346-9.936-1.214-20.944-10.605-25.604-.084-.042-.276-.165-.276-.427s.193-.384.276-.426c9.393-4.661,13.952-15.668,10.605-25.605-.029-.087-.078-.311.106-.495.055-.054.135-.134.323-.134.061,0,.12.009.173.027,2.166.73,4.425,1.1,6.712,1.1,7.949-.001,15.364-4.595,18.892-11.704.042-.084.166-.277.427-.277s.385.194.426.276c3.527,7.11,10.943,11.705,18.894,11.705,2.287-.001,4.546-.371,6.714-1.101.049-.017.109-.026.17-.026.19,0,.271.081.324.134.184.183.135.408.105.496-3.347,9.935,1.212,20.943,10.604,25.604.085.042.277.165.277.426s-.193.385-.276.426c-9.394,4.662-13.953,15.669-10.606,25.606.029.087.078.311-.106.495-.053.052-.133.133-.323.133-.061,0-.121-.009-.174-.027-2.168-.73-4.424-1.099-6.709-1.099-7.951,0-15.368,4.595-18.895,11.707-.04.081-.164.273-.425.273Z" style="fill: #b50859;"/>
          <rect x="22.12" y="20.92" width="53.592" height="107.183" style="fill: #d2deef; mix-blend-mode: multiply;"/>
        </g>
        <g style="clip-path: url(#clippath-3);">
          <g>
            <path d="M145.69,71.45l-28.523-16.465-4.666,8.098s11.984,6.923,20.416,11.79c4.474,2.582,10.193,1.05,12.774-3.422h0Z" style="fill: #d7e4e5; fill-rule: evenodd;"/>
            <path d="M134.354,74.352l-21.276-12.281-4.089,7.085s7.996,4.618,14.191,8.191c1.873,1.085,4.11,1.379,6.205.817,2.095-.562,3.887-1.933,4.97-3.811h0Z" style="fill: #d7e4e5; fill-rule: evenodd;"/>
            <path d="M127.775,61.059l-41.5-24.192-12.602,13.058h-7.642c-5.638,0-11.043,2.239-15.031,6.226-3.988,3.986-6.225,9.393-6.225,15.03,0,11.739,9.515,21.256,21.256,21.256h28.938c11.347,0,21.641-6.646,26.307-16.987,3.34-7.389,6.498-14.391,6.498-14.391Z" style="fill: #f3ffff; fill-rule: evenodd;"/>
            <circle cx="85.263" cy="73.205" r="4.049" style="fill: #d7e4e5;"/>
            <circle cx="93.36" cy="73.205" r="4.049" style="fill: #d7e4e5;"/>
            <circle cx="101.458" cy="73.205" r="4.049" style="fill: #d7e4e5;"/>
            <circle cx="109.555" cy="73.205" r="4.049" style="fill: #d7e4e5;"/>
            <path d="M118.665,66.12h-46.561v.002c0,3.912,3.168,7.083,7.085,7.083h32.39c3.917,0,7.085-3.171,7.085-7.083v-.002Z" style="fill: #d7e4e5; fill-rule: evenodd;"/>
            <circle cx="80.202" cy="66.12" r="4.049" style="fill: #f3ffff;"/>
            <circle cx="88.299" cy="66.12" r="4.049" style="fill: #f3ffff;"/>
            <circle cx="96.397" cy="66.12" r="4.049" style="fill: #f3ffff;"/>
            <path d="M89.311,38.983h-20.717c-8.168,0-14.798,6.626-14.798,14.798h20.717c8.168,0,14.798-6.626,14.798-14.798Z" style="fill: #d7e4e5; fill-rule: evenodd;"/>
            <circle cx="75.647" cy="38.79" r="13.665" style="fill: #d7e4e5;"/>
            <path d="M79.19,40.815c0-1.117-.911-2.024-2.024-2.024h-5.061c-1.113,0-2.024.907-2.024,2.024s.911,2.024,2.024,2.024h5.061c1.113,0,2.024-.907,2.024-2.024Z" style="fill: #bbd7d8; fill-rule: evenodd;"/>
            <rect x="70.08" y="31.705" width="8.098" height="7.085" rx="1.771" ry="1.771" style="fill: #fff;"/>
            <rect x="73.116" y="31.705" width="5.061" height="7.085" rx="1.265" ry="1.265" style="fill: #280229;"/>
            <g>
              <path d="M88.299,92.436h-19.232v.02c-1.301.097-2.536.651-3.462,1.58-1.022,1.024-1.599,2.414-1.599,3.862v3.648c0,.537.213,1.052.597,1.431.375.38.891.593,1.427.593,1.113,0,2.025-.906,2.025-2.024v-3.037c0-1.118.911-2.025,2.024-2.025h.506c.405,0,.79.16,1.073.445.283.285.445.671.445,1.074s.162.789.445,1.074c.283.285.668.445,1.073.445h.506c1.113,0,2.024-.906,2.024-2.025v-1.012h12.146v-4.049Z" style="fill: #ed621f; fill-rule: evenodd;"/>
              <circle cx="90.324" cy="92.436" r="8.098" style="fill: #f3ffff;"/>
            </g>
            <g>
              <path d="M48.872,26.097l-1.312.048c-.495.018-.867.46-.8.951l.177,1.301c.33,2.428,2.343,4.276,4.79,4.397l1.84.091c.554.027.981-.48.859-1.021l-.404-1.797c-.537-2.39-2.702-4.059-5.15-3.969Z" style="fill: #2bc200; fill-rule: evenodd;"/>
              <line x1="62.007" y1="39.493" x2="51.383" y2="30.163" style="fill: none; stroke: #24a600; stroke-linecap: round; stroke-miterlimit: 10; stroke-width: 1.2px;"/>
              <path d="M53.829,39.081l.466-.531c1.596-1.818,4.364-1.997,6.181-.401l11.077,9.728-13.421-11.786c-2.493-2.189-2.739-5.984-.55-8.477h0" style="fill: none; fill-rule: evenodd; stroke: #2bc200; stroke-linecap: round; stroke-linejoin: round; stroke-width: 1.2px;"/>
              <g style="clip-path: url(#clippath-4);">
                <path d="M50.076,44.139l-1.313-.032c-.495-.012-.872-.449-.812-.941l.161-1.303c.3-2.432,2.291-4.304,4.737-4.454l1.839-.113c.553-.034.987.469.872,1.011l-.382,1.802c-.508,2.397-2.653,4.091-5.102,4.03Z" style="fill: #2bc200; fill-rule: evenodd;"/>
                <path d="M55.412,37.639s-2.07,1.201-4.088,3.235" style="fill: none; fill-rule: evenodd; stroke: #24a600; stroke-linecap: round; stroke-miterlimit: 10; stroke-width: 1.2px;"/>
              </g>
              <g style="clip-path: url(#clippath-5);">
                <path d="M61.464,23.844l-.287-1.281c-.108-.484-.61-.768-1.081-.613l-1.247.411c-2.327.767-3.776,3.084-3.448,5.512l.247,1.826c.074.549.651.877,1.161.659l1.694-.725c2.252-.964,3.497-3.397,2.962-5.788Z" style="fill: #2bc200; fill-rule: evenodd;"/>
                <path d="M56.125,30.342s.776-2.264,2.379-4.639" style="fill: none; fill-rule: evenodd; stroke: #24a600; stroke-linecap: round; stroke-miterlimit: 10; stroke-width: 1.2px;"/>
              </g>
              <path d="M61.567,42.434s1.878-1.508,3.326-.407" style="fill: none; fill-rule: evenodd; stroke: #2bc200; stroke-linecap: round; stroke-miterlimit: 10; stroke-width: 1.2px;"/>
              <g style="clip-path: url(#clippath-6);">
                <path d="M56.784,48.587l-1.313-.032c-.495-.012-.872-.449-.812-.941l.161-1.303c.3-2.432,2.291-4.304,4.737-4.454l1.839-.113c.553-.034.987.469.872,1.011l-.382,1.802c-.508,2.397-2.653,4.091-5.102,4.03Z" style="fill: #2bc200; fill-rule: evenodd;"/>
                <path d="M62.12,42.086s-2.07,1.201-4.088,3.235" style="fill: none; fill-rule: evenodd; stroke: #24a600; stroke-linecap: round; stroke-miterlimit: 10; stroke-width: 1.2px;"/>
              </g>
            </g>
            <path d="M60.97,34.742l4.049,5.061h-5.527c-.476,0-.911-.272-1.114-.699-.213-.427-.152-.934.142-1.305,1.134-1.414,2.45-3.057,2.45-3.057Z" style="fill: #ed8023; fill-rule: evenodd;"/>
            <path d="M64.493,33.056c-.557-.968-1.792-1.3-2.763-.741s-1.296,1.798-.739,2.765l2.298,3.981c.557.968,1.792,1.3,2.763.741.972-.559,1.296-1.798.739-2.765l-2.298-3.981Z" style="fill: #9acece; fill-rule: evenodd;"/>
          </g>
        </g>
      </g>
    </g>
  </g>
</svg>