<?xml version="1.0" encoding="UTF-8"?>
<svg xmlns="http://www.w3.org/2000/svg" width="150" height="150" xmlns:xlink="http://www.w3.org/1999/xlink" version="1.1" viewBox="0 0 150 150">
  <!-- Generator: Adobe Illustrator 29.4.0, SVG Export Plug-In . SVG Version: 2.1.0 Build 152)  -->
  <defs>
    <clipPath id="clippath">
      <path d="M120.095,59.683c-2.225-1.104-3.308-3.716-2.515-6.071,1.944-5.772.625-12.396-3.974-16.996h0c-4.599-4.6-11.224-5.918-16.996-3.975-2.354.793-4.967-.289-6.071-2.515-2.707-5.456-8.324-9.208-14.828-9.208s-12.121,3.752-14.828,9.208c-1.104,2.225-3.716,3.307-6.071,2.515-5.772-1.944-12.397-.625-16.996,3.974h0c-4.599,4.6-5.918,11.224-3.974,16.996.793,2.354-.289,4.967-2.515,6.071-5.456,2.707-9.208,8.324-9.208,14.828h0c0,6.505,3.752,12.121,9.208,14.828,2.225,1.104,3.307,3.716,2.515,6.071-1.944,5.772-.625,12.397,3.974,16.996,4.6,4.599,11.224,5.918,16.996,3.974,2.354-.793,4.967.289,6.071,2.515,2.707,5.456,8.324,9.208,14.828,9.208s12.121-3.752,14.828-9.208c1.104-2.225,3.716-3.308,6.071-2.515,5.772,1.944,12.397.625,16.996-3.974s5.918-11.224,3.974-16.996c-.793-2.354.289-4.967,2.515-6.071,5.456-2.707,9.208-8.324,9.208-14.828h0c0-6.505-3.752-12.121-9.208-14.828Z" style="fill: none;"/>
    </clipPath>
    <clipPath id="clippath-1">
      <path d="M63.07,59.302c-1.724-2.121-1.53-5.139.434-6.735l7.858-6.407c1.964-1.597,4.958-1.171,6.682.95,1.724,2.121,1.53,5.139-.433,6.736l-7.858,6.407c-1.964,1.596-4.958,1.17-6.682-.95Z" style="fill: none;"/>
    </clipPath>
  </defs>
  <g style="isolation: isolate;">
    <g id="Layer_1">
      <g>
        <g style="clip-path: url(#clippath);">
          <path d="M120.095,59.683c-2.225-1.104-3.308-3.716-2.515-6.071,1.944-5.772.625-12.396-3.974-16.996h0c-4.599-4.6-11.224-5.918-16.996-3.975-2.354.793-4.967-.289-6.071-2.515-2.707-5.456-8.324-9.208-14.828-9.208s-12.121,3.752-14.828,9.208c-1.104,2.225-3.716,3.307-6.071,2.515-5.772-1.944-12.397-.625-16.996,3.974h0c-4.599,4.6-5.918,11.224-3.974,16.996.793,2.354-.289,4.967-2.515,6.071-5.456,2.707-9.208,8.324-9.208,14.828h0c0,6.505,3.752,12.121,9.208,14.828,2.225,1.104,3.307,3.716,2.515,6.071-1.944,5.772-.625,12.397,3.974,16.996,4.6,4.599,11.224,5.918,16.996,3.974,2.354-.793,4.967.289,6.071,2.515,2.707,5.456,8.324,9.208,14.828,9.208s12.121-3.752,14.828-9.208c1.104-2.225,3.716-3.308,6.071-2.515,5.772,1.944,12.397.625,16.996-3.974s5.918-11.224,3.974-16.996c-.793-2.354.289-4.967,2.515-6.071,5.456-2.707,9.208-8.324,9.208-14.828h0c0-6.505-3.752-12.121-9.208-14.828Z" style="fill: #dd1d68;"/>
          <path d="M75.712,112.025c-.261,0-.385-.193-.426-.275-3.529-7.111-10.945-11.705-18.895-11.705-2.284,0-4.541.369-6.706,1.098-.057.019-.116.028-.177.028-.189,0-.27-.08-.323-.133-.184-.184-.136-.408-.106-.496,3.346-9.936-1.214-20.944-10.605-25.604-.084-.042-.276-.165-.276-.427s.193-.384.276-.426c9.393-4.661,13.952-15.668,10.605-25.605-.029-.087-.078-.311.106-.495.055-.054.135-.134.323-.134.061,0,.12.009.173.027,2.166.73,4.425,1.1,6.712,1.1,7.949-.001,15.364-4.595,18.892-11.704.042-.084.166-.277.427-.277s.385.194.426.276c3.527,7.11,10.943,11.705,18.894,11.705,2.287-.001,4.546-.371,6.714-1.101.049-.017.109-.026.17-.026.19,0,.271.081.324.134.184.183.135.408.105.496-3.347,9.935,1.212,20.943,10.604,25.604.085.042.277.165.277.426s-.193.385-.276.426c-9.394,4.662-13.953,15.669-10.606,25.606.029.087.078.311-.106.495-.053.052-.133.133-.323.133-.061,0-.121-.009-.174-.027-2.168-.73-4.424-1.099-6.709-1.099-7.951,0-15.368,4.595-18.895,11.707-.04.081-.164.273-.425.273Z" style="fill: #b50859;"/>
          <rect x="22.12" y="20.92" width="53.592" height="107.183" style="fill: #d2deef; mix-blend-mode: multiply;"/>
        </g>
        <g>
          <g>
            <path d="M123.168,40.219l-13.755-13.105c-2.182-2.078-5.592-2.138-7.845-.136l-22.571,19.281,24.506,23.66,19.957-21.609c2.115-2.329,1.986-5.92-.292-8.09Z" style="fill: #f7952b;"/>
            <g>
              <path d="M80.283,42.745s1.678-.162,3.79-.361c5.134-.488,10.101,2.014,12.754,6.424,1.528,2.542,4.904,6.988,6.396,9.473,2.446,4.069,2.53,9.113.222,13.232-.967,1.724-2.007,3.579-2.972,5.3-2.036,3.632-6.654,4.884-10.248,2.781l-22.969-13.443,13.027-23.406Z" style="fill: #f7952b;"/>
              <path d="M68.368,72.089c-3.367-2.053-4.436-6.428-2.387-9.764,2.049-3.337,6.446-4.379,9.813-2.326l13.994,8.534c3.367,2.053,4.436,6.429,2.387,9.765-2.05,3.336-6.446,4.378-9.813,2.326l-13.993-8.533Z" style="fill: #e57e24;"/>
              <path d="M92.317,51.759c-1.48-6.261-7.79-10.173-14.081-8.732l-1.587.363c-6.291,1.441-10.198,7.694-8.718,13.954,1.48,6.26,7.79,10.173,14.081,8.732l1.587-.363c6.292-1.441,10.198-7.694,8.718-13.954Z" style="fill: #f7952b;"/>
            </g>
          </g>
          <g>
            <path d="M46.727,31.158l29.413,24.848-10.048,11.5-10.048,11.5-27.946-26.762c-2.053-1.966-2.196-5.198-.326-7.338l11.521-13.186c1.909-2.185,5.218-2.436,7.434-.563Z" style="fill: #f2d235;"/>
            <path d="M60.484,91.933c-6.901-6.03-7.614-16.611-1.584-23.512l7.133-8.164c6.03-6.901,16.61-7.615,23.512-1.584l3.378,2.952c.533.466,1.016.967,1.476,1.484l8.716,7.616c2.435,2.127,2.686,5.86.559,8.294-1.625,1.86-4.184,2.435-6.389,1.659-.018.044-.032.09-.051.133l.537.469c2.435,2.127,2.686,5.86.559,8.294-2.109,2.414-5.793,2.675-8.229.605l-.011.012c2.378,2.136,2.613,5.822.504,8.235h0c-2.127,2.435-5.86,2.686-8.294.559l-.927-.81c.541,1.59.267,3.416-.912,4.765-1.757,2.011-4.84,2.219-6.85.462l-8.774-7.667.043-.05c-.345-.257-.689-.515-1.018-.802l-3.378-2.952Z" style="fill: #f2d235;"/>
          </g>
          <g>
            <path d="M60.334,69.655c1.949,1.916,2.091,4.937.316,6.742l-7.098,7.239c-1.775,1.805-4.798,1.714-6.746-.202-1.949-1.916-2.091-4.937-.317-6.742l7.099-7.24c1.774-1.804,4.797-1.713,6.747.203Z" style="fill: #f7952b;"/>
            <rect x="53.238" y="71.509" width="6.801" height="3.458" rx="1.729" ry="1.729" transform="translate(43.99 164.955) rotate(-134.431)" style="fill: #e57e24;"/>
          </g>
          <g>
            <path d="M68.189,76.351c1.78,2.074,1.666,5.096-.255,6.745l-7.685,6.613c-1.921,1.648-4.925,1.303-6.705-.772-1.78-2.074-1.666-5.096.254-6.745l7.685-6.613c1.921-1.648,4.925-1.302,6.705.773Z" style="fill: #f7952b;"/>
            <rect x="60.804" y="77.88" width="6.801" height="3.458" rx="1.729" ry="1.729" transform="translate(43.756 179.817) rotate(-129.581)" style="fill: #e57e24;"/>
          </g>
          <g>
            <path d="M74.454,83.877c1.706,2.136,1.485,5.152-.493,6.731l-7.914,6.338c-1.978,1.579-4.968,1.128-6.674-1.009-1.706-2.136-1.485-5.152.492-6.732l7.914-6.338c1.978-1.579,4.968-1.127,6.674,1.009Z" style="fill: #f7952b;"/>
            <rect x="66.956" y="85.264" width="6.801" height="3.458" rx="1.729" ry="1.729" transform="translate(44.278 195.794) rotate(-127.556)" style="fill: #e57e24;"/>
          </g>
          <g>
            <path d="M79.795,92.001c1.399,1.988,1.041,4.655-.801,5.95l-7.368,5.201c-1.842,1.296-4.472.734-5.871-1.255-1.399-1.988-1.041-4.655.8-5.95l7.369-5.201c1.841-1.295,4.472-.733,5.871,1.256Z" style="fill: #f7952b;"/>
            <rect x="72.964" y="93.009" width="6.05" height="3.076" rx="1.538" ry="1.538" transform="translate(40.266 210.466) rotate(-124.083)" style="fill: #e57e24;"/>
          </g>
          <g style="clip-path: url(#clippath-1);">
            <path d="M63.07,59.302c-1.724-2.121-1.53-5.139.434-6.735l7.858-6.407c1.964-1.597,4.958-1.171,6.682.95,1.724,2.121,1.53,5.139-.433,6.736l-7.858,6.407c-1.964,1.596-4.958,1.17-6.682-.95Z" style="fill: #f7952b;"/>
            <rect x="61.539" y="52.019" width="6.801" height="3.458" rx="1.729" ry="1.729" transform="translate(67.226 -30.518) rotate(51.94)" style="fill: #e57e24;"/>
          </g>
        </g>
      </g>
    </g>
  </g>
</svg>