<?xml version="1.0" encoding="UTF-8"?>
<svg xmlns="http://www.w3.org/2000/svg" width="150" height="150" xmlns:xlink="http://www.w3.org/1999/xlink" version="1.1" viewBox="0 0 150 150">
  <!-- Generator: Adobe Illustrator 29.4.0, SVG Export Plug-In . SVG Version: 2.1.0 Build 152)  -->
  <defs>
    <clipPath id="clippath">
      <path d="M120.095,59.683c-2.225-1.104-3.308-3.716-2.515-6.071,1.944-5.772.625-12.396-3.974-16.996h0c-4.599-4.6-11.224-5.918-16.996-3.975-2.354.793-4.967-.289-6.071-2.515-2.707-5.456-8.324-9.208-14.828-9.208s-12.121,3.752-14.828,9.208c-1.104,2.225-3.716,3.307-6.071,2.515-5.772-1.944-12.397-.625-16.996,3.974h0c-4.599,4.6-5.918,11.224-3.974,16.996.793,2.354-.289,4.967-2.515,6.071-5.456,2.707-9.208,8.324-9.208,14.828h0c0,6.505,3.752,12.121,9.208,14.828,2.225,1.104,3.307,3.716,2.515,6.071-1.944,5.772-.625,12.397,3.974,16.996,4.6,4.599,11.224,5.918,16.996,3.974,2.354-.793,4.967.289,6.071,2.515,2.707,5.456,8.324,9.208,14.828,9.208s12.121-3.752,14.828-9.208c1.104-2.225,3.716-3.308,6.071-2.515,5.772,1.944,12.397.625,16.996-3.974s5.918-11.224,3.974-16.996c-.793-2.354.289-4.967,2.515-6.071,5.456-2.707,9.208-8.324,9.208-14.828h0c0-6.505-3.752-12.121-9.208-14.828Z" style="fill: none;"/>
    </clipPath>
    <clipPath id="clippath-1">
      <path d="M136.19,11.542H38.473v62.543c-.083.042-.276.166-.276.426s.193.385.276.427c9.391,4.66,13.95,15.667,10.605,25.604-.029.088-.078.312.106.496.053.053.133.133.323.133.061,0,.12-.01.177-.028,2.166-.729,4.422-1.098,6.706-1.098,7.95,0,15.366,4.594,18.895,11.706.041.083.165.275.426.275s.385-.193.425-.273c3.527-7.112,10.944-11.708,18.895-11.708,2.285,0,4.542.37,6.709,1.099.053.018.114.027.174.027.19,0,.27-.081.323-.133.184-.184.135-.408.106-.495-2.148-6.379-1.025-13.19,2.53-18.489h19.968v-7.969h11.349V11.542Z" style="fill: none;"/>
    </clipPath>
    <clipPath id="clippath-2">
      <rect x="11.111" y="14.063" width="122.847" height="248.628" style="fill: none;"/>
    </clipPath>
    <clipPath id="clippath-3">
      <polygon points="27.133 149.148 39.314 117.945 51.378 121.927 41.63 153.932 27.133 149.148" style="clip-rule: evenodd; fill: none;"/>
    </clipPath>
    <clipPath id="clippath-4">
      <path d="M100.007,78.274c-.257-2.225-2.142-3.904-4.382-3.904h-14.198v46.241s3.677,50.968,4.758,65.949c.166,2.307,2.087,4.094,4.4,4.094h17.493c1.258,0,2.456-.537,3.293-1.477.838-.94,1.234-2.192,1.088-3.442-2.243-19.352-10.433-90.034-12.453-107.461Z" style="clip-rule: evenodd; fill: none;"/>
    </clipPath>
    <clipPath id="clippath-5">
      <polygon points="71.971 146.371 46.527 146.371 47.482 188.989 71.017 188.989 71.971 146.371" style="clip-rule: evenodd; fill: none;"/>
    </clipPath>
    <clipPath id="clippath-6">
      <polygon points="122.925 149.228 110.925 117.956 98.837 121.869 108.402 153.93 122.925 149.228" style="clip-rule: evenodd; fill: none;"/>
    </clipPath>
  </defs>
  <g style="isolation: isolate;">
    <g id="Layer_1">
      <g>
        <g style="clip-path: url(#clippath);">
          <path d="M120.095,59.683c-2.225-1.104-3.308-3.716-2.515-6.071,1.944-5.772.625-12.396-3.974-16.996h0c-4.599-4.6-11.224-5.918-16.996-3.975-2.354.793-4.967-.289-6.071-2.515-2.707-5.456-8.324-9.208-14.828-9.208s-12.121,3.752-14.828,9.208c-1.104,2.225-3.716,3.307-6.071,2.515-5.772-1.944-12.397-.625-16.996,3.974h0c-4.599,4.6-5.918,11.224-3.974,16.996.793,2.354-.289,4.967-2.515,6.071-5.456,2.707-9.208,8.324-9.208,14.828h0c0,6.505,3.752,12.121,9.208,14.828,2.225,1.104,3.307,3.716,2.515,6.071-1.944,5.772-.625,12.397,3.974,16.996,4.6,4.599,11.224,5.918,16.996,3.974,2.354-.793,4.967.289,6.071,2.515,2.707,5.456,8.324,9.208,14.828,9.208s12.121-3.752,14.828-9.208c1.104-2.225,3.716-3.308,6.071-2.515,5.772,1.944,12.397.625,16.996-3.974s5.918-11.224,3.974-16.996c-.793-2.354.289-4.967,2.515-6.071,5.456-2.707,9.208-8.324,9.208-14.828h0c0-6.505-3.752-12.121-9.208-14.828Z" style="fill: #dd1d68;"/>
          <path d="M75.712,112.025c-.261,0-.385-.193-.426-.275-3.529-7.111-10.945-11.705-18.895-11.705-2.284,0-4.541.369-6.706,1.098-.057.019-.116.028-.177.028-.189,0-.27-.08-.323-.133-.184-.184-.136-.408-.106-.496,3.346-9.936-1.214-20.944-10.605-25.604-.084-.042-.276-.165-.276-.427s.193-.384.276-.426c9.393-4.661,13.952-15.668,10.605-25.605-.029-.087-.078-.311.106-.495.055-.054.135-.134.323-.134.061,0,.12.009.173.027,2.166.73,4.425,1.1,6.712,1.1,7.949-.001,15.364-4.595,18.892-11.704.042-.084.166-.277.427-.277s.385.194.426.276c3.527,7.11,10.943,11.705,18.894,11.705,2.287-.001,4.546-.371,6.714-1.101.049-.017.109-.026.17-.026.19,0,.271.081.324.134.184.183.135.408.105.496-3.347,9.935,1.212,20.943,10.604,25.604.085.042.277.165.277.426s-.193.385-.276.426c-9.394,4.662-13.953,15.669-10.606,25.606.029.087.078.311-.106.495-.053.052-.133.133-.323.133-.061,0-.121-.009-.174-.027-2.168-.73-4.424-1.099-6.709-1.099-7.951,0-15.368,4.595-18.895,11.707-.04.081-.164.273-.425.273Z" style="fill: #b50859;"/>
          <rect x="22.12" y="20.92" width="53.592" height="107.183" style="fill: #d2deef; mix-blend-mode: multiply;"/>
        </g>
        <g style="clip-path: url(#clippath-1);">
          <g style="clip-path: url(#clippath-2);">
            <rect x="65.768" y="70.009" width="15.66" height="13.358" style="fill: #503584;"/>
            <path d="M48.736,108.048c4.671,1.542,7.207,6.577,5.665,11.248-1.541,4.67-6.577,7.207-11.248,5.666-4.671-1.542-7.207-6.578-5.665-11.248,1.542-4.671,6.577-7.207,11.248-5.666Z" style="fill: #e3f7ee; fill-rule: evenodd;"/>
            <polygon points="27.133 149.148 39.314 117.945 51.378 121.927 41.63 153.932 27.133 149.148" style="fill: #7151ab; fill-rule: evenodd;"/>
            <g style="clip-path: url(#clippath-3);">
              <path d="M56.99,130.915c.476-1.776-.58-3.604-2.356-4.081l-22.529-6.037c-1.776-.476-3.605.58-4.081,2.356l-1.725,6.437c-.476,1.776.58,3.604,2.356,4.081l22.529,6.037c1.776.476,3.605-.58,4.081-2.356l1.725-6.437Z" style="fill: #f5eee3; fill-rule: evenodd;"/>
            </g>
            <polygon points="31.903 129.622 37.488 113.714 54.401 119.297 49.42 135.403 31.903 129.622" style="fill: #e3f7ee; fill-rule: evenodd;"/>
            <path d="M36.774,144.291c4.004,1.322,6.177,5.638,4.856,9.641-1.321,4.003-5.637,6.178-9.641,4.857-4.004-1.322-6.177-5.638-4.856-9.641,1.321-4.004,5.637-6.178,9.641-4.857Z" style="fill: #7151ab; fill-rule: evenodd;"/>
            <path d="M43.892,156.241c-.243-2.847-1.669-5.462-3.931-7.208-.213-.164-.43-.332-.65-.502-4.022-3.104-9.77-2.523-13.09,1.323,0,0,0,0,0,0-1.995,2.31-2.974,5.328-2.716,8.37.257,3.042,1.73,5.851,4.084,7.795.378.312.74.611,1.08.891,1.544,1.274,3.732,1.412,5.424.341,1.101-.697,2.102-1.331,2.102-1.331,0,0,.153.105.383.263,1.226.842,2.893.607,3.838-.542.433-.526.909-1.104,1.375-1.669,1.604-1.948,2.382-4.446,2.167-6.96-.022-.255-.044-.514-.066-.771Z" style="fill: #7151ab; fill-rule: evenodd;"/>
            <polygon points="49.057 80.692 37.488 113.714 54.401 119.297 65.064 85.974 49.057 80.692" style="fill: #e3f7ee; fill-rule: evenodd;"/>
            <path d="M43.25,129.439c.337-6.036,3.041-11.695,7.524-15.752l36.318,2,3.332,74.968h-45.93c-1.213,0-2.372-.499-3.205-1.38-.833-.881-1.267-2.066-1.199-3.277.641-11.465,2.305-41.233,3.161-56.558Z" style="fill: #fff; fill-rule: evenodd;"/>
            <path d="M59.752,75.178c4.421,1.459,6.821,6.225,5.362,10.645-1.459,4.421-6.225,6.821-10.645,5.362-4.421-1.459-6.821-6.224-5.362-10.645,1.459-4.421,6.225-6.821,10.645-5.362Z" style="fill: #e3f7ee; fill-rule: evenodd;"/>
            <circle cx="74.516" cy="115.838" r="20.037" transform="translate(-.183 .118) rotate(-.09)" style="fill: #f5eee3;"/>
            <path d="M89.782,133.649c-7.021,0-12.722,5.7-12.722,12.722s5.7,12.721,12.722,12.721,12.722-5.7,12.722-12.721-5.7-12.722-12.722-12.722Z" style="fill: #258e8e; fill-rule: evenodd;"/>
            <polygon points="102.504 146.371 77.06 146.371 78.014 188.989 101.549 188.989 102.504 146.371" style="fill: #258e8e; fill-rule: evenodd;"/>
            <path d="M127.075,25.231c0-6.168-5-11.169-11.169-11.169h-.987c-6.168,0-11.169,5-11.169,11.169v55.47h2c2.651,0,5.193-1.053,7.067-2.928,1.875-1.874,2.928-4.416,2.928-7.067v-.002,9.996h0c2.121,0,4.154-.842,5.654-2.342s2.341-3.533,2.341-5.654v-5.332h.002c2.651,0,5.193-1.053,7.067-2.928,1.875-1.874,2.928-4.416,2.928-7.067v-.002h-6.664V25.231Z" style="fill: #071c1c; fill-rule: evenodd;"/>
            <path d="M113.731,35.947c0-4.036-1.604-7.908-4.458-10.762-2.855-2.855-6.726-4.458-10.763-4.458h-39.18c-4.037,0-7.908,1.603-10.762,4.458-2.854,2.855-4.458,6.726-4.458,10.762v18.099h24.829l8.262,16.993h21.309c4.037,0,7.908-1.604,10.763-4.458,2.854-2.855,4.458-6.726,4.458-10.763v-19.872Z" style="fill: #071c1c; fill-rule: evenodd;"/>
            <path d="M94.553,115.838h-40.074c-5.153,6.61-7.951,14.752-7.951,23.133v7.4h55.976v-7.4c0-8.382-2.798-16.523-7.951-23.133Z" style="fill: #258e8e; fill-rule: evenodd;"/>
            <rect x="54.153" y="114.735" width="28.569" height="8.163" style="fill: #218080;"/>
            <path d="M59.249,133.649c-7.021,0-12.722,5.7-12.722,12.722s5.7,12.721,12.722,12.721,12.722-5.7,12.722-12.721-5.7-12.722-12.722-12.722Z" style="fill: #258e8e; fill-rule: evenodd;"/>
            <circle cx="73.66" cy="82.761" r="7.853" transform="translate(-14.422 149.968) rotate(-85.674)" style="fill: #e47bb4;"/>
            <path d="M49.347,83.368c.153-4.946,4.207-8.876,9.156-8.876h7.022v33.252c0,2.146-.853,4.206-2.371,5.724-1.518,1.518-3.577,2.371-5.724,2.371h-4.324l-4.813,1.514s.664-21.431,1.053-33.984Z" style="fill: #fff; fill-rule: evenodd;"/>
            <path d="M90.736,74.387s-18.485-.01-27.128-.014c-2.7-.002-5.2,1.427-6.57,3.754h0c-3.06,5.197-4.467,11.203-4.034,17.219.628,8.728,1.475,20.492,1.475,20.492h40.074l-3.816-41.451Z" style="fill: #f5eee3; fill-rule: evenodd;"/>
            <path d="M61.026,92.379h-1.68s0-1.68,0-1.68c0-.315-.258-.573-.573-.573h-1.333c-.315,0-.573.258-.573.573v1.68s-1.68,0-1.68,0c-.315,0-.573.258-.573.573v1.333c0,.315.258.573.573.573h1.68s0,1.68,0,1.68c0,.315.258.573.573.573h1.333c.315,0,.573-.258.573-.573v-1.68s1.68,0,1.68,0c.315,0,.573-.258.573-.573v-1.333c0-.315-.258-.573-.573-.573Z" style="fill: #d30f40;"/>
            <path d="M71.447,81.025l9.981-6.654,8.097-3.169-10.883-1.361-4.877,3.197-8.066.928.069.71,3.269,5.775c.484.855,1.593,1.119,2.41.574Z" style="fill: #503584; fill-rule: evenodd;"/>
            <path d="M100.007,78.274c-.257-2.225-2.142-3.904-4.382-3.904h-14.198v46.241s3.677,50.968,4.758,65.949c.166,2.307,2.087,4.094,4.4,4.094h17.493c1.258,0,2.456-.537,3.293-1.477.838-.94,1.234-2.192,1.088-3.442-2.243-19.352-10.433-90.034-12.453-107.461Z" style="fill: #fff; fill-rule: evenodd;"/>
            <g style="clip-path: url(#clippath-4);">
              <path d="M88.184,93.914c.364-.12.762-.09,1.105.084.342.174.601.477.719.842,2.097,6.496,10.878,33.695,10.878,33.695l5.176.732,17.01,21.312-14.969,7.945s-17.752-53.497-20.835-62.79c-.12-.363-.092-.758.08-1.1.172-.341.472-.601.835-.72,0,0,.002,0,.002,0Z" style="fill: #c4f1dd; fill-rule: evenodd;"/>
            </g>
            <circle cx="50.576" cy="52.228" r="7.96" transform="translate(-8.772 94.223) rotate(-81.204)" style="fill: #6040a1;"/>
            <path d="M57.89,29.965h29.102c5.134,0,9.302,4.168,9.302,9.302v22.742c0,5.134-4.168,9.302-9.302,9.302h-29.103c-5.134,0-9.302-4.168-9.302-9.302v-22.741c0-5.134,4.168-9.303,9.303-9.303Z" style="fill: #7151ab;"/>
            <path d="M66.625,62.513c.238,1.111,1.22,1.905,2.356,1.905h.001c1.136,0,2.118-.794,2.356-1.905" style="fill: none; fill-rule: evenodd; stroke: #503584; stroke-linecap: round; stroke-linejoin: round; stroke-width: 1.592px;"/>
            <path d="M75.939,61.095c0,1.316,1.069,2.385,2.385,2.385h4.771c1.317,0,2.385-1.069,2.385-2.385s-1.069-2.386-2.385-2.386h-4.771c-1.317,0-2.385,1.069-2.385,2.386Z" style="fill: #836dbf; fill-rule: evenodd;"/>
            <rect x="74.667" y="36.6" width="12.086" height="4.453" rx="1.061" ry="1.061" style="fill: #503584;"/>
            <rect x="52.192" y="33.342" width="12.086" height="4.453" rx="1.061" ry="1.061" style="fill: #503584;"/>
            <path d="M67.02,57.578h3.341c.379,0,.743.151,1.011.419s.419.631.419,1.011v.003c0,.379-.151.743-.419,1.011-.268.269-.632.419-1.011.419h-3.341v-2.863Z" style="fill: #503584; fill-rule: evenodd;"/>
            <circle cx="67.01" cy="59.009" r="1.431" transform="translate(7.793 125.836) rotate(-89.822)" style="fill: #836dbf;"/>
            <path d="M58.527,29.965h10.153c3.203,0,6.223,1.495,8.165,4.044,2.152,2.824,5.014,6.581,7.166,9.405,1.941,2.548,4.961,4.044,8.165,4.044h9.288v-19.719l-44.527-3.18,1.59,5.407Z" style="fill: #071c1c; fill-rule: evenodd;"/>
            <circle cx="99.904" cy="52.228" r="7.96" style="fill: #7151ab;"/>
            <circle cx="99.904" cy="52.228" r="2.545" style="fill: #503584;"/>
            <polygon points="71.971 146.371 46.527 146.371 47.482 188.989 71.017 188.989 71.971 146.371" style="fill: #258e8e; fill-rule: evenodd;"/>
            <g style="clip-path: url(#clippath-5);">
              <path d="M73.199,146.375h-11.005c-.329,0-.644.13-.876.363-.232.233-.363.548-.363.877v1.252c0,.329.131.643.363.876.232.233.548.364.876.363h11.005v-3.731Z" style="fill: #218080; fill-rule: evenodd;"/>
            </g>
            <path d="M101.56,108.006c-4.68,1.515-7.245,6.536-5.73,11.215,1.514,4.679,6.536,7.245,11.215,5.73,4.68-1.514,7.245-6.536,5.73-11.214-1.514-4.68-6.535-7.245-11.214-5.73Z" style="fill: #fff; fill-rule: evenodd;"/>
            <polygon points="122.925 149.228 110.925 117.956 98.837 121.869 108.402 153.93 122.925 149.228" style="fill: #7151ab; fill-rule: evenodd;"/>
            <g style="clip-path: url(#clippath-6);">
              <path d="M92.939,130.915c-.476-1.776.58-3.604,2.356-4.081l22.529-6.037c1.776-.476,3.605.58,4.081,2.356l1.725,6.437c.476,1.776-.58,3.604-2.356,4.081l-22.529,6.037c-1.776.476-3.604-.58-4.081-2.356l-1.724-6.437Z" style="fill: #f5eee3; fill-rule: evenodd;"/>
            </g>
            <path d="M116.303,130.312c.518-.168.947-.537,1.189-1.023.243-.487.28-1.051.103-1.565-1.467-4.255-4.821-13.987-4.821-13.987l-16.945,5.485s3.042,10.04,4.327,14.281c.148.488.486.897.938,1.133.452.237.981.281,1.467.124,3.331-1.078,10.324-3.342,13.742-4.448Z" style="fill: #fff; fill-rule: evenodd;"/>
            <path d="M113.313,144.317c-4.011,1.298-6.21,5.602-4.911,9.613,1.297,4.011,5.602,6.21,9.612,4.911,4.011-1.298,6.21-5.602,4.911-9.613-1.298-4.011-5.602-6.21-9.612-4.911Z" style="fill: #7151ab; fill-rule: evenodd;"/>
            <path d="M106.126,156.225c.259-2.846,1.7-5.452,3.972-7.185.214-.163.432-.329.653-.497,4.04-3.081,9.784-2.467,13.082,1.398,1.982,2.323,2.943,5.346,2.669,8.385-.275,3.04-1.763,5.842-4.129,7.771-.38.309-.744.607-1.086.885-1.551,1.265-3.74,1.39-5.425.31-1.097-.704-2.094-1.343-2.094-1.343,0,0-.153.104-.385.26-1.231.835-2.896.59-3.835-.564-.43-.528-.902-1.109-1.364-1.678-1.592-1.957-2.356-4.459-2.128-6.972.023-.255.047-.513.071-.771Z" style="fill: #7151ab; fill-rule: evenodd;"/>
            <polygon points="103.035 80.358 114.414 113.448 97.469 118.932 86.998 85.549 103.035 80.358" style="fill: #fff; fill-rule: evenodd;"/>
            <path d="M92.373,74.784c-4.429,1.434-6.857,6.186-5.424,10.615,1.433,4.428,6.185,6.856,10.614,5.423,4.429-1.434,6.857-6.186,5.423-10.615-1.434-4.429-6.186-6.857-10.614-5.423Z" style="fill: #fff; fill-rule: evenodd;"/>
            <path d="M89.914,70.982c2.586.271,2.441,4.002-.156,4.075h.007c-3.455-.031-6.847,1.705-8.864,4.507-1.303,1.778-2.044,3.959-2.093,6.163-.022.207.028,6.736-.028,6.929-.063.407-.26.807-.546,1.103-1.234,1.314-3.534.396-3.511-1.415.07-1.731-.152-7.002.173-8.621.223-1.463.668-2.898,1.31-4.232,2.434-5.166,7.989-8.649,13.708-8.51Z" style="fill: #071c1c; fill-rule: evenodd;"/>
            <g>
              <path d="M84.121,57.338c-.412.715-1.327.96-2.043.548-1.921-1.109-5.503-3.178-7.424-4.287-.715-.414-.96-1.327-.548-2.043v-.002c.414-.715,1.327-.96,2.043-.547,1.921,1.109,5.505,3.178,7.425,4.287.715.412.96,1.327.547,2.043Z" style="fill: #503584; fill-rule: evenodd;"/>
              <path d="M84.121,47.119c-.412-.715-1.327-.96-2.043-.548-1.921,1.109-5.503,3.178-7.424,4.287-.715.414-.96,1.327-.548,2.043v.002c.414.715,1.327.96,2.043.547,1.921-1.109,5.505-3.178,7.425-4.287.715-.412.96-1.327.547-2.043Z" style="fill: #503584; fill-rule: evenodd;"/>
              <path d="M87.366,52.253c0,.826-.668,1.496-1.494,1.496h-10.471c-.826,0-1.494-.67-1.494-1.496s.668-1.496,1.494-1.496h10.471c.826,0,1.494.67,1.494,1.496Z" style="fill-rule: evenodd;"/>
            </g>
            <path d="M55.08,42.687h6.043c1.668,0,3.022,1.354,3.022,3.022v13.04c0,1.668-1.354,3.022-3.022,3.022h-6.043c-1.668,0-3.021-1.354-3.021-3.021v-13.04c0-1.668,1.354-3.022,3.022-3.022Z" style="fill: #fff;"/>
            <path d="M53.33,64.155c0,1.316,1.069,2.385,2.385,2.385h4.771c1.317,0,2.385-1.069,2.385-2.385s-1.069-2.386-2.385-2.386h-4.771c-1.317,0-2.385,1.069-2.385,2.386Z" style="fill: #836dbf; fill-rule: evenodd;"/>
            <path d="M56.602,48.46c0-.309.123-.607.342-.826.219-.22.516-.342.826-.342h4.024c.31,0,.607.123.826.342.219.219.342.516.342.826v10.385c0,.31-.123.607-.342.826-.219.219-.516.342-.826.342h-4.024c-.31,0-.607-.123-.826-.342-.219-.219-.342-.516-.342-.826v-10.385Z" style="fill: #071c1c; fill-rule: evenodd;"/>
            <path d="M52.058,58.748c0,1.668,1.354,3.022,3.021,3.022h6.043c1.668,0,3.022-1.354,3.022-3.022v-1.485h-12.086v1.485Z" style="fill: #503584;"/>
          </g>
        </g>
        <path d="M83.441,111.136v-13.157s-.002-.08-.002-.08l-.002-.081-.004-.089-.005-.08-.005-.081-.007-.084-.008-.084-.009-.08-.009-.08-.011-.083-.012-.084-.013-.08-.013-.079-.015-.082-.015-.08-.016-.078-.018-.081-.019-.079-.019-.079-.021-.081-.021-.078-.022-.077-.024-.081-.024-.077-.025-.078-.026-.075-.026-.075-.029-.081-.029-.076-.03-.076-.03-.074-.031-.073-.033-.075-.034-.076-.034-.074-.034-.072-.038-.077-.037-.072-.036-.069-.039-.072-.042-.074-.041-.071-.039-.067-.042-.069-.044-.072-.044-.068-.045-.068-.047-.069-.044-.064-.047-.066-.052-.072-.047-.062-.049-.065-.054-.068-.052-.063-.051-.062-.051-.059-.055-.064-.056-.062-.055-.06-.058-.062-.058-.061-.057-.057-.058-.057-.061-.059-.062-.058-.06-.055-.063-.056-.064-.055-.057-.048-.065-.054-.068-.055-.061-.048-.065-.05-.067-.05-.068-.05-.066-.047-.064-.044-.07-.047-.068-.045-.068-.044-.071-.044-.066-.041-.07-.041-.074-.043-.071-.039-.072-.039-.069-.036-.073-.037-.077-.038-.074-.035-.072-.034-.074-.033-.077-.033-.074-.031-.074-.03-.076-.03-.076-.029-.081-.03-.075-.026-.075-.026-.077-.025-.078-.024-.081-.024-.077-.022-.077-.021-.082-.021-.079-.019-.079-.019-.082-.017-.078-.017-.08-.015-.082-.015-.079-.014-.08-.012-.084-.012-.083-.011-.079-.009-.08-.008-.084-.008-.084-.007-.08-.005-.08-.005-.089-.004-.08-.002h-.08s-.08-.002-.08-.002h-.09s-.08.002-.08.002l-.08.002-.089.004-.08.005-.08.005-.084.007-.084.008-.08.008-.079.009-.083.011-.084.012-.08.012-.079.014-.082.015-.08.015-.078.017-.082.017-.079.019-.079.019-.082.021-.077.021-.077.022-.081.024-.078.024-.077.025-.076.026-.075.026-.081.03-.076.029-.076.03-.074.03-.074.031-.076.033-.074.033-.072.034-.073.035-.077.038-.073.037-.069.036-.072.039-.071.039-.074.043-.07.041-.066.041-.071.044-.068.044-.068.045-.07.047-.064.044-.066.047-.068.05-.065.048-.067.052-.063.05-.066.053-.065.054-.057.048-.064.055-.063.056-.06.055-.062.058-.061.059-.058.057-.057.057-.058.061-.058.062-.055.06-.056.062-.055.064-.05.059-.052.062-.052.063-.054.068-.049.065-.047.062-.052.072-.047.066-.044.064-.047.069-.045.068-.044.068-.044.072-.04.066-.042.07-.042.074-.04.071-.039.072-.036.069-.037.072-.038.077-.034.072-.034.074-.034.076-.033.075-.031.073-.03.074-.03.076-.029.076-.03.081-.026.075-.026.075-.025.078-.024.077-.024.081-.022.077-.021.078-.021.081-.019.079-.019.079-.018.081-.016.078-.015.08-.015.082-.013.079-.013.08-.012.084-.011.083-.009.08-.009.08-.008.084-.007.084-.005.081-.005.08-.004.089-.002.081-.002.08v.08s0,10.491,0,10.491c-1.322.242-2.327,1.396-2.327,2.788,0,1.568,1.272,2.84,2.84,2.84,1.503,0,2.722-1.173,2.821-2.651l.006-.032.016-.132.005-.132v-13.207s.001-.044.001-.044v-.044s.003-.035.003-.035l.003-.043.003-.044.003-.038.004-.038.005-.043.005-.043.005-.038.005-.038.007-.041.007-.041.007-.038.008-.041.008-.041.008-.038.009-.04.01-.04.01-.037.011-.041.011-.04.011-.037.012-.039.012-.038.014-.04.014-.04.013-.034.014-.038.015-.038.016-.039.016-.039.016-.037.016-.035.017-.036.018-.038.016-.033.019-.035.021-.04.019-.035.02-.035.018-.032.021-.035.023-.038.02-.032.022-.035.022-.034.022-.032.026-.037.024-.034.021-.028.027-.036.026-.034.022-.027.026-.032.027-.033.029-.035.025-.029.026-.029.029-.031.027-.029.028-.029.03-.03.03-.03.029-.028.029-.027.031-.029.029-.026.03-.026.037-.032.03-.025.03-.024.033-.026.031-.023.033-.025.031-.023.033-.024.037-.026.032-.021.034-.023.034-.022.033-.02.038-.023.035-.021.032-.018.035-.02.036-.02.039-.02.036-.019.033-.016.036-.018.038-.017.037-.017.035-.016.039-.016.039-.017.038-.014.038-.014.034-.013.04-.014.04-.014.039-.013.039-.012.036-.011.04-.012.041-.011.036-.01.04-.01.04-.009.038-.008.041-.009.041-.008.038-.007.042-.008.041-.006.038-.006.039-.005.043-.005.043-.005.039-.004.038-.003.043-.003.043-.002h.035s.044-.003.044-.003h.044s.04,0,.04,0h.084s.044.002.044.002h.035s.043.004.043.004l.043.003.038.003.039.004.043.005.043.005.039.005.038.006.041.006.042.008.038.007.041.008.041.009.038.008.04.009.04.01.036.01.041.011.041.012.036.011.039.012.039.013.04.014.04.014.034.013.038.014.038.014.039.017.039.016.035.016.037.017.038.017.036.018.033.016.036.019.039.02.036.02.035.02.032.018.035.021.038.023.033.02.034.022.034.023.032.021.037.026.034.024.031.023.031.023.033.025.035.028.028.023.03.025.037.032.03.026.029.026.031.029.029.027.029.028.03.03.03.03.028.029.027.029.029.031.026.029.026.029.029.035.027.033.026.032.022.027.026.034.027.036.021.028.024.034.026.037.022.032.022.034.022.035.02.032.021.035.023.038.02.035.018.032.019.035.021.04.019.035.016.033.018.038.017.036.016.035.016.037.016.039.016.039.015.038.014.038.013.034.014.04.014.04.012.038.012.039.011.037.011.04.011.041.009.037.01.04.009.04.008.038.008.041.008.041.007.038.007.041.007.041.005.038.005.038.005.043.005.043.004.038.003.038.003.044.003.043v.035s.003.044.003.044v.044s.001.044.001.044v10.485c-1.309.253-2.299,1.403-2.299,2.785,0,1.568,1.272,2.84,2.84,2.84s2.84-1.272,2.84-2.84c0-.069-.015-.134-.02-.202Z" style="fill: #071c1c; fill-rule: evenodd;"/>
        <path d="M53.773,105.361c3.678,0,6.664,2.986,6.664,6.664s-2.986,6.664-6.664,6.664-6.664-2.986-6.664-6.664,2.986-6.664,6.664-6.664Z" style="fill: #071c1c; fill-rule: evenodd;"/>
        <circle cx="53.773" cy="112.025" r="3.332" style="fill: #155353;"/>
        <path d="M65.778,74.676c-4.211-.053-8.238,2.742-9.659,6.707-.322.864-.527,1.778-.607,2.697-.021.247-.035.516-.038.763-.005.109.002,22.714,0,22.838h-3.401c.001-.165-.002-22.728.001-22.88.005-.331.022-.687.05-1.016.106-1.224.38-2.44.808-3.591,1.889-5.265,7.232-8.98,12.825-8.92l.021,3.401Z" style="fill: #071c1c; fill-rule: evenodd;"/>
      </g>
    </g>
  </g>
</svg>