<?xml version="1.0" encoding="UTF-8"?>
<svg xmlns="http://www.w3.org/2000/svg" width="150" height="150" xmlns:xlink="http://www.w3.org/1999/xlink" version="1.1" viewBox="0 0 150 150">
  <!-- Generator: Adobe Illustrator 29.4.0, SVG Export Plug-In . SVG Version: 2.1.0 Build 152)  -->
  <defs>
    <clipPath id="clippath">
      <path d="M120.095,59.683c-2.225-1.104-3.308-3.716-2.515-6.071,1.944-5.772.625-12.396-3.974-16.996h0c-4.599-4.6-11.224-5.918-16.996-3.975-2.354.793-4.967-.289-6.071-2.515-2.707-5.456-8.324-9.208-14.828-9.208s-12.121,3.752-14.828,9.208c-1.104,2.225-3.716,3.307-6.071,2.515-5.772-1.944-12.397-.625-16.996,3.974h0c-4.599,4.6-5.918,11.224-3.974,16.996.793,2.354-.289,4.967-2.515,6.071-5.456,2.707-9.208,8.324-9.208,14.828h0c0,6.505,3.752,12.121,9.208,14.828,2.225,1.104,3.307,3.716,2.515,6.071-1.944,5.772-.625,12.397,3.974,16.996,4.6,4.599,11.224,5.918,16.996,3.974,2.354-.793,4.967.289,6.071,2.515,2.707,5.456,8.324,9.208,14.828,9.208s12.121-3.752,14.828-9.208c1.104-2.225,3.716-3.308,6.071-2.515,5.772,1.944,12.397.625,16.996-3.974s5.918-11.224,3.974-16.996c-.793-2.354.289-4.967,2.515-6.071,5.456-2.707,9.208-8.324,9.208-14.828h0c0-6.505-3.752-12.121-9.208-14.828Z" style="fill: none;"/>
    </clipPath>
    <clipPath id="clippath-1">
      <path d="M129.303,36.239l-2.513-8.651-60.419-18.093-9.542,7.349-19.9,52.186,1.267,5.481c0,.261.193.385.276.427,9.391,4.66,13.95,15.667,10.605,25.604-.029.088-.078.312.106.496.053.053.134.133.323.133.061,0,.12-.01.177-.028,2.166-.729,4.422-1.098,6.706-1.098,7.95,0,15.366,4.594,18.895,11.706.041.083.165.275.426.275s.385-.193.425-.273c3.527-7.112,10.944-11.708,18.895-11.708,2.285,0,4.542.37,6.709,1.099.053.018.114.027.174.027.189,0,.27-.081.323-.133.103-.104.13-.218.131-.315l26.933-64.483Z" style="fill: none;"/>
    </clipPath>
    <clipPath id="clippath-2">
      <path d="M46.385,85.154h51.334v15.606h-51.334c-4.2,0-7.61-3.41-7.61-7.61v-.386c0-4.2,3.41-7.61,7.61-7.61Z" transform="translate(37.497 -18.188) rotate(20.82)" style="fill: none;"/>
    </clipPath>
    <clipPath id="clippath-3">
      <path d="M61.692,23.272h52.748c1.75,0,3.171,1.421,3.171,3.171v55.85c0,1.75-1.421,3.171-3.171,3.171h-49.577c-1.75,0-3.171-1.421-3.171-3.171V23.272h0Z" transform="translate(25.179 -28.315) rotate(20.82)" style="fill: none;"/>
    </clipPath>
    <clipPath id="clippath-4">
      <path d="M130.888,30.958l-14.161-5.328c-2.925-1.1-6.167-.993-9.013.295-2.845,1.289-5.062,3.657-6.163,6.582l-5.328,14.162,14.162,5.328c2.924,1.1,6.166.993,9.012-.296,2.845-1.289,5.062-3.657,6.163-6.582l5.328-14.162Z" style="clip-rule: evenodd; fill: none;"/>
    </clipPath>
    <clipPath id="clippath-5">
      <path d="M59.869,91.405c3.54,1.332,7.464,1.202,10.909-.358,3.444-1.56,6.127-4.427,7.459-7.966l6.449-17.142-17.141-6.449c-3.539-1.332-7.464-1.202-10.908.358-3.444,1.56-6.127,4.427-7.459,7.966l-6.449,17.142,17.141,6.449Z" style="clip-rule: evenodd; fill: none;"/>
    </clipPath>
  </defs>
  <g style="isolation: isolate;">
    <g id="Layer_1">
      <g>
        <g style="clip-path: url(#clippath);">
          <path d="M120.095,59.683c-2.225-1.104-3.308-3.716-2.515-6.071,1.944-5.772.625-12.396-3.974-16.996h0c-4.599-4.6-11.224-5.918-16.996-3.975-2.354.793-4.967-.289-6.071-2.515-2.707-5.456-8.324-9.208-14.828-9.208s-12.121,3.752-14.828,9.208c-1.104,2.225-3.716,3.307-6.071,2.515-5.772-1.944-12.397-.625-16.996,3.974h0c-4.599,4.6-5.918,11.224-3.974,16.996.793,2.354-.289,4.967-2.515,6.071-5.456,2.707-9.208,8.324-9.208,14.828h0c0,6.505,3.752,12.121,9.208,14.828,2.225,1.104,3.307,3.716,2.515,6.071-1.944,5.772-.625,12.397,3.974,16.996,4.6,4.599,11.224,5.918,16.996,3.974,2.354-.793,4.967.289,6.071,2.515,2.707,5.456,8.324,9.208,14.828,9.208s12.121-3.752,14.828-9.208c1.104-2.225,3.716-3.308,6.071-2.515,5.772,1.944,12.397.625,16.996-3.974s5.918-11.224,3.974-16.996c-.793-2.354.289-4.967,2.515-6.071,5.456-2.707,9.208-8.324,9.208-14.828h0c0-6.505-3.752-12.121-9.208-14.828Z" style="fill: #dd1d68;"/>
          <path d="M75.712,112.025c-.261,0-.385-.193-.426-.275-3.529-7.111-10.945-11.705-18.895-11.705-2.284,0-4.541.369-6.706,1.098-.057.019-.116.028-.177.028-.189,0-.27-.08-.323-.133-.184-.184-.136-.408-.106-.496,3.346-9.936-1.214-20.944-10.605-25.604-.084-.042-.276-.165-.276-.427s.193-.384.276-.426c9.393-4.661,13.952-15.668,10.605-25.605-.029-.087-.078-.311.106-.495.055-.054.135-.134.323-.134.061,0,.12.009.173.027,2.166.73,4.425,1.1,6.712,1.1,7.949-.001,15.364-4.595,18.892-11.704.042-.084.166-.277.427-.277s.385.194.426.276c3.527,7.11,10.943,11.705,18.894,11.705,2.287-.001,4.546-.371,6.714-1.101.049-.017.109-.026.17-.026.19,0,.271.081.324.134.184.183.135.408.105.496-3.347,9.935,1.212,20.943,10.604,25.604.085.042.277.165.277.426s-.193.385-.276.426c-9.394,4.662-13.953,15.669-10.606,25.606.029.087.078.311-.106.495-.053.052-.133.133-.323.133-.061,0-.121-.009-.174-.027-2.168-.73-4.424-1.099-6.709-1.099-7.951,0-15.368,4.595-18.895,11.707-.04.081-.164.273-.425.273Z" style="fill: #b50859;"/>
          <rect x="22.12" y="20.92" width="53.592" height="107.183" style="fill: #d2deef; mix-blend-mode: multiply;"/>
        </g>
        <g style="clip-path: url(#clippath-1);">
          <g>
            <path d="M57.1,20.215h53.279c1.75,0,3.171,1.421,3.171,3.171v82.121c0,1.138-.924,2.061-2.061,2.061h-54.389c-6.65,0-12.049-5.399-12.049-12.049v-63.254c0-6.65,5.399-12.049,12.049-12.049Z" transform="translate(27.888 -24.014) rotate(20.82)" style="fill: #01b593;"/>
            <path d="M97.487,112.424l-52.267-19.876,5.547-14.587,49.303,18.749c1.637.622,3.468-.2,4.091-1.837l.265-.696-6.938,18.246Z" style="fill: #a7abd4; mix-blend-mode: multiply;"/>
            <path d="M46.578,85.154h51.141v15.606h-51.141c-4.306,0-7.803-3.496-7.803-7.803h0c0-4.306,3.496-7.803,7.803-7.803Z" transform="translate(37.497 -18.188) rotate(20.82)" style="fill: #fff;"/>
            <g style="clip-path: url(#clippath-2);">
              <path d="M67.402,99.49h28.258v3.121h-28.258c-.861,0-1.561-.699-1.561-1.561h0c0-.861.699-1.561,1.561-1.561Z" transform="translate(41.19 -22.103) rotate(20.82)" style="fill: #c7c7ff; opacity: .5;"/>
              <path d="M55.394,91.041h42.964v3.121h-42.964c-.861,0-1.561-.699-1.561-1.561h0c0-.861.699-1.561,1.561-1.561Z" transform="translate(37.883 -21) rotate(20.82)" style="fill: #c7c7ff; opacity: .5;"/>
            </g>
            <path d="M61.692,23.272h52.748c1.75,0,3.171,1.421,3.171,3.171v55.85c0,1.75-1.421,3.171-3.171,3.171h-49.577c-1.75,0-3.171-1.421-3.171-3.171V23.272h0Z" transform="translate(25.179 -28.315) rotate(20.82)" style="fill: #04cda7;"/>
            <g style="clip-path: url(#clippath-3);">
              <g>
                <path d="M78.843,39.732c.355-.906.336-1.916-.053-2.808-.389-.892-1.117-1.592-2.023-1.948l-4.387-1.72-1.72,4.387c-.355.906-.336,1.916.053,2.808.389.892,1.117,1.592,2.023,1.948l4.387,1.72,1.72-4.387Z" style="fill: #01b593; fill-rule: evenodd;"/>
                <path d="M96.735,79.133c.674.264,1.425.25,2.088-.04.663-.289,1.184-.831,1.448-1.504l1.279-3.262-3.262-1.279c-.674-.264-1.425-.25-2.088.04-.663.289-1.184.831-1.448,1.504l-1.279,3.262,3.262,1.279Z" style="fill: #01b593; fill-rule: evenodd;"/>
                <path d="M91.133,32.774c.162-.414.153-.875-.024-1.282-.178-.407-.51-.727-.924-.889l-2.003-.786-.786,2.003c-.162.414-.153.875.024,1.282.178.407.51.727.924.889l2.003.786.786-2.003Z" style="fill: #01b593; fill-rule: evenodd;"/>
                <g>
                  <path d="M130.888,30.958l-14.161-5.328c-2.925-1.1-6.167-.993-9.013.295-2.845,1.289-5.062,3.657-6.163,6.582l-5.328,14.162,14.162,5.328c2.924,1.1,6.166.993,9.012-.296,2.845-1.289,5.062-3.657,6.163-6.582l5.328-14.162Z" style="fill: #01b593; fill-rule: evenodd;"/>
                  <g style="clip-path: url(#clippath-4);">
                    <path d="M104.774,44.464c-.523-.215-.963-.629-1.199-1.192-.469-1.125.062-2.418,1.187-2.888l29.11-12.152c1.127-.469,2.418.061,2.889,1.188.469,1.125-.062,2.418-1.187,2.888l-29.11,12.152c-.564.235-1.167.219-1.69.004Z" style="fill: #04cda7;"/>
                  </g>
                </g>
                <g>
                  <path d="M60.956,88.546c3.54,1.332,7.464,1.202,10.909-.358,3.444-1.56,6.127-4.427,7.459-7.966l6.449-17.142-17.141-6.449c-3.539-1.332-7.464-1.202-10.908.358-3.444,1.56-6.127,4.427-7.459,7.966l-6.449,17.142,17.141,6.449Z" style="fill: #01b593; fill-rule: evenodd;"/>
                  <g style="clip-path: url(#clippath-5);">
                    <path d="M75.423,65.749c.633.26,1.166.761,1.451,1.443.568,1.362-.076,2.927-1.437,3.495l-34.355,14.519c-1.364.568-2.927-.074-3.497-1.438-.568-1.362.076-2.927,1.437-3.495l34.355-14.519c.682-.284,1.413-.266,2.046-.005Z" style="fill: #04cda7;"/>
                  </g>
                </g>
              </g>
            </g>
            <path d="M123.874,34.114l-1.502-.571-48.298-18.366c-6.22-2.365-13.18.76-15.545,6.98l-1.698,4.466c2.365-6.22,9.325-9.345,15.545-6.98l46.224,17.577c1.146.436,1.721,1.718,1.286,2.864l-19.618,51.591,1.502.571c1.637.622,3.468-.2,4.091-1.837l18.153-47.738,1.698-4.466h0c.622-1.637-.2-3.468-1.837-4.091h0Z" style="fill: #fff; mix-blend-mode: soft-light; opacity: .5;"/>
            <path d="M96.738,60.228c.526.125.559.095.976-.071l7.382-3.314c1.089-.547.928-1.153.801-1.655-.206-.818-1.01-1.337-1.972-.954l-6.077,2.729-2.784-6.188c-.383-.62-1.157-.878-1.835-.607l-6.077,2.729-2.784-6.188c-.384-.623-1.145-.882-1.835-.607l-7.382,3.314c-1.089.547-.928,1.153-.801,1.655.206.818,1.01,1.337,1.972.954l6.077-2.729,2.784,6.188c.383.62,1.157.878,1.835.607l6.077-2.729,2.784,6.188c.307.497.318.5.859.679Z" style="fill: #302c61;"/>
          </g>
        </g>
      </g>
    </g>
  </g>
</svg>