<?xml version="1.0" encoding="UTF-8"?>
<svg xmlns="http://www.w3.org/2000/svg" width="150" height="150" xmlns:xlink="http://www.w3.org/1999/xlink" version="1.1" viewBox="0 0 150 150">
  <!-- Generator: Adobe Illustrator 29.4.0, SVG Export Plug-In . SVG Version: 2.1.0 Build 152)  -->
  <defs>
    <clipPath id="clippath">
      <path d="M120.095,59.683c-2.225-1.104-3.308-3.716-2.515-6.071,1.944-5.772.625-12.396-3.974-16.996h0c-4.599-4.6-11.224-5.918-16.996-3.975-2.354.793-4.967-.289-6.071-2.515-2.707-5.456-8.324-9.208-14.828-9.208s-12.121,3.752-14.828,9.208c-1.104,2.225-3.716,3.307-6.071,2.515-5.772-1.944-12.397-.625-16.996,3.974h0c-4.599,4.6-5.918,11.224-3.974,16.996.793,2.354-.289,4.967-2.515,6.071-5.456,2.707-9.208,8.324-9.208,14.828h0c0,6.505,3.752,12.121,9.208,14.828,2.225,1.104,3.307,3.716,2.515,6.071-1.944,5.772-.625,12.397,3.974,16.996,4.6,4.599,11.224,5.918,16.996,3.974,2.354-.793,4.967.289,6.071,2.515,2.707,5.456,8.324,9.208,14.828,9.208s12.121-3.752,14.828-9.208c1.104-2.225,3.716-3.308,6.071-2.515,5.772,1.944,12.397.625,16.996-3.974s5.918-11.224,3.974-16.996c-.793-2.354.289-4.967,2.515-6.071,5.456-2.707,9.208-8.324,9.208-14.828h0c0-6.505-3.752-12.121-9.208-14.828Z" style="fill: none;"/>
    </clipPath>
    <clipPath id="clippath-1">
      <path d="M38.761,27.328v46.597c-.098.05-.188.11-.288.16-.083.042-.276.165-.276.426s.193.385.276.427c9.391,4.66,13.95,15.667,10.605,25.604-.029.088-.078.312.106.496.053.053.134.133.323.133.061,0,.12-.009.177-.028,2.166-.729,4.422-1.098,6.706-1.098,7.95,0,15.366,4.594,18.895,11.705.041.083.165.275.426.275s.385-.193.425-.273c3.527-7.113,10.944-11.708,18.895-11.708,2.285,0,4.542.37,6.709,1.099.053.018.114.027.174.027.189,0,.27-.081.323-.133.184-.184,21.08.015,21.08.015V27.328H38.761Z" style="fill: none;"/>
    </clipPath>
    <clipPath id="clippath-2">
      <polygon points="121.784 37.619 113.656 29.49 47.541 29.49 39.412 37.619 39.412 85.715 47.541 93.844 113.656 93.844 121.784 85.715 121.784 37.619" style="clip-rule: evenodd; fill: none;"/>
    </clipPath>
  </defs>
  <g style="isolation: isolate;">
    <g id="Layer_1">
      <g>
        <g style="clip-path: url(#clippath);">
          <path d="M120.095,59.683c-2.225-1.104-3.308-3.716-2.515-6.071,1.944-5.772.625-12.396-3.974-16.996h0c-4.599-4.6-11.224-5.918-16.996-3.975-2.354.793-4.967-.289-6.071-2.515-2.707-5.456-8.324-9.208-14.828-9.208s-12.121,3.752-14.828,9.208c-1.104,2.225-3.716,3.307-6.071,2.515-5.772-1.944-12.397-.625-16.996,3.974h0c-4.599,4.6-5.918,11.224-3.974,16.996.793,2.354-.289,4.967-2.515,6.071-5.456,2.707-9.208,8.324-9.208,14.828h0c0,6.505,3.752,12.121,9.208,14.828,2.225,1.104,3.307,3.716,2.515,6.071-1.944,5.772-.625,12.397,3.974,16.996,4.6,4.599,11.224,5.918,16.996,3.974,2.354-.793,4.967.289,6.071,2.515,2.707,5.456,8.324,9.208,14.828,9.208s12.121-3.752,14.828-9.208c1.104-2.225,3.716-3.308,6.071-2.515,5.772,1.944,12.397.625,16.996-3.974s5.918-11.224,3.974-16.996c-.793-2.354.289-4.967,2.515-6.071,5.456-2.707,9.208-8.324,9.208-14.828h0c0-6.505-3.752-12.121-9.208-14.828Z" style="fill: #dd1d68;"/>
          <path d="M75.712,112.025c-.261,0-.385-.193-.426-.275-3.529-7.111-10.945-11.705-18.895-11.705-2.284,0-4.541.369-6.706,1.098-.057.019-.116.028-.177.028-.189,0-.27-.08-.323-.133-.184-.184-.136-.408-.106-.496,3.346-9.936-1.214-20.944-10.605-25.604-.084-.042-.276-.165-.276-.427s.193-.384.276-.426c9.393-4.661,13.952-15.668,10.605-25.605-.029-.087-.078-.311.106-.495.055-.054.135-.134.323-.134.061,0,.12.009.173.027,2.166.73,4.425,1.1,6.712,1.1,7.949-.001,15.364-4.595,18.892-11.704.042-.084.166-.277.427-.277s.385.194.426.276c3.527,7.11,10.943,11.705,18.894,11.705,2.287-.001,4.546-.371,6.714-1.101.049-.017.109-.026.17-.026.19,0,.271.081.324.134.184.183.135.408.105.496-3.347,9.935,1.212,20.943,10.604,25.604.085.042.277.165.277.426s-.193.385-.276.426c-9.394,4.662-13.953,15.669-10.606,25.606.029.087.078.311-.106.495-.053.052-.133.133-.323.133-.061,0-.121-.009-.174-.027-2.168-.73-4.424-1.099-6.709-1.099-7.951,0-15.368,4.595-18.895,11.707-.04.081-.164.273-.425.273Z" style="fill: #b50859;"/>
          <rect x="22.12" y="20.92" width="53.592" height="107.183" style="fill: #d2deef; mix-blend-mode: multiply;"/>
        </g>
        <g style="clip-path: url(#clippath-1);">
          <g>
            <path d="M98.617,98.992h-36.038v8.833c0,2.23,1.808,4.038,4.038,4.038h27.962c2.23,0,4.038-1.808,4.038-4.038v-8.833Z" style="fill: #7f7e92; fill-rule: evenodd;"/>
            <polygon points="121.784 62.598 116.992 57.806 44.204 57.806 39.412 62.598 39.412 94.2 44.204 98.992 116.992 98.992 121.784 94.2 121.784 62.598" style="fill: #322e4e; fill-rule: evenodd;"/>
            <polygon points="121.784 37.619 113.656 29.49 47.541 29.49 39.412 37.619 39.412 85.715 47.541 93.844 113.656 93.844 121.784 85.715 121.784 37.619" style="fill: #424382; fill-rule: evenodd;"/>
            <g style="clip-path: url(#clippath-2);">
              <polygon points="39.412 93.844 39.412 29.49 121.784 29.49 39.412 93.844" style="fill: #3b3180; fill-rule: evenodd; mix-blend-mode: screen; opacity: .457;"/>
              <rect x="36.838" y="39.787" width="87.521" height="5.148" style="fill: #053540; mix-blend-mode: multiply; opacity: .146;"/>
              <rect x="75.45" y="27.192" width="10.297" height="68.95" style="fill: #053540; mix-blend-mode: multiply; opacity: .09;"/>
              <rect x="39.412" y="17.999" width="5.148" height="78.143" style="fill: #453b89;"/>
              <rect x="116.636" y="17.999" width="5.148" height="78.143" style="fill: #56549e;"/>
              <rect x="36.838" y="78.399" width="87.521" height="5.148" style="fill: #053540; mix-blend-mode: multiply; opacity: .146;"/>
              <rect x="36.838" y="65.528" width="87.521" height="5.148" style="fill: #053540; mix-blend-mode: multiply; opacity: .146;"/>
              <rect x="36.838" y="52.658" width="87.521" height="5.148" style="fill: #053540; mix-blend-mode: multiply; opacity: .146;"/>
            </g>
            <rect x="75.45" y="98.992" width="10.297" height="5.148" style="fill: #525268;"/>
          </g>
        </g>
      </g>
    </g>
  </g>
</svg>