<?xml version="1.0" encoding="UTF-8"?>
<svg xmlns="http://www.w3.org/2000/svg" width="150" height="150" xmlns:xlink="http://www.w3.org/1999/xlink" version="1.1" viewBox="0 0 150 150">
  <!-- Generator: Adobe Illustrator 29.4.0, SVG Export Plug-In . SVG Version: 2.1.0 Build 152)  -->
  <defs>
    <clipPath id="clippath">
      <path d="M120.095,59.683c-2.225-1.104-3.308-3.716-2.515-6.071,1.944-5.772.625-12.396-3.974-16.996h0c-4.599-4.6-11.224-5.918-16.996-3.975-2.354.793-4.967-.289-6.071-2.515-2.707-5.456-8.324-9.208-14.828-9.208s-12.121,3.752-14.828,9.208c-1.104,2.225-3.716,3.307-6.071,2.515-5.772-1.944-12.397-.625-16.996,3.974h0c-4.599,4.6-5.918,11.224-3.974,16.996.793,2.354-.289,4.967-2.515,6.071-5.456,2.707-9.208,8.324-9.208,14.828h0c0,6.505,3.752,12.121,9.208,14.828,2.225,1.104,3.307,3.716,2.515,6.071-1.944,5.772-.625,12.397,3.974,16.996,4.6,4.599,11.224,5.918,16.996,3.974,2.354-.793,4.967.289,6.071,2.515,2.707,5.456,8.324,9.208,14.828,9.208s12.121-3.752,14.828-9.208c1.104-2.225,3.716-3.308,6.071-2.515,5.772,1.944,12.397.625,16.996-3.974,4.599-4.599,5.918-11.224,3.974-16.996-.793-2.354.289-4.967,2.515-6.071,5.456-2.707,9.208-8.324,9.208-14.828h0c0-6.505-3.752-12.121-9.208-14.828Z" style="fill: none;"/>
    </clipPath>
    <clipPath id="clippath-1">
      <path d="M113.139,20.042l-37.001,17.231c-.041-.083-.165-.276-.426-.276s-.385.194-.427.277c-3.528,7.109-10.943,11.703-18.892,11.704-2.287,0-4.546-.37-6.712-1.1-.053-.018-.113-.027-.173-.027-.188,0-.268.08-.323.134-.184.184-.136.408-.106.495,3.347,9.937-1.212,20.944-10.605,25.605-.083.042-.276.165-.276.426s.193.385.276.427c9.391,4.66,13.95,15.667,10.605,25.604-.029.088-.078.312.106.496.053.053.133.133.323.133.061,0,.12-.01.177-.028,2.166-.729,4.422-1.098,6.706-1.098,7.95,0,15.366,4.594,18.895,11.706.041.083.165.275.426.275s.385-.193.425-.273c3.527-7.112,10.944-11.708,18.895-11.708,2.285,0,4.542.37,6.709,1.099.053.018.114.027.174.027.189,0,.27-.081.323-.133l40.656-30.389-29.756-50.606Z" style="fill: none;"/>
    </clipPath>
    <clipPath id="clippath-2">
      <path d="M107.706,24.918L41.957,61.619c-6.543,3.652-8.886,11.916-5.234,18.459l13.079,23.43c3.637,6.515,11.944,8.871,18.459,5.234l59.36-33.135c6.515-3.637,8.871-11.944,5.234-18.459l-6.515-11.671c-2.425-4.344-7.962-5.914-12.306-3.489l2.44-1.362c3.258-1.818,4.435-5.972,2.617-9.23l-2.155-3.861c-1.818-3.258-5.972-4.435-9.23-2.617Z" style="fill: none;"/>
    </clipPath>
    <clipPath id="clippath-4">
      <polygon points="82.462 64.273 112.156 47.697 112.921 56.998 109.679 60.502 96.351 66.681 83.414 71.338 82.462 64.273" style="fill: none;"/>
    </clipPath>
  </defs>
  <g style="isolation: isolate;">
    <g id="Layer_1">
      <g>
        <g style="clip-path: url(#clippath);">
          <path d="M120.095,59.683c-2.225-1.104-3.308-3.716-2.515-6.071,1.944-5.772.625-12.396-3.974-16.996h0c-4.599-4.6-11.224-5.918-16.996-3.975-2.354.793-4.967-.289-6.071-2.515-2.707-5.456-8.324-9.208-14.828-9.208s-12.121,3.752-14.828,9.208c-1.104,2.225-3.716,3.307-6.071,2.515-5.772-1.944-12.397-.625-16.996,3.974h0c-4.599,4.6-5.918,11.224-3.974,16.996.793,2.354-.289,4.967-2.515,6.071-5.456,2.707-9.208,8.324-9.208,14.828h0c0,6.505,3.752,12.121,9.208,14.828,2.225,1.104,3.307,3.716,2.515,6.071-1.944,5.772-.625,12.397,3.974,16.996,4.6,4.599,11.224,5.918,16.996,3.974,2.354-.793,4.967.289,6.071,2.515,2.707,5.456,8.324,9.208,14.828,9.208s12.121-3.752,14.828-9.208c1.104-2.225,3.716-3.308,6.071-2.515,5.772,1.944,12.397.625,16.996-3.974,4.599-4.599,5.918-11.224,3.974-16.996-.793-2.354.289-4.967,2.515-6.071,5.456-2.707,9.208-8.324,9.208-14.828h0c0-6.505-3.752-12.121-9.208-14.828Z" style="fill: #dd1d68;"/>
          <path d="M75.712,112.025c-.261,0-.385-.193-.426-.275-3.529-7.111-10.945-11.705-18.895-11.705-2.284,0-4.541.369-6.706,1.098-.057.019-.116.028-.177.028-.189,0-.27-.08-.323-.133-.184-.184-.136-.408-.106-.496,3.346-9.936-1.214-20.944-10.605-25.604-.084-.042-.276-.165-.276-.427s.193-.384.276-.426c9.393-4.661,13.952-15.668,10.605-25.605-.029-.087-.078-.311.106-.495.055-.054.135-.134.323-.134.061,0,.12.009.173.027,2.166.73,4.425,1.1,6.712,1.1,7.949-.001,15.364-4.595,18.892-11.704.042-.084.166-.277.427-.277s.385.194.426.276c3.527,7.11,10.943,11.705,18.894,11.705,2.287-.001,4.546-.371,6.714-1.101.049-.017.109-.026.17-.026.19,0,.271.081.324.134.184.183.135.408.105.496-3.347,9.935,1.212,20.943,10.604,25.604.085.042.277.165.277.426s-.193.385-.276.426c-9.394,4.662-13.953,15.669-10.606,25.606.029.087.078.311-.106.495-.053.052-.133.133-.323.133-.061,0-.121-.009-.174-.027-2.168-.73-4.424-1.099-6.709-1.099-7.951,0-15.368,4.595-18.895,11.707-.04.081-.164.273-.425.273Z" style="fill: #b50859;"/>
          <rect x="22.12" y="20.92" width="53.592" height="107.183" style="fill: #d2deef; mix-blend-mode: multiply;"/>
        </g>
        <g style="clip-path: url(#clippath-1);">
          <g>
            <g>
              <path d="M107.706,24.918L41.957,61.619c-6.543,3.652-8.886,11.916-5.234,18.459l13.079,23.43c3.637,6.515,11.944,8.871,18.459,5.234l59.36-33.135c6.515-3.637,8.871-11.944,5.234-18.459l-6.515-11.671c-2.425-4.344-7.962-5.914-12.306-3.489l2.44-1.362c3.258-1.818,4.435-5.972,2.617-9.23l-2.155-3.861c-1.818-3.258-5.972-4.435-9.23-2.617Z" style="fill: #f6dfae;"/>
              <g style="clip-path: url(#clippath-2);">
                <path d="M115.308,64.342l-47.107,26.296c-4.344,2.425-9.692,1.147-11.923-2.849l-1.925-3.449c-2.23-3.995-.511-9.219,3.833-11.644l71.792-40.075c1.079-.603,2.443-.216,3.046.864s.216,2.443-.864,3.046l-71.792,40.075c-2.151,1.201-3.115,3.743-2.106,5.552l1.925,3.449c1.01,1.809,3.68,2.322,5.831,1.122l47.107-26.296c1.079-.603,2.443-.216,3.046.864s.216,2.443-.864,3.046Z" style="fill: #ecc98b;"/>
                <path d="M23.596,79.589h0c1.533,2.798,5.044,3.824,7.843,2.29l54.185-29.689c2.86-1.567,4.469-4.725,4.056-7.96h0c-.413-3.235,1.196-6.393,4.056-7.96l30.33-16.619c2.663-1.459,3.639-4.8,2.18-7.463h0c-1.459-2.663-4.8-3.639-7.463-2.18l-16.665,9.131c-1.756.962-3.911.816-5.521-.375h0c-1.61-1.191-3.765-1.337-5.521-.375l-35.993,19.722c-4.56,2.499-7.252,7.421-6.895,12.608h0c.357,5.191-4.459,7.7-9.024,10.198l-13.277,10.829c-2.798,1.533-3.824,5.044-2.29,7.843ZM65.753,39.353c-.507-.925-.165-2.097.761-2.604l13.341-7.31c.925-.507,2.097-.165,2.604.76h0c.507.925.165,2.097-.76,2.604l-13.341,7.31c-.925.507-2.097.165-2.604-.76h0ZM56.446,61.708c-.509-.929-.169-2.095.761-2.604s2.095-.169,2.604.76c.509.929.169,2.095-.761,2.604-.929.509-2.095.169-2.604-.761ZM45.656,67.621c-.507-.925-.165-2.097.76-2.604l5.49-3.008c.925-.507,2.097-.165,2.604.76h0c.507.925.165,2.097-.76,2.604l-5.49,3.008c-.925.507-2.097.165-2.604-.76h0Z" style="fill: #ac761f; fill-rule: evenodd; opacity: .4;"/>
              </g>
            </g>
            <g style="clip-path: url(#clippath-4);">
              <path d="M102.305,48.945h0c-1.492,1.055-1.85,3.14-.794,4.632l-.753-1.065c-.601-.85-1.697-.925-2.547-.324-.85.601-1.253,1.505-.652,2.355l-.049-.069c-1.055-1.492-3.14-1.85-4.632-.795s-1.85,3.14-.794,4.632l-1.482-2.095c-.601-.85-1.697-.925-2.547-.324-.85.601-1.253,1.505-.652,2.355l1.14,1.612c-.807-1.142-2.402-1.415-3.543-.608-1.141.807-1.415,2.402-.608,3.543l2.675,3.783c.807,1.141,2.402,1.415,3.543.608,1.142-.807,1.415-2.402.608-3.543l-.336-.475c.017.023.038.041.055.064-.541-.843-.332-1.98.494-2.564s1.967-.402,2.582.389c-.015-.024-.025-.05-.042-.073l1.61,2.276c1.055,1.492,3.14,1.85,4.632.794,1.492-1.055,1.85-3.14.795-4.632l.03.043c.017.023.038.041.055.064-.541-.844-.332-1.98.494-2.564.826-.584,1.967-.402,2.582.389-.015-.024-.025-.05-.042-.073l.881,1.245c1.055,1.492,3.14,1.85,4.632.794h0c1.492-1.055,1.85-3.14.795-4.632l-3.498-4.946c-1.055-1.492-3.14-1.85-4.632-.794Z" style="fill: #ff8500;"/>
            </g>
            <circle cx="107.402" cy="54.127" r="1.229" style="fill: #ff7300;"/>
            <circle cx="106.925" cy="56.28" r=".61" style="fill: #ff7300;"/>
            <circle cx="108.565" cy="56.048" r=".61" style="fill: #ff7300;"/>
            <g>
              <ellipse cx="45.547" cy="76.961" rx="1.451" ry="1.429" transform="translate(-33.971 117.881) rotate(-86.613)" style="fill: #ac761f;"/>
              <ellipse cx="41.597" cy="79.206" rx="1.451" ry="1.429" transform="translate(-39.929 116.05) rotate(-86.613)" style="fill: #ac761f;"/>
              <ellipse cx="45.086" cy="80.707" rx=".946" ry=".931" transform="translate(-38.144 120.946) rotate(-86.613)" style="fill: #ac761f;"/>
            </g>
            <g>
              <circle cx="80.09" cy="46.76" r="1.451" style="fill: #ac761f;"/>
              <circle cx="84.62" cy="48.772" r="1.451" style="fill: #ac761f;"/>
              <circle cx="84.041" cy="44.424" r=".881" style="fill: #ac761f;"/>
              <circle cx="80.948" cy="51.099" r=".881" style="fill: #ac761f;"/>
            </g>
            <g>
              <circle cx="80.844" cy="91.65" r="1.653" style="fill: #ac761f;"/>
              <circle cx="76.434" cy="94.469" r="1.653" style="fill: #ac761f;"/>
              <circle cx="80.568" cy="95.94" r="1.078" style="fill: #ac761f;"/>
            </g>
            <circle cx="119.451" cy="50.077" r="1.653" style="fill: #ac761f;"/>
            <circle cx="119.206" cy="55.717" r="1.653" style="fill: #ac761f;"/>
            <circle cx="119.451" cy="69.266" r="1.653" style="fill: #ac761f;"/>
            <circle cx="124.578" cy="68.262" r="1.004" style="fill: #ac761f;"/>
            <circle cx="115.209" cy="52.794" r="1.004" style="fill: #ac761f;"/>
          </g>
        </g>
      </g>
    </g>
  </g>
</svg>