<?xml version="1.0" encoding="UTF-8"?>
<svg xmlns="http://www.w3.org/2000/svg" width="150" height="150" xmlns:xlink="http://www.w3.org/1999/xlink" version="1.1" viewBox="0 0 150 150">
  <!-- Generator: Adobe Illustrator 29.4.0, SVG Export Plug-In . SVG Version: 2.1.0 Build 152)  -->
  <defs>
    <clipPath id="clippath">
      <path d="M120.095,59.683c-2.225-1.104-3.308-3.716-2.515-6.071,1.944-5.772.625-12.396-3.974-16.996h0c-4.599-4.6-11.224-5.918-16.996-3.975-2.354.793-4.967-.289-6.071-2.515-2.707-5.456-8.324-9.208-14.828-9.208s-12.121,3.752-14.828,9.208c-1.104,2.225-3.716,3.307-6.071,2.515-5.772-1.944-12.397-.625-16.996,3.974h0c-4.599,4.6-5.918,11.224-3.974,16.996.793,2.354-.289,4.967-2.515,6.071-5.456,2.707-9.208,8.324-9.208,14.828h0c0,6.505,3.752,12.121,9.208,14.828,2.225,1.104,3.307,3.716,2.515,6.071-1.944,5.772-.625,12.397,3.974,16.996,4.6,4.599,11.224,5.918,16.996,3.974,2.354-.793,4.967.289,6.071,2.515,2.707,5.456,8.324,9.208,14.828,9.208s12.121-3.752,14.828-9.208c1.104-2.225,3.716-3.308,6.071-2.515,5.772,1.944,12.397.625,16.996-3.974,4.599-4.599,5.918-11.224,3.974-16.996-.793-2.354.289-4.967,2.515-6.071,5.456-2.707,9.208-8.324,9.208-14.828h0c0-6.505-3.752-12.121-9.208-14.828Z" style="fill: none;"/>
    </clipPath>
    <clipPath id="clippath-1">
      <path d="M115.206,25.254l-25.52-.217-49.272,19.439-4.049,7.186-.869,13.754,7.134,5.921c-1.255,1.056-2.634,1.992-4.156,2.748-.083.042-.276.165-.276.426s.192.385.276.427c9.391,4.66,13.95,15.667,10.604,25.604-.029.088-.078.312.106.496.053.053.133.133.323.133.061,0,.12-.01.177-.028,2.166-.729,4.422-1.098,6.706-1.098,7.95,0,15.366,4.594,18.895,11.706.041.083.165.275.426.275s.385-.193.425-.273c3.527-7.112,10.944-11.708,18.895-11.708,2.285,0,4.542.37,6.709,1.099.053.018.114.027.174.027.189,0,.27-.081.323-.133l15.791-13.665,3.692-8.796,7.582-13.863,2.735-22.3-16.833-17.158Z" style="fill: none;"/>
    </clipPath>
    <clipPath id="clippath-2">
      <path d="M69.007,103.045l19.096-3.405c4.018-.716,7.745-2.571,10.74-5.344l13.221-12.24c2.744-2.54,3.588-6.387,2.479-9.733l5.075-4.698c3.031-2.807,3.215-7.583.409-10.615l-1.477-1.595,2.617-2.423c1.777-1.646,1.885-4.446.24-6.223l-1.601-1.729,1.328-1.23c.902-.835.957-2.256.122-3.158l-6.427-6.942c-.835-.902-2.256-.957-3.158-.122l-1.328,1.23-1.601-1.729c-1.645-1.777-4.446-1.885-6.223-.24l-2.618,2.423-1.477-1.595c-2.807-3.031-7.583-3.215-10.615-.409l-5.075,4.698c-3.251-1.363-7.151-.817-9.894,1.723l-13.221,12.24c-2.995,2.773-5.131,6.347-6.154,10.297l-4.863,18.778c-.745,2.875.025,5.932,2.043,8.111l10.432,11.267c2.018,2.179,5.006,3.182,7.93,2.661Z" style="clip-rule: evenodd; fill: none;"/>
    </clipPath>
  </defs>
  <g style="isolation: isolate;">
    <g id="Layer_1">
      <g>
        <g style="clip-path: url(#clippath);">
          <path d="M120.095,59.683c-2.225-1.104-3.308-3.716-2.515-6.071,1.944-5.772.625-12.396-3.974-16.996h0c-4.599-4.6-11.224-5.918-16.996-3.975-2.354.793-4.967-.289-6.071-2.515-2.707-5.456-8.324-9.208-14.828-9.208s-12.121,3.752-14.828,9.208c-1.104,2.225-3.716,3.307-6.071,2.515-5.772-1.944-12.397-.625-16.996,3.974h0c-4.599,4.6-5.918,11.224-3.974,16.996.793,2.354-.289,4.967-2.515,6.071-5.456,2.707-9.208,8.324-9.208,14.828h0c0,6.505,3.752,12.121,9.208,14.828,2.225,1.104,3.307,3.716,2.515,6.071-1.944,5.772-.625,12.397,3.974,16.996,4.6,4.599,11.224,5.918,16.996,3.974,2.354-.793,4.967.289,6.071,2.515,2.707,5.456,8.324,9.208,14.828,9.208s12.121-3.752,14.828-9.208c1.104-2.225,3.716-3.308,6.071-2.515,5.772,1.944,12.397.625,16.996-3.974,4.599-4.599,5.918-11.224,3.974-16.996-.793-2.354.289-4.967,2.515-6.071,5.456-2.707,9.208-8.324,9.208-14.828h0c0-6.505-3.752-12.121-9.208-14.828Z" style="fill: #dd1d68;"/>
          <path d="M75.712,112.025c-.261,0-.385-.193-.426-.275-3.529-7.111-10.945-11.705-18.895-11.705-2.284,0-4.541.369-6.706,1.098-.057.019-.116.028-.177.028-.189,0-.27-.08-.323-.133-.184-.184-.136-.408-.106-.496,3.346-9.936-1.214-20.944-10.605-25.604-.084-.042-.276-.165-.276-.427s.193-.384.276-.426c9.393-4.661,13.952-15.668,10.605-25.605-.029-.087-.078-.311.106-.495.055-.054.135-.134.323-.134.061,0,.12.009.173.027,2.166.73,4.425,1.1,6.712,1.1,7.949-.001,15.364-4.595,18.892-11.704.042-.084.166-.277.427-.277s.385.194.426.276c3.527,7.11,10.943,11.705,18.894,11.705,2.287-.001,4.546-.371,6.714-1.101.049-.017.109-.026.17-.026.19,0,.271.081.324.134.184.183.135.408.105.496-3.347,9.935,1.212,20.943,10.604,25.604.085.042.277.165.277.426s-.193.385-.276.426c-9.394,4.662-13.953,15.669-10.606,25.606.029.087.078.311-.106.495-.053.052-.133.133-.323.133-.061,0-.121-.009-.174-.027-2.168-.73-4.424-1.099-6.709-1.099-7.951,0-15.368,4.595-18.895,11.707-.04.081-.164.273-.425.273Z" style="fill: #b50859;"/>
          <rect x="22.12" y="20.92" width="53.592" height="107.183" style="fill: #d2deef; mix-blend-mode: multiply;"/>
        </g>
        <g style="clip-path: url(#clippath-1);">
          <g>
            <path d="M71.524,38.269c2.893-2.679,6.996-3.608,10.751-2.516l4.218-3.905c3.823-3.54,9.813-3.309,13.353.514l.16.173,1.196-1.107c2.566-2.376,6.586-2.221,8.962.345l.285.308c1.691-1.474,4.267-1.345,5.802.313l6.427,6.942c1.534,1.657,1.465,4.236-.135,5.808l.285.308c2.376,2.566,2.221,6.586-.345,8.962l-1.195,1.107.16.173c3.54,3.823,3.309,9.813-.514,13.353l-4.218,3.905c.8,3.827-.442,7.847-3.335,10.525l-13.221,12.24c-3.274,3.031-7.325,5.047-11.717,5.829l-19.096,3.405c-3.591.64-7.214-.575-9.692-3.252l-10.432-11.267c-2.478-2.677-3.411-6.382-2.497-9.913l4.864-18.778c1.118-4.318,3.44-8.203,6.713-11.233l13.221-12.24Z" style="fill: #fff4e4; fill-rule: evenodd; stroke: #fff4e4; stroke-miterlimit: 10; stroke-width: 4.233px;"/>
            <g style="clip-path: url(#clippath-2);">
              <path d="M69.007,103.045l19.096-3.405c4.018-.716,7.745-2.571,10.74-5.344l13.221-12.24c2.744-2.54,3.588-6.387,2.479-9.733l5.075-4.698c3.031-2.807,3.215-7.583.409-10.615l-1.477-1.595,2.617-2.423c1.777-1.646,1.885-4.446.24-6.223l-1.601-1.729,1.328-1.23c.902-.835.957-2.256.122-3.158l-6.427-6.942c-.835-.902-2.256-.957-3.158-.122l-1.328,1.23-1.601-1.729c-1.645-1.777-4.446-1.885-6.223-.24l-2.618,2.423-1.477-1.595c-2.807-3.031-7.583-3.215-10.615-.409l-5.075,4.698c-3.251-1.363-7.151-.817-9.894,1.723l-13.221,12.24c-2.995,2.773-5.131,6.347-6.154,10.297l-4.863,18.778c-.745,2.875.025,5.932,2.043,8.111l10.432,11.267c2.018,2.179,5.006,3.182,7.93,2.661Z" style="fill: #f8d927; fill-rule: evenodd;"/>
              <path d="M69.007,103.045l19.096-3.405c4.018-.716,7.745-2.571,10.74-5.344l13.221-12.24c2.744-2.54,3.588-6.387,2.479-9.733l5.075-4.698c3.031-2.807,3.215-7.583.409-10.615l-1.477-1.595,2.617-2.423c1.777-1.646,1.885-4.446.24-6.223l-1.601-1.729,1.328-1.23c.902-.835.957-2.256.122-3.158l-6.427-6.942c-.835-.902-2.256-.957-3.158-.122l-1.328,1.23-1.601-1.729c-1.645-1.777-4.446-1.885-6.223-.24l-2.618,2.423-1.477-1.595c-2.807-3.031-7.583-3.215-10.615-.409l-5.075,4.698c-3.251-1.363-7.151-.817-9.894,1.723l-13.221,12.24c-2.995,2.773-5.131,6.347-6.154,10.297l-4.863,18.778c-.745,2.875.025,5.932,2.043,8.111l10.432,11.267c2.018,2.179,5.006,3.182,7.93,2.661Z" style="fill: #f7e0af; fill-rule: evenodd;"/>
              <rect x="62.766" y="86.914" width="31.482" height="10.997" rx="4.636" ry="4.636" transform="translate(172.547 168.963) rotate(169.495)" style="fill: #edca8c;"/>
              <rect x="98.317" y="29.855" width="2.422" height="48.935" transform="translate(-10.411 82.077) rotate(-42.794)" style="fill: #edca8c;"/>
              <g>
                <rect x="112.113" y="59.853" width="7.821" height="3.966" rx="1.983" ry="1.983" transform="translate(243.171 28.388) rotate(137.206)" style="fill: #edca8c;"/>
                <rect x="104.541" y="51.674" width="7.821" height="3.966" rx="1.983" ry="1.983" transform="translate(224.485 19.352) rotate(137.206)" style="fill: #edca8c;"/>
                <rect x="96.968" y="43.495" width="7.821" height="3.966" rx="1.983" ry="1.983" transform="translate(205.799 10.315) rotate(137.206)" style="fill: #edca8c;"/>
                <rect x="89.395" y="35.315" width="7.821" height="3.966" rx="1.983" ry="1.983" transform="translate(187.113 1.278) rotate(137.206)" style="fill: #edca8c;"/>
              </g>
              <g>
                <rect x="97.068" y="66.489" width="7.821" height="3.966" rx="1.983" ry="1.983" transform="translate(221.595 50.115) rotate(137.206)" style="fill: #edca8c;"/>
                <rect x="104.791" y="74.831" width="7.821" height="3.966" rx="1.983" ry="1.983" transform="translate(240.652 59.331) rotate(137.206)" style="fill: #edca8c;"/>
                <rect x="89.345" y="58.147" width="7.821" height="3.966" rx="1.983" ry="1.983" transform="translate(202.537 40.898) rotate(137.206)" style="fill: #edca8c;"/>
                <rect x="81.622" y="49.805" width="7.821" height="3.966" rx="1.983" ry="1.983" transform="translate(183.479 31.682) rotate(137.206)" style="fill: #edca8c;"/>
                <rect x="73.899" y="41.463" width="7.821" height="3.966" rx="1.983" ry="1.983" transform="translate(164.422 22.466) rotate(137.206)" style="fill: #edca8c;"/>
              </g>
              <rect x="108.909" y="21.106" width="2.422" height="46.82" transform="translate(-.928 86.663) rotate(-42.794)" style="fill: #edca8c;"/>
              <rect x="114.823" y="15.855" width="1.938" height="46.82" transform="translate(4.149 89.118) rotate(-42.794)" style="fill: #edca8c;"/>
            </g>
          </g>
          <g>
            <rect x="39.059" y="47.253" width="34.726" height="23.676" rx="10.823" ry="10.823" transform="translate(15.694 -11.736) rotate(13.776)" style="fill: #fff3e3; stroke: #fff3e3; stroke-miterlimit: 10; stroke-width: 4.242px;"/>
            <rect x="39.059" y="47.253" width="34.726" height="23.676" rx="10.823" ry="10.823" transform="translate(15.694 -11.736) rotate(13.776)" style="fill: #ecc98b;"/>
            <g>
              <rect x="40.747" y="48.778" width="31.359" height="20.629" rx="9.6" ry="9.6" transform="translate(15.694 -11.737) rotate(13.776)" style="fill: #ff8500;"/>
              <circle cx="48.115" cy="51.661" r="1.539" style="fill: #ff7300;"/>
              <circle cx="45.332" cy="54.74" r="1.539" style="fill: #ff7300;"/>
              <circle cx="49.59" cy="55.53" r="1.539" style="fill: #ff7300;"/>
              <circle cx="47.218" cy="63.321" r=".836" style="fill: #ff7300;"/>
              <circle cx="63.272" cy="52.498" r=".836" style="fill: #ff7300;"/>
              <circle cx="64.812" cy="53.991" r=".836" style="fill: #ff7300;"/>
              <circle cx="64.489" cy="63.876" r=".836" style="fill: #ff7300;"/>
              <circle cx="64.812" cy="67.023" r="1.539" style="fill: #ff7300;"/>
              <circle cx="67.788" cy="63.876" r="1.539" style="fill: #ff7300;"/>
            </g>
          </g>
        </g>
      </g>
    </g>
  </g>
</svg>