<?xml version="1.0" encoding="UTF-8"?>
<svg xmlns="http://www.w3.org/2000/svg" width="150" height="150" xmlns:xlink="http://www.w3.org/1999/xlink" version="1.1" viewBox="0 0 150 150">
  <!-- Generator: Adobe Illustrator 29.4.0, SVG Export Plug-In . SVG Version: 2.1.0 Build 152)  -->
  <defs>
    <clipPath id="clippath">
      <path d="M120.095,59.683c-2.225-1.104-3.308-3.716-2.515-6.071,1.944-5.772.625-12.396-3.974-16.996h0c-4.599-4.6-11.224-5.918-16.996-3.975-2.354.793-4.967-.289-6.071-2.515-2.707-5.456-8.324-9.208-14.828-9.208s-12.121,3.752-14.828,9.208c-1.104,2.225-3.716,3.307-6.071,2.515-5.772-1.944-12.397-.625-16.996,3.974h0c-4.599,4.6-5.918,11.224-3.974,16.996.793,2.354-.289,4.967-2.515,6.071-5.456,2.707-9.208,8.324-9.208,14.828h0c0,6.505,3.752,12.121,9.208,14.828,2.225,1.104,3.307,3.716,2.515,6.071-1.944,5.772-.625,12.397,3.974,16.996,4.6,4.599,11.224,5.918,16.996,3.974,2.354-.793,4.967.289,6.071,2.515,2.707,5.456,8.324,9.208,14.828,9.208s12.121-3.752,14.828-9.208c1.104-2.225,3.716-3.308,6.071-2.515,5.772,1.944,12.397.625,16.996-3.974,4.599-4.599,5.918-11.224,3.974-16.996-.793-2.354.289-4.967,2.515-6.071,5.456-2.707,9.208-8.324,9.208-14.828h0c0-6.505-3.752-12.121-9.208-14.828Z" style="fill: none;"/>
    </clipPath>
    <clipPath id="clippath-1">
      <path d="M112.948,74.085l8.297-30.715L81.466.286l-41.908,4.656,7.591,64.194-8.951,5.374c0,.262.193.385.276.427,9.391,4.66,13.95,15.667,10.605,25.604-.029.088-.078.312.106.496.053.053.133.133.323.133.061,0,.12-.01.177-.028,2.166-.729,4.422-1.098,6.706-1.098,7.95,0,15.366,4.594,18.895,11.705.041.083.165.275.426.275s.385-.193.425-.273c3.527-7.112,10.944-11.707,18.895-11.707,2.285,0,4.542.369,6.709,1.099.053.018.114.027.174.027.189,0,.27-.081.323-.133.184-.184.135-.408.106-.495-3.347-9.937,1.212-20.944,10.606-25.606.083-.041.276-.164.276-.426s-.193-.384-.277-.426Z" style="fill: none;"/>
    </clipPath>
    <clipPath id="clippath-2">
      <path d="M107.53,126.025h0c4.564,0,8.27,3.706,8.27,8.27v10.696c0,.93-.755,1.685-1.685,1.685h-13.171c-.93,0-1.685-.755-1.685-1.685v-10.696c0-4.564,3.706-8.27,8.27-8.27Z" transform="translate(-14.792 13.097) rotate(-6.522)" style="fill: none;"/>
    </clipPath>
    <clipPath id="clippath-3">
      <path d="M44.455,132.483h13.171c.93,0,1.685.755,1.685,1.685v10.696c0,4.564-3.706,8.27-8.27,8.27h0c-4.564,0-8.27-3.706-8.27-8.27v-10.696c0-.93.755-1.685,1.685-1.685Z" transform="translate(117.972 278.895) rotate(173.478)" style="fill: none;"/>
    </clipPath>
    <clipPath id="clippath-4">
      <path d="M75.178,103.656l-25.164,2.877,4.191,7.84c.639,1.196,1.944,1.88,3.291,1.726l18.858-2.156,18.858-2.156c1.347-.154,2.464-1.115,2.817-2.424l2.313-8.583-25.164,2.877Z" style="fill: none;"/>
    </clipPath>
    <clipPath id="clippath-5">
      <path d="M56.758,2.851h18.847c6.667,0,12.079,5.412,12.079,12.079v53.559h-43.004V14.93c0-6.667,5.412-12.079,12.079-12.079Z" transform="translate(-3.623 7.748) rotate(-6.522)" style="fill: none;"/>
    </clipPath>
    <clipPath id="clippath-6">
      <path d="M104.48,80.358c.41,3.583-.621,7.182-2.865,10.006-2.244,2.823-5.518,4.64-9.101,5.049-10.849,1.24-26.009,2.974-36.857,4.214-3.583.41-7.183-.621-10.006-2.865-2.824-2.244-4.64-5.518-5.049-9.101l-.392-3.429c-.41-3.583.621-7.182,2.865-10.006,2.244-2.824,5.518-4.64,9.101-5.05,10.849-1.24,26.009-2.974,36.857-4.214,3.583-.41,7.183.621,10.006,2.865,2.824,2.244,4.64,5.518,5.049,9.101.13,1.139.262,2.29.392,3.429Z" style="clip-rule: evenodd; fill: none;"/>
    </clipPath>
  </defs>
  <g style="isolation: isolate;">
    <g id="Layer_1">
      <g>
        <g style="clip-path: url(#clippath);">
          <path d="M120.095,59.683c-2.225-1.104-3.308-3.716-2.515-6.071,1.944-5.772.625-12.396-3.974-16.996h0c-4.599-4.6-11.224-5.918-16.996-3.975-2.354.793-4.967-.289-6.071-2.515-2.707-5.456-8.324-9.208-14.828-9.208s-12.121,3.752-14.828,9.208c-1.104,2.225-3.716,3.307-6.071,2.515-5.772-1.944-12.397-.625-16.996,3.974h0c-4.599,4.6-5.918,11.224-3.974,16.996.793,2.354-.289,4.967-2.515,6.071-5.456,2.707-9.208,8.324-9.208,14.828h0c0,6.505,3.752,12.121,9.208,14.828,2.225,1.104,3.307,3.716,2.515,6.071-1.944,5.772-.625,12.397,3.974,16.996,4.6,4.599,11.224,5.918,16.996,3.974,2.354-.793,4.967.289,6.071,2.515,2.707,5.456,8.324,9.208,14.828,9.208s12.121-3.752,14.828-9.208c1.104-2.225,3.716-3.308,6.071-2.515,5.772,1.944,12.397.625,16.996-3.974,4.599-4.599,5.918-11.224,3.974-16.996-.793-2.354.289-4.967,2.515-6.071,5.456-2.707,9.208-8.324,9.208-14.828h0c0-6.505-3.752-12.121-9.208-14.828Z" style="fill: #dd1d68;"/>
          <path d="M75.712,112.025c-.261,0-.385-.193-.426-.275-3.529-7.111-10.945-11.705-18.895-11.705-2.284,0-4.541.369-6.706,1.098-.057.019-.116.028-.177.028-.189,0-.27-.08-.323-.133-.184-.184-.136-.408-.106-.496,3.346-9.936-1.214-20.944-10.605-25.604-.084-.042-.276-.165-.276-.427s.193-.384.276-.426c9.393-4.661,13.952-15.668,10.605-25.605-.029-.087-.078-.311.106-.495.055-.054.135-.134.323-.134.061,0,.12.009.173.027,2.166.73,4.425,1.1,6.712,1.1,7.949-.001,15.364-4.595,18.892-11.704.042-.084.166-.277.427-.277s.385.194.426.276c3.527,7.11,10.943,11.705,18.894,11.705,2.287-.001,4.546-.371,6.714-1.101.049-.017.109-.026.17-.026.19,0,.271.081.324.134.184.183.135.408.105.496-3.347,9.935,1.212,20.943,10.604,25.604.085.042.277.165.277.426s-.193.385-.276.426c-9.394,4.662-13.953,15.669-10.606,25.606.029.087.078.311-.106.495-.053.052-.133.133-.323.133-.061,0-.121-.009-.174-.027-2.168-.73-4.424-1.099-6.709-1.099-7.951,0-15.368,4.595-18.895,11.707-.04.081-.164.273-.425.273Z" style="fill: #b50859;"/>
          <rect x="22.12" y="20.92" width="53.592" height="107.183" style="fill: #d2deef; mix-blend-mode: multiply;"/>
        </g>
        <g style="clip-path: url(#clippath-1);">
          <g>
            <g>
              <polygon points="49.901 106.546 48.539 94.627 98.965 88.862 100.317 100.782 49.901 106.546" style="fill: #e7c800; fill-rule: evenodd;"/>
              <polygon points="99.354 92.26 48.927 98.025 49.349 101.717 100.05 98.352 99.354 92.26" style="fill: #d0b300; fill-rule: evenodd;"/>
              <rect x="103.861" y="118.864" width="1.724" height="6.322" rx=".375" ry=".375" transform="translate(190.778 -13.812) rotate(72.992)" style="fill: #10172a;"/>
              <rect x="102.667" y="114.775" width="1.724" height="6.322" rx=".375" ry=".375" transform="translate(186.023 -15.562) rotate(72.992)" style="fill: #10172a;"/>
              <rect x="99.638" y="109.827" width="4.306" height="21.323" rx="1.088" ry="1.088" transform="translate(-30.792 35.045) rotate(-17.008)" style="fill: #233255;"/>
              <rect x="105.288" y="108.428" width="2.153" height="21.323" rx=".769" ry=".769" transform="translate(-30.183 36.322) rotate(-17.008)" style="fill: #233255;"/>
              <circle cx="100.175" cy="108.869" r="6.766" style="fill: #10172a;"/>
              <g style="clip-path: url(#clippath-2);">
                <path d="M107.53,126.025h0c4.564,0,8.27,3.706,8.27,8.27v10.696c0,.93-.755,1.685-1.685,1.685h-13.171c-.93,0-1.685-.755-1.685-1.685v-10.696c0-4.564,3.706-8.27,8.27-8.27Z" transform="translate(-14.792 13.097) rotate(-6.522)" style="fill: #e7c800;"/>
                <g>
                  <polyline points="100.574 129.848 104.139 132.681 105.856 147.698" style="fill: none; stroke: #9fb7d4; stroke-linecap: round; stroke-linejoin: round; stroke-width: 2.919px;"/>
                  <polyline points="112.839 128.446 110.005 132.011 111.722 147.028" style="fill: none; stroke: #9fb7d4; stroke-linecap: round; stroke-linejoin: round; stroke-width: 2.919px;"/>
                </g>
                <circle cx="107.131" cy="132.864" r="4.859" style="fill: #10172a;"/>
                <circle cx="105.811" cy="131.541" r="2.116" style="fill: #39517e;"/>
              </g>
              <g>
                <rect x="115.222" y="141.157" width="3.941" height="9.473" rx="1.97" ry="1.97" transform="translate(-59.028 208.862) rotate(-70.889)" style="fill: #10172a;"/>
                <rect x="98.3" y="143.091" width="3.941" height="9.473" rx="1.97" ry="1.97" transform="translate(28.484 311.394) rotate(-122.155)" style="fill: #10172a;"/>
                <rect x="106.939" y="143.684" width="3.941" height="9.473" rx="1.97" ry="1.97" transform="translate(233.974 283.511) rotate(173.478)" style="fill: #10172a;"/>
              </g>
              <rect x="49.679" y="125.059" width="1.724" height="6.322" rx=".375" ry=".375" transform="translate(181.948 86.663) rotate(93.964)" style="fill: #10172a;"/>
              <rect x="49.92" y="120.805" width="1.724" height="6.322" rx=".375" ry=".375" transform="translate(177.963 81.876) rotate(93.964)" style="fill: #10172a;"/>
              <rect x="50.898" y="115.399" width="4.306" height="21.323" rx="1.088" ry="1.088" transform="translate(97.26 255.487) rotate(-176.036)" style="fill: #233255;"/>
              <rect x="47.203" y="115.069" width="2.153" height="21.323" rx=".769" ry=".769" transform="translate(87.752 254.497) rotate(-176.036)" style="fill: #233255;"/>
              <circle cx="52.003" cy="114.376" r="6.766" style="fill: #10172a;"/>
              <g style="clip-path: url(#clippath-3);">
                <path d="M44.455,132.483h13.171c.93,0,1.685.755,1.685,1.685v10.696c0,4.564-3.706,8.27-8.27,8.27h0c-4.564,0-8.27-3.706-8.27-8.27v-10.696c0-.93.755-1.685,1.685-1.685Z" transform="translate(117.972 278.895) rotate(173.478)" style="fill: #e7c800;"/>
                <g>
                  <polyline points="56.349 134.904 53.516 138.469 55.232 153.486" style="fill: none; stroke: #9fb7d4; stroke-linecap: round; stroke-linejoin: round; stroke-width: 2.919px;"/>
                  <polyline points="44.085 136.306 47.65 139.14 49.367 154.157" style="fill: none; stroke: #9fb7d4; stroke-linecap: round; stroke-linejoin: round; stroke-width: 2.919px;"/>
                </g>
                <circle cx="50.642" cy="139.322" r="4.859" style="fill: #10172a;"/>
                <circle cx="49.17" cy="138.017" r="2.116" style="fill: #39517e;"/>
              </g>
              <rect x="58.733" y="147.615" width="3.941" height="9.473" rx="1.97" ry="1.97" transform="translate(-103.126 159.829) rotate(-70.889)" style="fill: #10172a;"/>
              <path d="M75.178,103.656l-25.164,2.877,4.191,7.84c.639,1.196,1.944,1.88,3.291,1.726l18.858-2.156,18.858-2.156c1.347-.154,2.464-1.115,2.817-2.424l2.313-8.583-25.164,2.877Z" style="fill: #233255;"/>
              <g style="clip-path: url(#clippath-4);">
                <polyline points="63.221 102.856 64.176 111.208 87.601 108.53 86.507 98.956" style="fill: none; stroke: #39517e; stroke-linecap: round; stroke-linejoin: round; stroke-width: 2.239px;"/>
                <rect x="47.977" y="103.317" width="60.483" height="2.597" transform="translate(-11.377 9.562) rotate(-6.522)" style="fill: #10172a;"/>
                <line x1="75.912" y1="110.073" x2="76.867" y2="118.424" style="fill: none; stroke: #39517e; stroke-linecap: round; stroke-linejoin: round; stroke-width: 2.239px;"/>
              </g>
            </g>
            <g>
              <g style="clip-path: url(#clippath-5);">
                <path d="M56.758,2.851h18.847c6.667,0,12.079,5.412,12.079,12.079v53.559h-43.004V14.93c0-6.667,5.412-12.079,12.079-12.079Z" transform="translate(-3.623 7.748) rotate(-6.522)" style="fill: #e7c800;"/>
                <rect x="43.234" y="63.081" width="53.529" height="5.169" transform="translate(-7.006 8.376) rotate(-6.522)" style="fill: #a68600;"/>
                <line x1="44.907" y1="65.328" x2="93.602" y2="59.761" style="fill: none; stroke: #d0b300; stroke-linecap: round; stroke-linejoin: round; stroke-width: 2.119px;"/>
                <g>
                  <polyline points="90.373 34.719 84.914 41.587 87.077 60.507" style="fill: none; stroke: #d0b300; stroke-linecap: round; stroke-linejoin: round; stroke-width: 2.119px;"/>
                  <polyline points="42.4 40.204 49.268 45.662 51.397 64.284" style="fill: none; stroke: #d0b300; stroke-linecap: round; stroke-linejoin: round; stroke-width: 2.119px;"/>
                </g>
                <line x1="77.721" y1="22.054" x2="88.714" y2="20.797" style="fill: none; stroke: #d0b300; stroke-linecap: round; stroke-linejoin: round; stroke-width: 2.119px;"/>
                <line x1="78.254" y1="26.718" x2="89.248" y2="25.461" style="fill: none; stroke: #d0b300; stroke-linecap: round; stroke-linejoin: round; stroke-width: 2.119px;"/>
                <path d="M50.526-1.628h28.994v49.525c0,2.653-2.154,4.806-4.806,4.806h-19.381c-2.653,0-4.806-2.154-4.806-4.806V-1.628h0Z" transform="translate(-2.48 7.551) rotate(-6.522)" style="fill: #240026;"/>
              </g>
              <g>
                <rect x="61.204" y="38.589" width="2.761" height="6.75" rx="1.381" ry="1.381" transform="translate(-4.362 7.38) rotate(-6.522)" style="fill: #b0e800;"/>
                <path d="M60.103,46.657c-.173-.055-.363-.004-.486.13-.123.134-.157.328-.086.495,0,0,0,0,0,0,.228.546.684.964,1.248,1.142s1.178.1,1.678-.215c0,0,0,0,0,0,.154-.097.238-.274.215-.455-.023-.18-.149-.331-.322-.386-.675-.214-1.574-.499-2.248-.712Z" style="fill: #b1e500; fill-rule: evenodd;"/>
                <rect x="69.726" y="37.615" width="2.761" height="6.75" rx="1.381" ry="1.381" transform="translate(-4.196 8.342) rotate(-6.522)" style="fill: #b0e800;"/>
              </g>
            </g>
            <g>
              <path d="M102.474,84.696c.033.293.192.557.434.725.242.168.546.223.831.15,3.782-1.008,6.364-4.663,5.906-8.664-.458-4.002-3.797-6.979-7.709-7.097-.291-.005-.571.115-.768.331-.196.216-.29.506-.256.795.321,2.904,1.23,10.859,1.562,13.761Z" style="fill: #a68600; fill-rule: evenodd;"/>
              <g>
                <path d="M108.674,77.032c2.341.292,4.475-1.369,4.767-3.71.956-7.668,2.875-23.056,2.875-23.056l-8.478-1.057s-1.919,15.388-2.875,23.056c-.292,2.341,1.369,4.475,3.71,4.767h0Z" style="fill: #e7c800; fill-rule: evenodd;"/>
                <rect x="97.337" y="58.482" width="21.204" height="2.848" transform="translate(35.138 159.603) rotate(-82.892)" style="fill: #ffdf52;"/>
                <rect x="109.4" y="56.224" width="2.67" height="8.544" transform="translate(37.002 162.895) rotate(-82.892)" style="fill: #d0b300;"/>
                <rect x="108.733" y="61.578" width="2.67" height="8.544" transform="translate(31.105 166.924) rotate(-82.892)" style="fill: #d0b300;"/>
                <rect x="108.059" y="66.986" width="2.67" height="8.544" transform="translate(25.147 170.994) rotate(-82.892)" style="fill: #d0b300;"/>
                <path d="M114.431,46.634c.585.442,1.419.327,1.861-.258l1.19-1.573c.442-.585.327-1.419-.258-1.861-.585-.442-1.419-.327-1.861.258l-1.19,1.573c-.442.585-.327,1.419.258,1.861Z" style="fill: #240026; fill-rule: evenodd;"/>
                <path d="M112.454,45.699c.727.091,1.392-.426,1.483-1.154l.325-2.61c.091-.728-.426-1.392-1.154-1.483s-1.392.426-1.483,1.154l-.325,2.61c-.091.728.426,1.392,1.154,1.483Z" style="fill: #240026; fill-rule: evenodd;"/>
                <path d="M110.494,46.536c.675-.285.992-1.065.707-1.741l-.869-2.059c-.285-.675-1.065-.992-1.74-.707-.675.285-.992,1.065-.707,1.74l.869,2.059c.285.675,1.065.992,1.741.707Z" style="fill: #240026; fill-rule: evenodd;"/>
                <path d="M116.468,49.044c.292-2.341-1.369-4.475-3.71-4.767h0c-2.341-.292-4.475,1.369-4.767,3.71l-.166,1.328,8.478,1.057.166-1.328Z" style="fill: #d0b300; fill-rule: evenodd;"/>
              </g>
            </g>
            <path d="M104.48,80.358c.41,3.583-.621,7.182-2.865,10.006-2.244,2.823-5.518,4.64-9.101,5.049-10.849,1.24-26.009,2.974-36.857,4.214-3.583.41-7.183-.621-10.006-2.865-2.824-2.244-4.64-5.518-5.049-9.101l-.392-3.429c-.41-3.583.621-7.182,2.865-10.006,2.244-2.824,5.518-4.64,9.101-5.05,10.849-1.24,26.009-2.974,36.857-4.214,3.583-.41,7.183.621,10.006,2.865,2.824,2.244,4.64,5.518,5.049,9.101.13,1.139.262,2.29.392,3.429Z" style="fill: #e7c800; fill-rule: evenodd;"/>
            <g style="clip-path: url(#clippath-6);">
              <rect x="36.511" y="63.947" width="69.669" height="6.077" transform="translate(-7.147 8.537) rotate(-6.522)" style="fill: #a68600; mix-blend-mode: multiply; opacity: .4;"/>
              <polygon points="93.964 101.247 55.206 105.678 57.696 90.151 88.034 86.683 93.964 101.247" style="fill: none; stroke: #d0b300; stroke-linecap: round; stroke-linejoin: round; stroke-width: 2.119px;"/>
              <line x1="72.865" y1="88.417" x2="70.077" y2="64.028" style="fill: none; stroke: #d0b300; stroke-linecap: round; stroke-linejoin: round; stroke-width: 2.119px;"/>
            </g>
          </g>
        </g>
      </g>
    </g>
  </g>
</svg>