<?xml version="1.0" encoding="UTF-8"?>
<svg xmlns="http://www.w3.org/2000/svg" width="150" height="150" xmlns:xlink="http://www.w3.org/1999/xlink" version="1.1" viewBox="0 0 150 150">
  <!-- Generator: Adobe Illustrator 29.4.0, SVG Export Plug-In . SVG Version: 2.1.0 Build 152)  -->
  <defs>
    <clipPath id="clippath">
      <path d="M107.811,31.642c-1.937-2.165-4.707-3.403-7.614-3.403h-50.394c-2.907,0-5.676,1.238-7.614,3.403l-14.591,16.307c-2.286,2.555-3.136,6.086-2.262,9.399l11.808,44.782c.639,2.423,2.147,4.526,4.238,5.909l27.98,18.505c3.418,2.26,7.857,2.26,11.274,0l27.98-18.505c2.091-1.383,3.6-3.486,4.238-5.909l11.808-44.782c.874-3.314.024-6.845-2.262-9.399l-14.591-16.307Z" style="fill: none;"/>
    </clipPath>
    <clipPath id="clippath-1">
      <polygon points="52.068 95.916 38.441 44.238 56.464 23.94 72.346 7.157 79.209 7.65 99.767 22.311 112.69 43.705 115.351 72.157 105.903 94.8 75 111.083 52.068 95.916" style="fill: none;"/>
    </clipPath>
  </defs>
  <g style="isolation: isolate;">
    <g id="Layer_1">
      <g>
        <g>
          <path d="M107.811,31.642c-1.937-2.165-4.707-3.403-7.614-3.403h-50.394c-2.907,0-5.676,1.238-7.614,3.403l-14.591,16.307c-2.286,2.555-3.136,6.086-2.262,9.399l11.808,44.782c.639,2.423,2.147,4.526,4.238,5.909l27.98,18.505c3.418,2.26,7.857,2.26,11.274,0l27.98-18.505c2.091-1.383,3.6-3.486,4.238-5.909l11.808-44.782c.874-3.314.024-6.845-2.262-9.399l-14.591-16.307Z" style="fill: #ffc70d;"/>
          <polygon points="52.068 95.916 41.618 56.287 52.399 44.238 97.601 44.238 108.382 56.287 97.933 95.916 75 111.083 52.068 95.916" style="fill: #ffb42a;"/>
          <g style="mix-blend-mode: multiply;">
            <g style="clip-path: url(#clippath);">
              <polygon points="75 21.593 75 159.729 19.717 132.362 19.717 13.122 75 21.593" style="fill: #ffdc76;"/>
            </g>
          </g>
        </g>
        <g style="clip-path: url(#clippath-1);">
          <g>
            <path d="M86.55,30.495c3.795.019,6.025-1.174,7.299-5.094.513-3.686,4.755-4.182,6.459-.794,40.034,55.923-26.985,87.102-51.067,52.489-5.124-7.364-6.924-16.187-5.628-24.8,2.84-18.872,12.901-27.433,26.534-41.551,8.804-9.241,8.495,5.317,8.471,9.855.007,0,.081,9.855,7.932,9.894Z" style="fill: #e8144c;"/>
            <path d="M77.266,75.647c-3.817,0-10.955-1.064-15.909-8.185-2.8-4.025-3.918-9.059-3.148-14.174.754-5.012,2.629-10.002,5.157-14.811,1.64-3.121,5.903-3.751,8.255-1.124,3.34,3.732,8.002,6.084,13.46,6.623.86.087,1.717.132,2.549.132,1.121,0,2.215-.079,3.278-.234,2.468-.36,4.81,1.191,5.577,3.564,2.174,6.723,2.066,12.721-.425,17.568-3.27,6.363-10.821,10.639-18.789,10.641h-.004Z" style="fill: #ebcc34;"/>
          </g>
          <g>
            <rect x="43.822" y="50.327" width="55.696" height="55.696" rx="5.605" ry="5.605" transform="translate(-25.286 35.192) rotate(-23.577)" style="fill: #f2e5da;"/>
            <rect x="41.905" y="45.933" width="55.696" height="55.696" rx="5.605" ry="5.605" transform="translate(-23.688 34.059) rotate(-23.577)" style="fill: #f7f2ed;"/>
            <text transform="translate(61.043 94.218) rotate(-23.577)" style="fill: #72137f; font-family: Montserrat-ExtraBold, Montserrat; font-size: 42.038px; font-weight: 700;"><tspan x="0" y="0">B</tspan></text>
          </g>
        </g>
      </g>
    </g>
  </g>
</svg>