<?xml version="1.0" encoding="UTF-8"?>
<svg xmlns="http://www.w3.org/2000/svg" width="150" height="150" xmlns:xlink="http://www.w3.org/1999/xlink" version="1.1" viewBox="0 0 150 150">
  <!-- Generator: Adobe Illustrator 29.4.0, SVG Export Plug-In . SVG Version: 2.1.0 Build 152)  -->
  <defs>
    <clipPath id="clippath">
      <path d="M120.14,99.237l-39.978,24.392c-3.165,1.931-7.119,1.931-10.284,0l-39.978-24.392c-3.01-1.837-4.852-5.145-4.852-8.715v-55.226c0-5.613,4.475-10.163,9.994-10.163h79.955c5.52,0,9.994,4.55,9.994,10.163v55.226c0,3.57-1.842,6.878-4.852,8.715Z" style="fill: none;"/>
    </clipPath>
    <clipPath id="clippath-1">
      <polygon points="41.04 87.184 41.04 11.162 124.993 11.162 124.993 77.427 75.02 107.917 41.04 87.184" style="fill: none;"/>
    </clipPath>
  </defs>
  <g style="isolation: isolate;">
    <g id="Layer_1">
      <g>
        <g>
          <path d="M120.14,99.237l-39.978,24.392c-3.165,1.931-7.119,1.931-10.284,0l-39.978-24.392c-3.01-1.837-4.852-5.145-4.852-8.715v-55.226c0-5.613,4.475-10.163,9.994-10.163h79.955c5.52,0,9.994,4.55,9.994,10.163v55.226c0,3.57-1.842,6.878-4.852,8.715Z" style="fill: #18e1d6;"/>
          <polygon points="41.04 87.184 41.04 41.258 109.002 41.258 109.002 87.184 75.02 107.917 41.04 87.184" style="fill: #0ac3bd;"/>
          <g style="clip-path: url(#clippath);">
            <rect x="25.048" y="25.133" width="49.972" height="99.944" style="fill: #18e1d6; mix-blend-mode: multiply;"/>
          </g>
        </g>
        <g style="clip-path: url(#clippath-1);">
          <g>
            <g>
              <path d="M59.332,45.613h7.143c9.813,0,17.779,7.967,17.779,17.779v37.815c0,5.97-4.847,10.817-10.817,10.817h-21.068c-5.97,0-10.817-4.847-10.817-10.817v-37.815c0-9.813,7.967-17.779,17.779-17.779Z" transform="translate(-36.954 64.753) rotate(-43.389)" style="fill: #ebdfb7;"/>
              <g>
                <path d="M47.992,107.19h0c3.385-.709,7.34-4.429,6.63-7.814l-6.699-23.185c-.709-3.385-4.059-5.575-7.445-4.866h0c-3.385.709-5.575,4.059-4.866,7.445l3.17,23.924c.709,3.385,5.824,5.205,9.209,4.496Z" style="fill: #ffeed0;"/>
                <path d="M47.253,103.661c1.946-.408,3.962-2.612,3.847-3.508l-6.689-23.148-.016-.076c-.303-1.448-1.728-2.379-3.176-2.076-1.448.303-2.38,1.728-2.077,3.176l.028.152,3.151,23.811c.254.867,2.985,2.077,4.932,1.669Z" style="fill: #eea69b;"/>
              </g>
              <g>
                <path d="M67.781,105.289l-13.802-14.601c-2.945-3.115-2.807-8.027.309-10.972l9.996-9.449c3.115-2.945,8.027-2.807,10.972.309l13.802,14.601c1.556,1.646,1.482,4.266-.164,5.822l-15.29,14.454c-1.646,1.556-4.266,1.482-5.822-.164Z" style="fill: #eea69b;"/>
                <path d="M67.781,105.289l-13.802-14.601c-2.945-3.115-2.807-8.028.309-10.972l9.996-9.449c3.115-2.945,8.027-2.807,10.972.308l13.802,14.601c1.556,1.646,1.482,4.266-.164,5.822l-15.29,14.454c-1.646,1.556-4.266,1.482-5.822-.164Z" style="fill: none; stroke: #ebdfb7; stroke-dasharray: 0 5.345; stroke-linecap: round; stroke-linejoin: round; stroke-width: 5.348px;"/>
              </g>
              <g>
                <path d="M92.067,65.525h0c-.898,3.34-4.834,7.079-8.175,6.181l-22.772-7.991c-3.34-.898-5.338-4.366-4.44-7.706h0c.898-3.34,4.366-5.338,7.706-4.44l23.708,4.509c3.34.898,4.87,6.107,3.972,9.447Z" style="fill: #ffeed0;"/>
                <path d="M88.586,64.589c-.516,1.92-2.83,3.809-3.718,3.644l-22.736-7.979-.075-.02c-1.429-.384-2.279-1.859-1.894-3.288s1.859-2.279,3.288-1.895l.15.037,23.596,4.484c.851.303,1.906,3.097,1.389,5.018Z" style="fill: #eea69b;"/>
              </g>
              <g>
                <circle cx="43.087" cy="62.434" r="1.887"/>
                <circle cx="47.657" cy="58.113" r="1.887"/>
              </g>
              <path d="M42.658,52.163l-1.97.36c-1.37.251-2.464,1.284-2.791,2.638l-.471,1.947c-.227.94.126,1.973.96,2.464,1.092.642,2.451.22,3.009-.858l.184-.356c.42-.811.281-1.799-.347-2.463.628.664,1.606.858,2.44.485l.365-.164c1.108-.497,1.606-1.83,1.026-2.956-.443-.86-1.454-1.271-2.406-1.097Z" style="fill: #eea69b;"/>
            </g>
            <g>
              <path d="M86.977,13.203h7.143c9.813,0,17.779,7.967,17.779,17.779v37.815c0,5.97-4.847,10.817-10.817,10.817h-21.068c-5.97,0-10.817-4.847-10.817-10.817V30.982c0-9.813,7.967-17.779,17.779-17.779Z" transform="translate(-11.199 45.906) rotate(-26.854)" style="fill: #ffeed0;"/>
              <g>
                <path d="M87.691,73.173l-9.076-17.925c-1.936-3.824-.406-8.494,3.419-10.431l12.272-6.213c3.824-1.936,8.494-.406,10.431,3.419l9.076,17.925c1.023,2.021.207,4.512-1.814,5.535l-18.772,9.504c-2.021,1.023-4.512.207-5.535-1.814Z" style="fill: #f5bfb5;"/>
                <path d="M87.691,73.172l-9.076-17.925c-1.936-3.824-.406-8.494,3.419-10.431l12.272-6.213c3.824-1.936,8.494-.406,10.431,3.418l9.076,17.925c1.023,2.021.207,4.511-1.814,5.535l-18.772,9.505c-2.021,1.023-4.512.207-5.535-1.814Z" style="fill: none; stroke: #ffeed0; stroke-dasharray: 0 5.345; stroke-linecap: round; stroke-linejoin: round; stroke-width: 5.348px;"/>
              </g>
              <g>
                <g>
                  <path d="M122.29,41.966h0c-1.812,2.946-6.649,5.41-9.596,3.599l-19.556-14.142c-2.946-1.812-3.875-5.705-2.063-8.651h0c1.812-2.946,5.705-3.875,8.651-2.063l21.444,11.07c2.946,1.812,2.93,7.241,1.119,10.187Z" style="fill: #fff4e6;"/>
                  <path d="M119.219,40.077c-1.042,1.694-3.797,2.846-4.602,2.435l-19.524-14.12-.066-.041c-1.261-.775-1.655-2.431-.88-3.691s2.431-1.656,3.692-.881l.133.078,21.344,11.015c.73.532.945,3.511-.097,5.206Z" style="fill: #f5bfb5;"/>
                </g>
                <g>
                  <path d="M68.179,69.363h0c3.447.284,8.297-2.157,8.58-5.604l.177-24.133c.284-3.447-2.305-6.5-5.752-6.784h0c-3.447-.284-6.5,2.305-6.784,5.752l-3.77,23.837c-.284,3.447,4.102,6.648,7.549,6.931Z" style="fill: #fff4e6;"/>
                  <path d="M68.475,65.77c1.982.163,4.541-1.376,4.686-2.268l.176-24.094.006-.077c.121-1.475-.979-2.773-2.454-2.894-1.475-.121-2.774.979-2.895,2.454l-.016.153-3.756,23.723c-.003.903,2.27,2.84,4.253,3.003Z" style="fill: #f5bfb5;"/>
                </g>
              </g>
              <g>
                <circle cx="76.215" cy="25.061" r="1.887"/>
                <circle cx="81.826" cy="22.22" r="1.887"/>
              </g>
              <path d="M78.727,15.093l-1.991-.215c-1.385-.15-2.727.53-3.426,1.735l-1.005,1.732c-.486.837-.441,1.927.219,2.635.864.926,2.287.909,3.129.034l.278-.289c.634-.658.781-1.645.369-2.46.413.815,1.296,1.28,2.201,1.159l.397-.053c1.204-.161,2.06-1.298,1.825-2.542-.18-.951-1.032-1.632-1.994-1.736Z" style="fill: #f5bfb5;"/>
            </g>
          </g>
        </g>
      </g>
    </g>
  </g>
</svg>