<?xml version="1.0" encoding="UTF-8"?>
<svg xmlns="http://www.w3.org/2000/svg" width="150" height="150" xmlns:xlink="http://www.w3.org/1999/xlink" version="1.1" viewBox="0 0 150 150">
  <!-- Generator: Adobe Illustrator 29.4.0, SVG Export Plug-In . SVG Version: 2.1.0 Build 152)  -->
  <defs>
    <clipPath id="clippath">
      <path d="M120.145,99.222l-40,24.406c-3.167,1.932-7.123,1.932-10.29,0l-40-24.406c-3.012-1.838-4.855-5.148-4.855-8.72v-55.256c0-5.616,4.477-10.169,10-10.169h80c5.523,0,10,4.553,10,10.169v55.256c0,3.572-1.843,6.882-4.855,8.72Z" style="fill: none;"/>
    </clipPath>
    <clipPath id="clippath-1">
      <circle cx="75" cy="49.343" r="38.723" style="fill: none;"/>
    </clipPath>
  </defs>
  <g style="isolation: isolate;">
    <g id="Layer_1">
      <g>
        <g>
          <path d="M120.145,99.222l-40,24.406c-3.167,1.932-7.123,1.932-10.29,0l-40-24.406c-3.012-1.838-4.855-5.148-4.855-8.72v-55.256c0-5.616,4.477-10.169,10-10.169h80c5.523,0,10,4.553,10,10.169v55.256c0,3.572-1.843,6.882-4.855,8.72Z" style="fill: #18e1d6;"/>
          <polygon points="41 87.163 41 41.212 109 41.212 109 87.163 74.999 107.908 41 87.163" style="fill: #0ac3bd;"/>
          <g style="clip-path: url(#clippath);">
            <rect x="25" y="25.077" width="50" height="100" style="fill: #18e1d6; mix-blend-mode: multiply;"/>
          </g>
        </g>
        <g style="clip-path: url(#clippath-1);">
          <circle cx="75" cy="49.343" r="38.723" style="fill: #b5d0dd;"/>
          <circle cx="51.556" cy="28.133" r="19.747" style="fill: #9bbecb;"/>
          <circle cx="58.554" cy="28.629" r="8.399" style="fill: #80a9b7;"/>
          <circle cx="58.554" cy="28.629" r="6.041" style="fill: #6695a2;"/>
          <circle cx="48.393" cy="39.567" r="2.756" style="fill: #80a9b7;"/>
          <circle cx="42.44" cy="46.032" r="1.769" style="fill: #80a9b7;"/>
          <circle cx="82.32" cy="28.983" r="12.658" style="fill: #9bbecb;"/>
          <circle cx="85.418" cy="22.217" r="2.992" style="fill: #80a9b7;"/>
          <circle cx="87.695" cy="46.442" r="9.621" style="fill: #9bbecb;"/>
          <circle cx="83.835" cy="57.558" r="3.769" style="fill: #9bbecb;"/>
          <circle cx="98" cy="55.863" r="5.19" style="fill: #9bbecb;"/>
          <circle cx="104.932" cy="45.047" r="6.033" style="fill: #9bbecb;"/>
          <circle cx="104.932" cy="45.047" r="3.653" style="fill: #80a9b7;"/>
          <circle cx="62.86" cy="72.771" r="8.199" style="fill: #dce7ec;"/>
          <circle cx="60.83" cy="74.942" r="3.2" style="fill: #b5d0dd;"/>
          <circle cx="60.83" cy="74.942" r="1.79" style="fill: #dce7ec;"/>
          <circle cx="95.834" cy="71.469" r="2.419" style="fill: #dce7ec;"/>
          <circle cx="66.628" cy="41.286" r="4.806" style="fill: #9bbecb;"/>
          <circle cx="67.124" cy="53.41" r="8.31" style="fill: #9bbecb;"/>
          <circle cx="66.628" cy="41.286" r="2.419" style="fill: #dce7ec;"/>
          <circle cx="44.582" cy="58.03" r="2.419" style="fill: #dce7ec;"/>
          <circle cx="51.556" cy="53.241" r="3.898" style="fill: #80a9b7;"/>
        </g>
        <g style="mix-blend-mode: soft-light;">
          <path d="M33.789,76.536c.978.312,1.746,1.08,2.058,2.058.056.174.219.291.402.291h0c.183,0,.346-.117.402-.291.312-.978,1.08-1.746,2.058-2.058.174-.056.291-.219.291-.402h0c0-.183-.117-.346-.291-.402-.978-.312-1.746-1.08-2.058-2.058-.056-.174-.219-.291-.402-.291h0c-.183,0-.346.117-.402.291-.312.978-1.08,1.746-2.058,2.058-.174.056-.291.219-.291.402h0c0,.183.117.346.291.402Z" style="fill: #fff; fill-rule: evenodd;"/>
          <path d="M83.101,110.308c.745.237,1.329.822,1.567,1.567.042.133.167.222.306.222h0c.139,0,.264-.089.306-.222.237-.745.822-1.329,1.567-1.567.133-.042.222-.167.222-.306h0c0-.139-.089-.264-.222-.306-.745-.237-1.329-.822-1.567-1.567-.042-.133-.167-.222-.306-.222h0c-.139,0-.264.089-.306.222-.237.745-.822,1.329-1.567,1.567-.133.042-.222.167-.222.306h0c0,.139.089.264.222.306Z" style="fill: #fff; fill-rule: evenodd;"/>
          <path d="M113.019,63.316c.496.158.886.548,1.044,1.044.028.088.111.148.204.148h0c.093,0,.176-.059.204-.148.158-.496.548-.886,1.044-1.044.088-.028.148-.111.148-.204h0c0-.093-.059-.176-.148-.204-.496-.158-.886-.548-1.044-1.044-.028-.088-.111-.148-.204-.148h0c-.093,0-.176.059-.204.148-.158.496-.548.886-1.044,1.044-.088.028-.148.111-.148.204h0c0,.093.059.176.148.204Z" style="fill: #fff; fill-rule: evenodd;"/>
          <path d="M49.532,85.811c.652.208,1.164.72,1.372,1.372.037.116.146.194.268.194h0c.122,0,.231-.078.268-.194.208-.652.72-1.164,1.372-1.372.116-.037.194-.146.194-.268h0c0-.122-.078-.231-.194-.268-.652-.208-1.164-.72-1.372-1.372-.037-.116-.146-.194-.268-.194h0c-.122,0-.231.078-.268.194-.208.652-.72,1.164-1.372,1.372-.116.037-.194.146-.194.268h0c0,.122.078.231.194.268Z" style="fill: #fff; fill-rule: evenodd;"/>
          <path d="M27.664,61.92c.496.158.886.548,1.044,1.044.028.088.111.148.204.148h0c.093,0,.176-.059.204-.148.158-.496.548-.886,1.044-1.044.088-.028.148-.111.148-.204h0c0-.093-.059-.176-.148-.204-.496-.158-.886-.548-1.044-1.044-.028-.088-.111-.148-.204-.148h0c-.093,0-.176.059-.204.148-.158.496-.548.886-1.044,1.044-.088.028-.148.111-.148.204h0c0,.093.059.176.148.204Z" style="fill: #fff; fill-rule: evenodd;"/>
          <path d="M115.668,88.333c.652.208,1.164.72,1.372,1.372.037.116.146.194.268.194h0c.122,0,.231-.078.268-.194.208-.652.72-1.164,1.372-1.372.116-.037.194-.146.194-.268h0c0-.122-.078-.231-.194-.268-.652-.208-1.164-.72-1.372-1.372-.037-.116-.146-.194-.268-.194h0c-.122,0-.231.078-.268.194-.208.652-.72,1.164-1.372,1.372-.116.037-.194.146-.194.268h0c0,.122.078.231.194.268Z" style="fill: #fff; fill-rule: evenodd;"/>
          <path d="M53.297,105.78c.978.312,1.746,1.08,2.058,2.058.056.174.219.291.402.291h0c.183,0,.346-.117.402-.291.312-.978,1.08-1.746,2.058-2.058.174-.056.291-.219.291-.402h0c0-.183-.117-.346-.291-.402-.978-.312-1.746-1.08-2.058-2.058-.056-.174-.219-.291-.402-.291h0c-.183,0-.346.117-.402.291-.312.978-1.08,1.746-2.058,2.058-.174.056-.291.219-.291.402h0c0,.183.117.346.291.402Z" style="fill: #fff; fill-rule: evenodd;"/>
          <path d="M100.011,92.001c.652.208,1.164.72,1.372,1.372.037.116.146.194.268.194h0c.122,0,.231-.078.268-.194.208-.652.72-1.164,1.372-1.372.116-.037.194-.146.194-.268h0c0-.122-.078-.231-.194-.268-.652-.208-1.164-.72-1.372-1.372-.037-.116-.146-.194-.268-.194h0c-.122,0-.231.078-.268.194-.208.652-.72,1.164-1.372,1.372-.116.037-.194.146-.194.268h0c0,.122.078.231.194.268Z" style="fill: #fff; fill-rule: evenodd;"/>
          <path d="M114.663,33.556c.496.158.886.548,1.044,1.044.028.088.111.148.204.148h0c.093,0,.176-.059.204-.148.158-.496.548-.886,1.044-1.044.088-.028.148-.111.148-.204h0c0-.093-.059-.176-.148-.204-.496-.158-.886-.548-1.044-1.044-.028-.088-.111-.148-.204-.148h0c-.093,0-.176.059-.204.148-.158.496-.548.886-1.044,1.044-.088.028-.148.111-.148.204h0c0,.093.059.176.148.204Z" style="fill: #fff; fill-rule: evenodd;"/>
          <path d="M67.743,99.341c.496.158.886.548,1.044,1.044.028.088.111.148.204.148h0c.093,0,.176-.059.204-.148.158-.496.548-.886,1.044-1.044.088-.028.148-.111.148-.204h0c0-.093-.059-.176-.148-.204-.496-.158-.886-.548-1.044-1.044-.028-.088-.111-.148-.204-.148h0c-.093,0-.176.059-.204.148-.158.496-.548.886-1.044,1.044-.088.028-.148.111-.148.204h0c0,.093.059.176.148.204Z" style="fill: #fff; fill-rule: evenodd;"/>
          <path d="M82.329,93.903c.496.158.886.548,1.044,1.044.028.088.111.148.204.148h0c.093,0,.176-.059.204-.148.158-.496.548-.886,1.044-1.044.088-.028.148-.111.148-.204h0c0-.093-.059-.176-.148-.204-.496-.158-.886-.548-1.044-1.044-.028-.088-.111-.148-.204-.148h0c-.093,0-.176.059-.204.148-.158.496-.548.886-1.044,1.044-.088.028-.148.111-.148.204h0c0,.093.059.176.148.204Z" style="fill: #fff; fill-rule: evenodd;"/>
          <path d="M29.301,36.16c1.304.416,2.328,1.44,2.744,2.744.074.232.292.388.536.388h0c.244,0,.462-.156.536-.388.416-1.304,1.44-2.328,2.744-2.744.232-.074.388-.292.388-.536h0c0-.244-.156-.462-.388-.536-1.304-.416-2.328-1.44-2.744-2.744-.074-.232-.292-.388-.536-.388h0c-.244,0-.462.156-.536.388-.416,1.304-1.44,2.328-2.744,2.744-.232.074-.388.292-.388.536h0c0,.244.156.462.388.536Z" style="fill: #fff; fill-rule: evenodd;"/>
        </g>
      </g>
    </g>
  </g>
</svg>