<?xml version="1.0" encoding="UTF-8"?>
<svg xmlns="http://www.w3.org/2000/svg" width="150" height="150" xmlns:xlink="http://www.w3.org/1999/xlink" version="1.1" viewBox="0 0 150 150">
  <!-- Generator: Adobe Illustrator 29.4.0, SVG Export Plug-In . SVG Version: 2.1.0 Build 152)  -->
  <defs>
    <clipPath id="clippath">
      <circle cx="75.152" cy="75.701" r="50" style="fill: none;"/>
    </clipPath>
    <clipPath id="clippath-1">
      <path d="M25.025-112.656l10.18-.231,6.616,2.23c7.092,5.37,10.202,14.864,7.279,23.543-.029.088-.078.312.106.496.053.053.133.133.323.133.061,0,.12-.01.177-.028,2.166-.729,4.422-1.098,6.706-1.098,7.95,0,15.366,4.594,18.895,11.706.041.083.165.275.426.275s.385-.193.425-.273c3.527-7.112,10.944-11.708,18.895-11.708,2.285,0,4.542.37,6.709,1.099.053.018.114.027.174.027.189,0,.27-.081.323-.133.184-.184.135-.408.106-.495-1.315-3.903-1.394-7.967-.455-11.751h8.084l8.372-14.28,6.675-33.534-6.675-37.394-93.343,54.221v17.197Z" style="fill: none;"/>
    </clipPath>
    <clipPath id="clippath-2">
      <path d="M167.852-30.679c5.022,0,9.774,2.206,13.02,6.033,3.246,3.827,4.645,8.888,3.838,13.839-2.511,15.18-5.847,35.407-7.765,47.009-.969,5.796.933,11.697,5.093,15.848v.002c1.166,1.158,1.704,2.801,1.435,4.42-2.403,15.298-14.742,93.53-14.742,93.53h-18.132s5.936-59.711,7.497-75.435c.215-2.197-1.112-4.252-3.21-4.949h0c-13.038-4.339-21.826-16.534-21.826-30.272V-30.679h34.793Z" style="clip-rule: evenodd; fill: none;"/>
    </clipPath>
    <clipPath id="clippath-3">
      <polygon points="60.585 14.684 77.533 150 91.504 150 91.504 14.684 60.585 14.684" style="clip-rule: evenodd; fill: none;"/>
    </clipPath>
    <clipPath id="clippath-4">
      <path d="M105.063,60.328c-14.383,0-28.139-5.869-38.111-16.25-9.954-10.381-15.244-24.375-14.652-38.747,2.044-49.095,4.86-116.952,5.901-141.718.215-5.327,4.609-9.532,9.935-9.532h15.764c5.506,0,9.954,4.453,9.954,9.946v.949-.002c0-7.997,6.475-14.48,14.473-14.48h14.222v2.297c0,5.097-2.026,9.986-5.631,13.587-3.605,3.603-8.501,5.626-13.594,5.621-.807,0-1.596,0-2.332-.002-1.865-.002-3.623.768-4.896,2.123-1.255,1.358-1.901,3.178-1.775,5.025,1.237,17.09,4.34,60.367,5.793,80.675.448,6.105,5.524,10.834,11.639,10.834h64.672c10.833,0,21.163,4.581,28.426,12.61,7.264,8.029,10.797,18.757,9.721,29.532-2.332,23.279-4.771,47.531-4.771,47.531h-104.737Z" style="clip-rule: evenodd; fill: none;"/>
    </clipPath>
    <clipPath id="clippath-5">
      <polygon points="130.261 14.684 113.331 150 99.342 150 99.342 14.684 130.261 14.684" style="clip-rule: evenodd; fill: none;"/>
    </clipPath>
  </defs>
  <g style="isolation: isolate;">
    <g id="Layer_1">
      <g>
        <g>
          <g>
            <circle cx="75.152" cy="75.701" r="50" style="fill: #e4ecff;"/>
            <path d="M75.152,109.701c-18.748,0-34-15.252-34-34s15.252-34,34-34,34,15.252,34,34-15.252,34-34,34Z" style="fill: #819ec0;"/>
          </g>
          <g style="clip-path: url(#clippath);">
            <rect x="25.152" y="25.701" width="50" height="100" style="fill: #e3ebff; mix-blend-mode: multiply;"/>
          </g>
        </g>
        <g>
          <path d="M122.705,42.467c-6.785-8.989-20.064-10.405-29.658-3.163-.321.242-.79.006-.786-.396.104-12.021-8.942-21.844-20.204-21.942-11.262-.097-20.476,9.569-20.58,21.589-.08,9.308,7.915,37.777,11.527,50.15.929,3.181,4.353,4.905,7.461,3.756,12.092-4.467,39.723-14.998,47.152-20.606,9.595-7.242,11.872-20.4,5.087-29.389Z" style="fill: #db1e1e;"/>
          <circle cx="71.488" cy="35.407" r="9.842" style="fill: #fff; mix-blend-mode: soft-light;"/>
        </g>
      </g>
      <g style="clip-path: url(#clippath-1);">
        <g>
          <path d="M167.852-30.679c5.022,0,9.774,2.206,13.02,6.033,3.246,3.827,4.645,8.888,3.838,13.839-2.511,15.18-5.847,35.407-7.765,47.009-.969,5.796.933,11.697,5.093,15.848v.002c1.166,1.158,1.704,2.801,1.435,4.42-2.403,15.298-14.742,93.53-14.742,93.53h-18.132s5.936-59.711,7.497-75.435c.215-2.197-1.112-4.252-3.21-4.949h0c-13.038-4.339-21.826-16.534-21.826-30.272V-30.679h34.793Z" style="fill: #e68952; fill-rule: evenodd;"/>
          <g style="clip-path: url(#clippath-2);">
            <rect x="147.209" y="141.055" width="23.722" height="8.945" style="fill: #270228;"/>
          </g>
          <polygon points="60.585 14.684 77.533 150 91.504 150 91.504 14.684 60.585 14.684" style="fill: #e68952; fill-rule: evenodd;"/>
          <g style="clip-path: url(#clippath-3);">
            <rect x="72.655" y="141.055" width="20.333" height="8.945" style="fill: #270228;"/>
          </g>
          <path d="M105.063,60.328c-14.383,0-28.139-5.869-38.111-16.25-9.954-10.381-15.244-24.375-14.652-38.747,2.044-49.095,4.86-116.952,5.901-141.718.215-5.327,4.609-9.532,9.935-9.532h15.764c5.506,0,9.954,4.453,9.954,9.946v.949-.002c0-7.997,6.475-14.48,14.473-14.48h14.222v2.297c0,5.097-2.026,9.986-5.631,13.587-3.605,3.603-8.501,5.626-13.594,5.621-.807,0-1.596,0-2.332-.002-1.865-.002-3.623.768-4.896,2.123-1.255,1.358-1.901,3.178-1.775,5.025,1.237,17.09,4.34,60.367,5.793,80.675.448,6.105,5.524,10.834,11.639,10.834h64.672c10.833,0,21.163,4.581,28.426,12.61,7.264,8.029,10.797,18.757,9.721,29.532-2.332,23.279-4.771,47.531-4.771,47.531h-104.737Z" style="fill: #f8d6bf; fill-rule: evenodd;"/>
          <g style="clip-path: url(#clippath-4);">
            <path d="M125.347,49.287c-30.399-.437-54.808-25.202-54.808-55.601v-113.91l-18.723-4.229c3.443-21.096,21.396-36.764,42.773-37.313,15.011-.387,28.893-.744,28.893-.744v27.908l-7.766,96.414h74.374c11.729,0,22.813,5.37,30.076,14.575,7.264,9.205,9.918,21.231,7.21,32.64-5.075,21.224-9.936,41.586-9.936,41.586,0,0-50.342-.725-92.093-1.326Z" style="fill: #f7a06c; fill-rule: evenodd;"/>
          </g>
          <polygon points="130.261 14.684 113.331 150 99.342 150 99.342 14.684 130.261 14.684" style="fill: #f7a06c; fill-rule: evenodd;"/>
          <g style="clip-path: url(#clippath-5);">
            <rect x="94.482" y="141.055" width="20.333" height="8.945" style="fill: #270228;"/>
          </g>
        </g>
      </g>
    </g>
  </g>
</svg>