<?xml version="1.0" encoding="UTF-8"?>
<svg xmlns="http://www.w3.org/2000/svg" width="150" height="150" xmlns:xlink="http://www.w3.org/1999/xlink" version="1.1" viewBox="0 0 150 150">
  <!-- Generator: Adobe Illustrator 29.4.0, SVG Export Plug-In . SVG Version: 2.1.0 Build 152)  -->
  <defs>
    <clipPath id="clippath">
      <path d="M107.811,28.381c-1.937-2.165-4.707-3.403-7.614-3.403h-50.394c-2.907,0-5.676,1.238-7.614,3.403l-14.591,16.307c-2.286,2.555-3.136,6.086-2.262,9.399l11.808,44.782c.639,2.423,2.147,4.526,4.238,5.909l27.98,18.505c3.418,2.26,7.857,2.26,11.274,0l27.98-18.505c2.091-1.383,3.6-3.486,4.238-5.909l11.808-44.782c.874-3.314.024-6.845-2.262-9.399l-14.591-16.307Z" style="fill: none;"/>
    </clipPath>
  </defs>
  <g style="isolation: isolate;">
    <g id="Layer_1">
      <g>
        <path d="M107.747,28.31c-1.897-2.12-4.607-3.332-7.452-3.332h-50.589c-2.845,0-5.555,1.212-7.452,3.332l-14.726,16.458c-2.241,2.505-3.074,5.968-2.217,9.218l11.854,44.958c.626,2.375,2.105,4.436,4.153,5.791l28.166,18.628c3.345,2.212,7.688,2.212,11.033,0l28.166-18.628c2.049-1.355,3.527-3.416,4.153-5.791l11.854-44.958c.857-3.25.024-6.713-2.217-9.218l-14.726-16.458Z" style="fill: #e4ecff;"/>
        <polygon points="52.068 92.656 41.618 53.027 52.399 40.978 97.601 40.978 108.382 53.027 97.933 92.656 75 107.823 52.068 92.656" style="fill: #acc0dc;"/>
        <path d="M71.254,73.932c.911-1.346,2.237-2.827,3.977-4.443,1.201-1.118,2.092-2.06,2.672-2.827.58-.766.87-1.585.87-2.455,0-1.201-.508-2.165-1.522-2.89-1.016-.724-2.331-1.087-3.946-1.087-1.657,0-3.159.394-4.505,1.181-.868.507-1.628,1.143-2.28,1.908-.647.758-1.717.991-2.595.52l-5.612-3.013c-1.125-.604-1.466-2.086-.676-3.089,1.545-1.961,3.495-3.554,5.849-4.778,3.107-1.616,6.856-2.424,11.248-2.424,4.93,0,8.896,1.025,11.901,3.076,3.003,2.051,4.505,4.92,4.505,8.607,0,1.699-.29,3.2-.87,4.505-.581,1.305-1.274,2.403-2.082,3.294-.808.891-1.855,1.895-3.138,3.014-1.409,1.202-2.445,2.228-3.107,3.076-.348.446-.605.929-.77,1.449-.28.882-1.07,1.502-1.996,1.502h-6.989c-1.341,0-2.333-1.253-2.028-2.559.225-.967.59-1.823,1.094-2.568ZM70.384,93.57c-1.326-1.263-1.989-2.806-1.989-4.63,0-1.864.653-3.397,1.958-4.599,1.305-1.201,2.993-1.802,5.065-1.802s3.769.601,5.096,1.802c1.325,1.202,1.989,2.734,1.989,4.599,0,1.824-.663,3.367-1.989,4.63-1.327,1.265-3.025,1.895-5.096,1.895-2.03,0-3.708-.631-5.034-1.895Z" style="fill: #e4ecff;"/>
        <g style="mix-blend-mode: multiply;">
          <g style="clip-path: url(#clippath);">
            <polygon points="75 18.333 75 156.468 19.717 129.102 19.717 9.862 75 18.333" style="fill: #e3ebff;"/>
          </g>
        </g>
      </g>
    </g>
  </g>
</svg>