<?xml version="1.0" encoding="UTF-8"?>
<svg xmlns="http://www.w3.org/2000/svg" width="150" height="150" xmlns:xlink="http://www.w3.org/1999/xlink" version="1.1" viewBox="0 0 150 150">
  <!-- Generator: Adobe Illustrator 29.4.0, SVG Export Plug-In . SVG Version: 2.1.0 Build 152)  -->
  <defs>
    <clipPath id="clippath">
      <path d="M119.64,95.434v-40.01c0-3.569-1.904-6.867-4.995-8.652l-34.65-20.005c-3.091-1.785-6.899-1.785-9.99,0l-34.65,20.005c-3.091,1.785-4.995,5.083-4.995,8.652v40.01c0,3.569,1.904,6.867,4.995,8.652l34.65,20.005c3.091,1.785,6.899,1.785,9.99,0l34.65-20.005c3.091-1.785,4.995-5.083,4.995-8.652Z" style="fill: none;"/>
    </clipPath>
    <clipPath id="clippath-1">
      <path d="M119.64,24.571H30.36v51.218h16.494v13.127c0,1.784.955,3.431,2.503,4.317l23.171,13.265c1.531.877,3.412.877,4.943,0l23.171-13.266c1.548-.886,2.503-2.533,2.503-4.317v-13.127h16.494V24.571Z" style="fill: none;"/>
    </clipPath>
    <clipPath id="clippath-2">
      <path d="M53.744,32.818h42.512c2.394,0,4.335,1.941,4.335,4.335v29.777c0,6.787-2.696,13.296-7.496,18.095-4.799,4.799-11.308,7.496-18.096,7.496h0c-6.787,0-13.297-2.696-18.096-7.496-4.799-4.799-7.496-11.308-7.496-18.095v-29.777c0-2.394,1.941-4.335,4.335-4.335Z" style="clip-rule: evenodd; fill: none;"/>
    </clipPath>
  </defs>
  <g style="isolation: isolate;">
    <g id="Layer_1">
      <g>
        <g>
          <path d="M119.64,95.434v-40.01c0-3.569-1.904-6.867-4.995-8.652l-34.65-20.005c-3.091-1.785-6.899-1.785-9.99,0l-34.65,20.005c-3.091,1.785-4.995,5.083-4.995,8.652v40.01c0,3.569,1.904,6.867,4.995,8.652l34.65,20.005c3.091,1.785,6.899,1.785,9.99,0l34.65-20.005c3.091-1.785,4.995-5.083,4.995-8.652Z" style="fill: #0280d3;"/>
          <path d="M46.855,88.795v-26.732c0-1.785.952-3.434,2.498-4.326l23.15-13.365c1.545-.892,3.449-.892,4.995,0l23.151,13.365c1.546.892,2.498,2.541,2.498,4.326v26.732c0,1.785-.952,3.434-2.498,4.326l-23.151,13.365c-1.545.892-3.449.892-4.995,0l-23.15-13.365c-1.546-.892-2.498-2.541-2.498-4.326Z" style="fill: #144aa0;"/>
          <g style="clip-path: url(#clippath);">
            <rect x="25.049" y="25.479" width="49.951" height="99.901" style="fill: #18e1d6; mix-blend-mode: multiply;"/>
          </g>
        </g>
        <g style="clip-path: url(#clippath-1);">
          <g>
            <g>
              <path d="M50.812,39.077c-9.786,0-17.719,7.933-17.719,17.719s7.939,17.719,17.719,17.719c2.038,0,4.061-.351,5.98-1.04l-2.385-6.65c-1.154.414-2.37.625-3.595.625-5.88,0-10.654-4.774-10.654-10.654s4.77-10.654,10.654-10.654v-7.065Z" style="fill: #f4ae00; fill-rule: evenodd;"/>
              <path d="M99.188,39.077c9.786,0,17.719,7.933,17.719,17.719s-7.939,17.719-17.719,17.719c-2.038,0-4.061-.351-5.98-1.04l2.385-6.65c1.154.414,2.37.625,3.595.625,5.88,0,10.654-4.774,10.654-10.654s-4.77-10.654-10.654-10.654v-7.065Z" style="fill: #f4ae00; fill-rule: evenodd;"/>
            </g>
            <path d="M93.096,85.025c4.799-4.799,7.496-11.308,7.496-18.095v-29.777c0-2.394-1.941-4.335-4.335-4.335h-42.512c-2.394,0-4.335,1.941-4.335,4.335v29.777c0,6.787,2.696,13.296,7.496,18.095,3.574,3.574,8.098,5.98,12.978,6.976v8.954h-6.976c-.126,0-.251.019-.371.057l-7.136,2.23c-.519.162-.872.643-.872,1.187v5.52c0,.687.557,1.243,1.243,1.243h38.46c.687,0,1.243-.557,1.243-1.243v-5.52c0-.544-.353-1.024-.872-1.187l-7.136-2.23c-.12-.038-.245-.057-.371-.057h-6.976v-8.954c4.88-.996,9.403-3.402,12.978-6.976Z" style="fill: #f0ce00; fill-rule: evenodd;"/>
            <g style="mix-blend-mode: soft-light;">
              <g style="clip-path: url(#clippath-2);">
                <path d="M92.563,31.402h-9.592v36.25c0,2.649,2.147,4.796,4.796,4.796s4.796-2.147,4.796-4.796V31.402Z" style="fill: #ffe89d; fill-rule: evenodd; opacity: .6;"/>
              </g>
            </g>
            <path d="M79.959,46.132v26.648c0,.958-.776,1.734-1.734,1.734h-5.05c-.958,0-1.734-.776-1.734-1.734v-21.8h-3.859c-.958,0-1.734-.776-1.734-1.734v-3.114c0-.958.776-1.734,1.734-1.734h10.643c.958,0,1.734.776,1.734,1.734Z" style="fill: #ff880f;"/>
          </g>
        </g>
      </g>
    </g>
  </g>
</svg>