<?xml version="1.0" encoding="UTF-8"?>
<svg xmlns="http://www.w3.org/2000/svg" width="150" height="150" xmlns:xlink="http://www.w3.org/1999/xlink" version="1.1" viewBox="0 0 150 150">
  <!-- Generator: Adobe Illustrator 29.4.0, SVG Export Plug-In . SVG Version: 2.1.0 Build 152)  -->
  <defs>
    <clipPath id="clippath">
      <path d="M119.981,59.592c-2.225-1.104-3.308-3.716-2.515-6.071,1.944-5.772.625-12.396-3.974-16.996h0c-4.599-4.6-11.224-5.918-16.996-3.975-2.354.793-4.967-.289-6.071-2.515-2.707-5.456-8.324-9.208-14.828-9.208s-12.121,3.752-14.828,9.208c-1.104,2.225-3.716,3.307-6.071,2.515-5.772-1.944-12.397-.625-16.996,3.974h0c-4.599,4.6-5.918,11.224-3.974,16.996.793,2.354-.289,4.967-2.515,6.071-5.456,2.707-9.208,8.324-9.208,14.828h0c0,6.505,3.752,12.121,9.208,14.828,2.225,1.104,3.307,3.716,2.515,6.071-1.944,5.772-.625,12.397,3.974,16.996,4.6,4.599,11.224,5.918,16.996,3.974,2.354-.793,4.967.289,6.071,2.515,2.707,5.456,8.324,9.208,14.828,9.208s12.121-3.752,14.828-9.208c1.104-2.225,3.716-3.308,6.071-2.515,5.772,1.944,12.397.625,16.996-3.974s5.918-11.224,3.974-16.996c-.793-2.354.289-4.967,2.515-6.071,5.456-2.707,9.208-8.324,9.208-14.828h0c0-6.505-3.752-12.121-9.208-14.828Z" style="fill: none;"/>
    </clipPath>
    <clipPath id="clippath-1">
      <path d="M33.244,9.744l-1.955,18.244,7.07,3.131v42.875s0,0,0,0c-.083.042-.276.165-.276.426s.193.385.276.427c9.391,4.66,13.951,15.667,10.605,25.604-.029.088-.078.312.106.496.053.053.134.133.323.133.061,0,.12-.01.177-.028,2.166-.729,4.422-1.098,6.706-1.098,7.95,0,15.366,4.594,18.895,11.705.041.083.165.275.426.275s.385-.193.425-.273c3.527-7.112,10.944-11.707,18.895-11.707,2.285,0,4.542.369,6.709,1.099.053.018.114.027.174.027.189,0,.27-.081.323-.133.184-.184.135-.408.106-.495-3.347-9.936,1.212-20.942,10.604-25.604h.555l3.747-38.513,5.963-32.333-89.854,5.743Z" style="fill: none;"/>
    </clipPath>
    <clipPath id="clippath-2">
      <line x1="99.347" y1="104.022" x2="110.079" y2="93.29" style="fill: none;"/>
    </clipPath>
    <clipPath id="clippath-3">
      <path d="M111.658,96.874c0-1.471-.584-2.882-1.624-3.922-1.04-1.04-2.451-1.624-3.922-1.624H39.067c-2.706,0-4.901,2.194-4.901,4.901v28.424c0,2.778,1.104,5.442,3.068,7.407,1.965,1.964,4.629,3.068,7.407,3.068h67.017v-38.254Z" style="clip-rule: evenodd; fill: none;"/>
    </clipPath>
    <clipPath id="clippath-4">
      <path d="M111.658,96.229c0-1.3-.516-2.546-1.435-3.465-.919-.919-2.165-1.435-3.465-1.436-7.772,0-22.053,0-22.053,0v29.169c0,3.88,1.542,7.602,4.286,10.346,2.744,2.744,6.465,4.286,10.346,4.286h12.323v-38.899Z" style="clip-rule: evenodd; fill: none;"/>
    </clipPath>
    <clipPath id="clippath-5">
      <rect x="77.966" y="39.105" width="23.585" height="52.223" style="fill: none;"/>
    </clipPath>
  </defs>
  <g style="isolation: isolate;">
    <g id="Layer_1">
      <g>
        <g style="clip-path: url(#clippath);">
          <path d="M119.981,59.592c-2.225-1.104-3.308-3.716-2.515-6.071,1.944-5.772.625-12.396-3.974-16.996h0c-4.599-4.6-11.224-5.918-16.996-3.975-2.354.793-4.967-.289-6.071-2.515-2.707-5.456-8.324-9.208-14.828-9.208s-12.121,3.752-14.828,9.208c-1.104,2.225-3.716,3.307-6.071,2.515-5.772-1.944-12.397-.625-16.996,3.974h0c-4.599,4.6-5.918,11.224-3.974,16.996.793,2.354-.289,4.967-2.515,6.071-5.456,2.707-9.208,8.324-9.208,14.828h0c0,6.505,3.752,12.121,9.208,14.828,2.225,1.104,3.307,3.716,2.515,6.071-1.944,5.772-.625,12.397,3.974,16.996,4.6,4.599,11.224,5.918,16.996,3.974,2.354-.793,4.967.289,6.071,2.515,2.707,5.456,8.324,9.208,14.828,9.208s12.121-3.752,14.828-9.208c1.104-2.225,3.716-3.308,6.071-2.515,5.772,1.944,12.397.625,16.996-3.974s5.918-11.224,3.974-16.996c-.793-2.354.289-4.967,2.515-6.071,5.456-2.707,9.208-8.324,9.208-14.828h0c0-6.505-3.752-12.121-9.208-14.828Z" style="fill: #dd1d68;"/>
          <path d="M75.597,111.934c-.261,0-.385-.193-.426-.275-3.529-7.111-10.945-11.705-18.895-11.705-2.284,0-4.541.369-6.706,1.098-.057.019-.116.028-.177.028-.189,0-.27-.08-.323-.133-.184-.184-.136-.408-.106-.496,3.346-9.936-1.214-20.944-10.605-25.604-.084-.042-.276-.165-.276-.427s.193-.384.276-.426c9.393-4.661,13.952-15.668,10.605-25.605-.029-.087-.078-.311.106-.495.055-.054.135-.134.323-.134.061,0,.12.009.173.027,2.166.73,4.425,1.1,6.712,1.1,7.949-.001,15.364-4.595,18.892-11.704.042-.084.166-.277.427-.277s.385.194.426.276c3.527,7.11,10.943,11.705,18.894,11.705,2.287-.001,4.546-.371,6.714-1.101.049-.017.109-.026.17-.026.19,0,.271.081.324.134.184.183.135.408.105.496-3.347,9.935,1.212,20.943,10.604,25.604.085.042.277.165.277.426s-.193.385-.276.426c-9.394,4.662-13.953,15.669-10.606,25.606.029.087.078.311-.106.495-.053.052-.133.133-.323.133-.061,0-.121-.009-.174-.027-2.168-.73-4.424-1.099-6.709-1.099-7.951,0-15.368,4.595-18.895,11.707-.04.081-.164.273-.425.273Z" style="fill: #b50859;"/>
          <rect x="22.005" y="20.829" width="53.592" height="107.183" style="fill: #d2deef; mix-blend-mode: multiply;"/>
        </g>
        <g style="clip-path: url(#clippath-1);">
          <g>
            <g style="clip-path: url(#clippath-2);">
              <polygon points="110.079 90.419 110.148 117.306 118.597 125.413 118.528 98.526 110.079 90.419" style="fill: #413d67; fill-rule: evenodd;"/>
            </g>
            <path d="M111.658,96.874c0-1.471-.584-2.882-1.624-3.922-1.04-1.04-2.451-1.624-3.922-1.624H39.067c-2.706,0-4.901,2.194-4.901,4.901v28.424c0,2.778,1.104,5.442,3.068,7.407,1.965,1.964,4.629,3.068,7.407,3.068h67.017v-38.254Z" style="fill: #e6ddeb; fill-rule: evenodd;"/>
            <g style="clip-path: url(#clippath-3);">
              <rect x="34.166" y="128.389" width="80.862" height="11.792" style="fill: #fff;"/>
              <path d="M81.889,91.328v31.469c0,7.74,6.275,14.015,14.015,14.015h1.146" style="fill: none; mix-blend-mode: multiply; opacity: .349; stroke: #9c92c7; stroke-linejoin: round; stroke-width: 1.307px;"/>
              <path d="M37.087,91.328v31.469c0,7.74,6.275,14.015,14.015,14.015h1.146" style="fill: none; mix-blend-mode: multiply; opacity: .349; stroke: #9c92c7; stroke-linejoin: round; stroke-width: 1.307px;"/>
            </g>
            <path d="M111.658,96.229c0-1.3-.516-2.546-1.435-3.465-.919-.919-2.165-1.435-3.465-1.436-7.772,0-22.053,0-22.053,0v29.169c0,3.88,1.542,7.602,4.286,10.346,2.744,2.744,6.465,4.286,10.346,4.286h12.323v-38.899Z" style="fill: #b6aad2; fill-rule: evenodd;"/>
            <g style="clip-path: url(#clippath-4);">
              <rect x="61.045" y="85.434" width="53.534" height="24.204" transform="translate(-43.249 90.661) rotate(-45.001)" style="fill: #9c92c7;"/>
            </g>
            <path d="M54.382,91.328v31.469c0,7.74,6.275,14.015,14.015,14.015h2.831" style="fill: none; mix-blend-mode: multiply; opacity: .349; stroke: #9c92c7; stroke-linejoin: round; stroke-width: 1.307px;"/>
            <rect x="47.691" y="105.984" width="13.477" height="13.47" rx="6.735" ry="6.735" style="fill: #28102b;"/>
            <path d="M58.843,112.719c0-1.167-.464-2.285-1.289-3.11s-1.944-1.289-3.11-1.289h-.028c-1.167,0-2.286.464-3.111,1.289-.825.825-1.288,1.944-1.288,3.11s.463,2.286,1.288,3.111c.825.825,1.944,1.288,3.111,1.288h.028c1.167,0,2.285-.463,3.11-1.288.825-.825,1.289-1.944,1.289-3.111Z" style="fill: none; stroke: #9cc419; stroke-linecap: round; stroke-linejoin: round; stroke-width: 1.634px;"/>
            <rect x="47.643" y="39.105" width="53.908" height="52.223" style="fill: #e6ddeb;"/>
            <rect x="51.012" y="39.105" width="10.108" height="48.854" style="fill: #f6f0ff;"/>
            <rect x="77.966" y="39.105" width="23.585" height="52.223" style="fill: #ccb7d9;"/>
            <g style="clip-path: url(#clippath-5);">
              <line x1="98.182" y1="39.105" x2="98.182" y2="98.781" style="fill: none; mix-blend-mode: multiply; opacity: .349; stroke: #9c92c7; stroke-linejoin: round; stroke-width: 1.307px;"/>
            </g>
            <rect x="47.643" y="87.959" width="53.908" height="3.369" style="fill: #6b638c;"/>
            <rect x="56.908" y="28.997" width="35.377" height="10.108" style="fill: #6b638c;"/>
            <rect x="56.908" y="28.997" width="35.377" height="4.441" style="fill: #413d67;"/>
            <rect x="67.016" y="-17.748" width="15.162" height="82.546" transform="translate(44.058 95.536) rotate(-84.522)" style="fill: #e6ddeb;"/>
            <rect x="103.856" y="22.794" width="15.162" height="8.528" transform="translate(73.865 135.403) rotate(-84.522)" style="fill: #ccb7d9;"/>
            <rect x="63.662" y="1.303" width="15.162" height="43.8" transform="translate(41.345 91.906) rotate(-84.522)" style="fill: #f6f0ff;"/>
            <rect x="111.304" y="30.99" width="6.225" height="1.685" transform="translate(71.807 142.688) rotate(-84.522)" style="fill: #b19cc9;"/>
            <rect x="45.959" y="135.128" width="57.274" height="5.054" style="fill: #413d67;"/>
            <g>
              <circle cx="60.262" cy="22.107" r="2.343" style="fill: #6b638c;"/>
              <g>
                <rect x="84.032" y="22.904" width="3.992" height="1.779" rx=".889" ry=".889" transform="translate(4.526 60.186) rotate(-39.522)" style="fill: #413d67;"/>
                <rect x="83.882" y="24.466" width="3.992" height="1.779" rx=".889" ry=".889" transform="translate(120.97 107.736) rotate(-129.522)" style="fill: #413d67;"/>
                <rect x="84.278" y="23.779" width="5.371" height="1.779" rx=".889" ry=".889" transform="translate(2.752 -8.189) rotate(5.478)" style="fill: #6b638c;"/>
              </g>
              <path d="M76.667,23.332c-1.798,1.483-4.458,1.228-5.941-.57" style="fill: none; fill-rule: evenodd; stroke: #b19cc9; stroke-linecap: round; stroke-linejoin: round; stroke-width: 1.968px;"/>
            </g>
          </g>
        </g>
      </g>
    </g>
  </g>
</svg>