<?xml version="1.0" encoding="UTF-8"?>
<svg xmlns="http://www.w3.org/2000/svg" width="150" height="150" xmlns:xlink="http://www.w3.org/1999/xlink" version="1.1" viewBox="0 0 150 150">
  <!-- Generator: Adobe Illustrator 29.4.0, SVG Export Plug-In . SVG Version: 2.1.0 Build 152)  -->
  <defs>
    <clipPath id="clippath">
      <path d="M119.561,59.592c-2.225-1.104-3.308-3.716-2.515-6.071,1.944-5.772.625-12.396-3.974-16.996h0c-4.599-4.6-11.224-5.918-16.996-3.975-2.354.793-4.967-.289-6.071-2.515-2.707-5.456-8.324-9.208-14.828-9.208s-12.121,3.752-14.828,9.208c-1.104,2.225-3.716,3.307-6.071,2.515-5.772-1.944-12.397-.625-16.996,3.974h0c-4.599,4.6-5.918,11.224-3.974,16.996.793,2.354-.289,4.967-2.515,6.071-5.456,2.707-9.208,8.324-9.208,14.828h0c0,6.505,3.752,12.121,9.208,14.828,2.225,1.104,3.307,3.716,2.515,6.071-1.944,5.772-.625,12.397,3.974,16.996,4.6,4.599,11.224,5.918,16.996,3.974,2.354-.793,4.967.289,6.071,2.515,2.707,5.456,8.324,9.208,14.828,9.208s12.121-3.752,14.828-9.208c1.104-2.225,3.716-3.308,6.071-2.515,5.772,1.944,12.397.625,16.996-3.974,4.599-4.599,5.918-11.224,3.974-16.996-.793-2.354.289-4.967,2.515-6.071,5.456-2.707,9.208-8.324,9.208-14.828h0c0-6.505-3.752-12.121-9.208-14.828Z" style="fill: none;"/>
    </clipPath>
    <clipPath id="clippath-1">
      <rect x="92.104" y="77.439" width="19.527" height="19.527" style="fill: none;"/>
    </clipPath>
    <clipPath id="clippath-2">
      <circle cx="101.867" cy="87.202" r="9.764" style="fill: none;"/>
    </clipPath>
    <clipPath id="clippath-3">
      <circle cx="71.123" cy="47.925" r="32.916" style="fill: none;"/>
    </clipPath>
    <clipPath id="clippath-4">
      <path d="M101.719,35.786c6.704,16.898-1.559,36.031-18.457,42.735s-36.031-1.559-42.735-18.457c20.137.785,40.039-7.358,61.192-24.278Z" style="fill: none;"/>
    </clipPath>
    <clipPath id="clippath-5">
      <rect x="69.491" y="84.581" width="16.536" height="16.536" style="fill: none;"/>
    </clipPath>
    <clipPath id="clippath-6">
      <circle cx="77.759" cy="92.849" r="8.268" style="fill: none;"/>
    </clipPath>
  </defs>
  <g style="isolation: isolate;">
    <g id="Layer_1">
      <g>
        <g style="clip-path: url(#clippath);">
          <path d="M119.561,59.592c-2.225-1.104-3.308-3.716-2.515-6.071,1.944-5.772.625-12.396-3.974-16.996h0c-4.599-4.6-11.224-5.918-16.996-3.975-2.354.793-4.967-.289-6.071-2.515-2.707-5.456-8.324-9.208-14.828-9.208s-12.121,3.752-14.828,9.208c-1.104,2.225-3.716,3.307-6.071,2.515-5.772-1.944-12.397-.625-16.996,3.974h0c-4.599,4.6-5.918,11.224-3.974,16.996.793,2.354-.289,4.967-2.515,6.071-5.456,2.707-9.208,8.324-9.208,14.828h0c0,6.505,3.752,12.121,9.208,14.828,2.225,1.104,3.307,3.716,2.515,6.071-1.944,5.772-.625,12.397,3.974,16.996,4.6,4.599,11.224,5.918,16.996,3.974,2.354-.793,4.967.289,6.071,2.515,2.707,5.456,8.324,9.208,14.828,9.208s12.121-3.752,14.828-9.208c1.104-2.225,3.716-3.308,6.071-2.515,5.772,1.944,12.397.625,16.996-3.974,4.599-4.599,5.918-11.224,3.974-16.996-.793-2.354.289-4.967,2.515-6.071,5.456-2.707,9.208-8.324,9.208-14.828h0c0-6.505-3.752-12.121-9.208-14.828Z" style="fill: #dd1d68;"/>
          <path d="M75.178,111.934c-.261,0-.385-.193-.426-.275-3.529-7.111-10.945-11.705-18.895-11.705-2.284,0-4.541.369-6.706,1.098-.057.019-.116.028-.177.028-.189,0-.27-.08-.323-.133-.184-.184-.136-.408-.106-.496,3.346-9.936-1.214-20.944-10.605-25.604-.084-.042-.276-.165-.276-.427s.193-.384.276-.426c9.393-4.661,13.952-15.668,10.605-25.605-.029-.087-.078-.311.106-.495.055-.054.135-.134.323-.134.061,0,.12.009.173.027,2.166.73,4.425,1.1,6.712,1.1,7.949-.001,15.364-4.595,18.892-11.704.042-.084.166-.277.427-.277s.385.194.426.276c3.527,7.11,10.943,11.705,18.894,11.705,2.287-.001,4.546-.371,6.714-1.101.049-.017.109-.026.17-.026.19,0,.271.081.324.134.184.183.135.408.105.496-3.347,9.935,1.212,20.943,10.604,25.604.085.042.277.165.277.426s-.193.385-.276.426c-9.394,4.662-13.953,15.669-10.606,25.606.029.087.078.311-.106.495-.053.052-.133.133-.323.133-.061,0-.121-.009-.174-.027-2.168-.73-4.424-1.099-6.709-1.099-7.951,0-15.368,4.595-18.895,11.707-.04.081-.164.273-.425.273Z" style="fill: #b50859;"/>
          <rect x="21.586" y="20.829" width="53.592" height="107.183" style="fill: #d2deef; mix-blend-mode: multiply;"/>
        </g>
        <g style="clip-path: url(#clippath-1);">
          <circle cx="101.867" cy="87.202" r="9.764" style="fill: #e6c6a2;"/>
          <g style="clip-path: url(#clippath-2);">
            <polygon points="111.631 96.966 92.104 77.439 92.104 96.966 111.631 96.966" style="fill: #dfc46d; fill-rule: evenodd; mix-blend-mode: multiply; opacity: .243;"/>
            <circle cx="109.447" cy="81.052" r="4.27" style="fill: #c39f7c;"/>
            <circle cx="99.375" cy="83.957" r="2.05" style="fill: #c39f7c;"/>
            <circle cx="96.931" cy="90.256" r="1.527" style="fill: #c39f7c;"/>
            <circle cx="103.447" cy="95.631" r="2.782" style="fill: #c39f7c;"/>
          </g>
        </g>
        <g>
          <g>
            <path d="M66.209,35.538c-33.539,13.307-58.026,30.906-54.692,39.308,3.334,8.403,33.225,4.427,66.764-8.88,33.539-13.307,58.026-30.906,54.692-39.308-3.334-8.402-33.225-4.427-66.764,8.88ZM76.235,60.808c-22.168,8.795-41.925,11.423-44.128,5.869-2.203-5.554,13.981-17.186,36.149-25.981,22.168-8.795,41.925-11.423,44.128-5.869,2.203,5.554-13.981,17.186-36.149,25.981Z" style="fill: #ffd0a1;"/>
            <ellipse cx="72.359" cy="51.038" rx="51.817" ry="13.289" transform="translate(-13.722 30.282) rotate(-21.641)" style="fill: none; stroke: #f6a75f; stroke-miterlimit: 10; stroke-width: 2.024px;"/>
          </g>
          <g style="clip-path: url(#clippath-3);">
            <circle cx="71.123" cy="47.925" r="32.916" style="fill: #f6dfae;"/>
            <rect x="29.649" y="24.666" width="67.902" height="7.33" transform="translate(-5.965 25.452) rotate(-21.641)" style="fill: #f6ba7a;"/>
            <rect x="34.467" y="34.17" width="67.902" height="12.612" transform="translate(-10.104 28.085) rotate(-21.641)" style="fill: #f6ba7a;"/>
            <rect x="42.23" y="54.84" width="67.902" height="10.4" transform="translate(-16.773 32.326) rotate(-21.641)" style="fill: #f6ba7a;"/>
            <polygon points="32.083 37.372 102.968 67.987 92.647 91.886 49.931 108.833 23.728 42.79 32.083 37.372" style="fill: #ffc78c; mix-blend-mode: multiply; opacity: .4;"/>
          </g>
          <g style="clip-path: url(#clippath-4);">
            <g>
              <path d="M79.191,68.259c-30.308,12.025-64.054,18.425-68.063,8.319-4.009-10.105,24.945-28.581,55.253-40.606,30.308-12.025,64.053-18.425,68.062-8.32,4.009,10.106-24.944,28.582-55.252,40.607ZM69.165,42.989c-23.107,9.168-37.301,20.366-35.588,24.683,1.712,4.316,19.724,2.738,42.83-6.43,23.106-9.167,37.3-20.366,35.588-24.683s-19.724-2.738-42.83,6.43Z" style="fill: #ffc78c; mix-blend-mode: multiply; opacity: .65;"/>
              <path d="M66.209,35.538c-33.539,13.307-58.026,30.906-54.692,39.308,3.334,8.403,33.225,4.427,66.764-8.88,33.539-13.307,58.026-30.906,54.692-39.308-3.334-8.402-33.225-4.427-66.764,8.88ZM76.235,60.808c-22.168,8.795-41.925,11.423-44.128,5.869-2.203-5.554,13.981-17.186,36.149-25.981,22.168-8.795,41.925-11.423,44.128-5.869,2.203,5.554-13.981,17.186-36.149,25.981Z" style="fill: #ffd0a1;"/>
              <ellipse cx="72.359" cy="51.038" rx="51.817" ry="13.289" transform="translate(-13.722 30.282) rotate(-21.641)" style="fill: none; stroke: #f6a75f; stroke-miterlimit: 10; stroke-width: 2.024px;"/>
            </g>
          </g>
        </g>
        <g style="clip-path: url(#clippath-5);">
          <circle cx="77.759" cy="92.849" r="8.268" style="fill: #00c6ad;"/>
          <g style="clip-path: url(#clippath-6);">
            <path d="M86.425,90.156h-6.591c-.23,0-.456.055-.661.161-.219.113-.51.264-.729.377-.204.106-.431.161-.661.161h-8.552v5.21h5.481c.223,0,.443-.052.643-.152.075-.038.156-.078.231-.116.2-.1.42-.152.643-.152h10.195v-5.489Z" style="fill: #22d4be; fill-rule: evenodd;"/>
            <polygon points="86.027 101.117 69.491 84.581 69.491 101.117 86.027 101.117" style="fill: #6ddfd6; fill-rule: evenodd; mix-blend-mode: multiply; opacity: .816;"/>
          </g>
        </g>
      </g>
    </g>
  </g>
</svg>