<?xml version="1.0" encoding="UTF-8"?>
<svg xmlns="http://www.w3.org/2000/svg" width="150" height="150" xmlns:xlink="http://www.w3.org/1999/xlink" version="1.1" viewBox="0 0 150 150">
  <!-- Generator: Adobe Illustrator 29.4.0, SVG Export Plug-In . SVG Version: 2.1.0 Build 152)  -->
  <defs>
    <clipPath id="clippath">
      <path d="M120.095,59.683c-2.225-1.104-3.308-3.716-2.515-6.071,1.944-5.772.625-12.396-3.974-16.996h0c-4.599-4.6-11.224-5.918-16.996-3.975-2.354.793-4.967-.289-6.071-2.515-2.707-5.456-8.324-9.208-14.828-9.208s-12.121,3.752-14.828,9.208c-1.104,2.225-3.716,3.307-6.071,2.515-5.772-1.944-12.397-.625-16.996,3.974h0c-4.599,4.6-5.918,11.224-3.974,16.996.793,2.354-.289,4.967-2.515,6.071-5.456,2.707-9.208,8.324-9.208,14.828h0c0,6.505,3.752,12.121,9.208,14.828,2.225,1.104,3.307,3.716,2.515,6.071-1.944,5.772-.625,12.397,3.974,16.996,4.6,4.599,11.224,5.918,16.996,3.974,2.354-.793,4.967.289,6.071,2.515,2.707,5.456,8.324,9.208,14.828,9.208s12.121-3.752,14.828-9.208c1.104-2.225,3.716-3.308,6.071-2.515,5.772,1.944,12.397.625,16.996-3.974s5.918-11.224,3.974-16.996c-.793-2.354.289-4.967,2.515-6.071,5.456-2.707,9.208-8.324,9.208-14.828h0c0-6.505-3.752-12.121-9.208-14.828Z" style="fill: none;"/>
    </clipPath>
    <clipPath id="clippath-1">
      <path d="M112.948,74.085l29.17-49.573L83.252-7.587l-31.816,55.969c-.59-.144-1.176-.308-1.754-.503-.053-.018-.113-.027-.173-.027-.188,0-.268.08-.323.134-.184.184-.136.408-.106.495,3.347,9.937-1.212,20.944-10.605,25.605-.083.042-.276.165-.276.426s.193.385.276.427c9.391,4.66,13.95,15.667,10.605,25.604-.029.088-.078.312.106.496.053.053.133.133.323.133.061,0,.12-.01.177-.028,2.166-.729,4.422-1.098,6.706-1.098,7.95,0,15.366,4.594,18.895,11.705.041.083.165.275.426.275s.385-.193.425-.273c3.527-7.112,10.944-11.707,18.895-11.707,2.285,0,4.542.369,6.709,1.099.053.018.114.027.174.027.189,0,.27-.081.323-.133.184-.184.135-.408.106-.495-3.347-9.937,1.212-20.944,10.606-25.606.083-.041.276-.164.276-.426s-.193-.384-.277-.426Z" style="fill: none;"/>
    </clipPath>
    <clipPath id="clippath-2">
      <path d="M124.253,43.157c.697-1.231.873-2.69.501-4.051-.379-1.364-1.286-2.523-2.513-3.217-9.714-5.498-32.07-18.152-41.784-23.65-1.227-.694-2.687-.875-4.051-.498-1.358.381-2.519,1.284-3.215,2.515-9.628,17.011-42.92,75.829-52.548,92.84-.697,1.231-.873,2.69-.501,4.051.379,1.364,1.286,2.523,2.513,3.217,9.714,5.498,32.07,18.152,41.784,23.65,1.227.694,2.687.875,4.051.498,1.358-.381,2.519-1.284,3.215-2.515,9.628-17.011,42.92-75.829,52.548-92.84Z" style="clip-rule: evenodd; fill: none;"/>
    </clipPath>
    <clipPath id="clippath-3">
      <path d="M79.53,21.465h23.901c1.302,0,2.36,1.057,2.36,2.36v35.351c0,1.302-1.057,2.36-2.36,2.36h-23.901c-1.303,0-2.361-1.058-2.361-2.361V23.826c0-1.303,1.058-2.361,2.361-2.361Z" transform="translate(10.303 100.671) rotate(-60.49)" style="fill: none;"/>
    </clipPath>
  </defs>
  <g style="isolation: isolate;">
    <g id="Layer_1">
      <g>
        <g style="clip-path: url(#clippath);">
          <path d="M120.095,59.683c-2.225-1.104-3.308-3.716-2.515-6.071,1.944-5.772.625-12.396-3.974-16.996h0c-4.599-4.6-11.224-5.918-16.996-3.975-2.354.793-4.967-.289-6.071-2.515-2.707-5.456-8.324-9.208-14.828-9.208s-12.121,3.752-14.828,9.208c-1.104,2.225-3.716,3.307-6.071,2.515-5.772-1.944-12.397-.625-16.996,3.974h0c-4.599,4.6-5.918,11.224-3.974,16.996.793,2.354-.289,4.967-2.515,6.071-5.456,2.707-9.208,8.324-9.208,14.828h0c0,6.505,3.752,12.121,9.208,14.828,2.225,1.104,3.307,3.716,2.515,6.071-1.944,5.772-.625,12.397,3.974,16.996,4.6,4.599,11.224,5.918,16.996,3.974,2.354-.793,4.967.289,6.071,2.515,2.707,5.456,8.324,9.208,14.828,9.208s12.121-3.752,14.828-9.208c1.104-2.225,3.716-3.308,6.071-2.515,5.772,1.944,12.397.625,16.996-3.974s5.918-11.224,3.974-16.996c-.793-2.354.289-4.967,2.515-6.071,5.456-2.707,9.208-8.324,9.208-14.828h0c0-6.505-3.752-12.121-9.208-14.828Z" style="fill: #dd1d68;"/>
          <path d="M75.712,112.025c-.261,0-.385-.193-.426-.275-3.529-7.111-10.945-11.705-18.895-11.705-2.284,0-4.541.369-6.706,1.098-.057.019-.116.028-.177.028-.189,0-.27-.08-.323-.133-.184-.184-.136-.408-.106-.496,3.346-9.936-1.214-20.944-10.605-25.604-.084-.042-.276-.165-.276-.427s.193-.384.276-.426c9.393-4.661,13.952-15.668,10.605-25.605-.029-.087-.078-.311.106-.495.055-.054.135-.134.323-.134.061,0,.12.009.173.027,2.166.73,4.425,1.1,6.712,1.1,7.949-.001,15.364-4.595,18.892-11.704.042-.084.166-.277.427-.277s.385.194.426.276c3.527,7.11,10.943,11.705,18.894,11.705,2.287-.001,4.546-.371,6.714-1.101.049-.017.109-.026.17-.026.19,0,.271.081.324.134.184.183.135.408.105.496-3.347,9.935,1.212,20.943,10.604,25.604.085.042.277.165.277.426s-.193.385-.276.426c-9.394,4.662-13.953,15.669-10.606,25.606.029.087.078.311-.106.495-.053.052-.133.133-.323.133-.061,0-.121-.009-.174-.027-2.168-.73-4.424-1.099-6.709-1.099-7.951,0-15.368,4.595-18.895,11.707-.04.081-.164.273-.425.273Z" style="fill: #b50859;"/>
          <rect x="22.12" y="20.92" width="53.592" height="107.183" style="fill: #d2deef; mix-blend-mode: multiply;"/>
        </g>
        <g style="clip-path: url(#clippath-1);">
          <g>
            <path d="M128.612,45.625c.697-1.231.873-2.69.501-4.051-.379-1.364-1.286-2.523-2.513-3.217-9.695-5.488-32.001-18.113-41.697-23.601-1.233-.698-2.687-.875-4.051-.498-1.365.378-2.519,1.283-3.216,2.514-9.628,17.011-42.92,75.829-52.548,92.84-.697,1.231-.879,2.687-.5,4.052.379,1.364,1.279,2.519,2.512,3.217,9.696,5.488,32.002,18.113,41.697,23.601,1.227.694,2.687.875,4.051.498,1.358-.381,2.519-1.284,3.215-2.515,9.628-17.011,42.92-75.829,52.548-92.84Z" style="fill: #bcadbf; fill-rule: evenodd;"/>
            <path d="M124.253,43.157c.697-1.231.873-2.69.501-4.051-.379-1.364-1.286-2.523-2.513-3.217-9.714-5.498-32.07-18.152-41.784-23.65-1.227-.694-2.687-.875-4.051-.498-1.358.381-2.519,1.284-3.215,2.515-9.628,17.011-42.92,75.829-52.548,92.84-.697,1.231-.873,2.69-.501,4.051.379,1.364,1.286,2.523,2.513,3.217,9.714,5.498,32.07,18.152,41.784,23.65,1.227.694,2.687.875,4.051.498,1.358-.381,2.519-1.284,3.215-2.515,9.628-17.011,42.92-75.829,52.548-92.84Z" style="fill: #20081c; fill-rule: evenodd;"/>
            <g style="clip-path: url(#clippath-2);">
              <rect x="-11.154" y="57.083" width="120.88" height="5.358" transform="translate(-27.001 73.217) rotate(-60.49)" style="fill: #dbd0dd;"/>
              <rect x="37.086" y="84.404" width="120.88" height="5.325" transform="translate(-26.284 129.054) rotate(-60.49)" style="fill: #dbd0dd;"/>
            </g>
            <rect x="70.055" y="58.041" width="13.595" height="18.604" rx="3.578" ry="3.578" transform="translate(-19.609 101.054) rotate(-60.49)" style="fill: #20081c;"/>
            <path d="M75.22,58.607l-.037-.021-.044-.024-.038-.02-.044-.023-.039-.019-.039-.018-.046-.022-.039-.017-.04-.017-.046-.02-.041-.016-.04-.015-.041-.016-.047-.018-.042-.014-.042-.013-.042-.014-.042-.012-.043-.013-.042-.012-.043-.011-.044-.011-.043-.01-.044-.01-.043-.01-.038-.005-.045-.009-.044-.009-.045-.008-.039-.004-.091-.014-.085-.008-.087-.007-.088-.005h-.082s-.09-.002-.09-.002l-.084.003-.085.004-.091.003-.08.011-.088.009-.088.01-.083.016-.083.016-.085.018-.085.019-.085.02-.08.025-.081.027-.082.028-.082.029-.076.033-.083.031-.078.036-.078.036-.073.042-.08.039-.074.044-.075.045-.069.049-.075.046-.07.051-.071.052-.065.056-.038.025-.033.028-.032.029-.033.029-.033.03-.033.029-.027.033-.033.03-.034.03-.027.033-.034.03-.028.035-.033.03-.028.034-.028.035-.028.035-.028.035-.029.035-.028.035-.028.035-.028.036-.022.039-.029.035-.028.036-.023.04-.023.04-.029.036-.023.04-.023.04-.023.04-3.172,5.604-.023.04-.023.04-.023.04-.016.043-.023.04-.023.04-.016.043-.016.043-.022.039-.016.043-.016.042-.016.042-.015.042-.016.042-.016.042-.015.041-.015.042-.009.044-.015.041-.008.045-.015.04-.008.045-.009.044-.015.04-.008.043-.009.044-.008.043-.008.042-.007.043-.002.046-.015.084-.008.088-.008.086v.088s-.008.084-.008.084v.087s0,.086,0,.086l.008.088v.084s.011.086.011.086l.009.086.016.087.01.082.017.086.018.084.019.083.02.082.027.083.027.083.028.082.029.08.029.079.036.081.038.08.032.074.045.08.04.075.04.074.048.076.042.07.05.073.051.071.051.069.059.071.023.031.03.035.03.033.031.034.024.03.031.032.031.033.031.032.032.032.031.031.032.03.033.03.032.03.033.029.033.029.034.028.039.031.035.027.034.027.035.027.041.029.035.026.035.025.042.028.035.024.037.023.042.026.037.023.043.026.037.021,9.963,5.639.037.021.044.024.038.02.044.023.039.019.039.018.046.022.039.017.04.017.046.02.041.016.04.015.041.016.047.018.042.014.042.013.042.014.042.012.043.013.042.012.043.011.044.011.043.01.044.01.043.01.038.005.045.009.044.009.045.008.039.004.091.014.085.008.087.007.088.005h.082s.09.002.09.002l.084-.003.085-.004.091-.003.08-.011.088-.009.088-.01.083-.016.083-.016.085-.018.085-.019.085-.02.08-.025.081-.027.082-.028.082-.029.076-.033.083-.031.078-.036.078-.036.073-.042.08-.039.074-.044.075-.045.069-.049.075-.046.07-.051.071-.052.065-.056.038-.025.033-.028.032-.029.033-.029.033-.03.033-.029.027-.033.033-.03.034-.03.027-.033.034-.03.028-.035.033-.03.028-.034.028-.035.028-.035.028-.035.029-.035.028-.035.028-.035.028-.036.022-.039.029-.035.028-.036.023-.04.023-.04.029-.036.023-.04.023-.04.023-.04,3.172-5.604.023-.04.023-.04.023-.04.016-.043.023-.04.023-.04.016-.043.016-.043.022-.039.016-.043.016-.042.016-.042.015-.042.016-.042.016-.042.015-.041.015-.042.009-.044.015-.041.008-.045.015-.04.008-.045.009-.044.015-.04.008-.043.009-.044.008-.043.008-.042.007-.043.002-.046.015-.084.008-.088.008-.086v-.088s.008-.084.008-.084v-.087s0-.086,0-.086l-.008-.088v-.084s-.011-.086-.011-.086l-.009-.086-.016-.087-.01-.082-.017-.086-.018-.084-.019-.083-.02-.082-.027-.083-.027-.083-.028-.082-.029-.08-.029-.079-.036-.081-.038-.08-.032-.074-.045-.08-.04-.075-.04-.074-.048-.076-.042-.07-.05-.073-.051-.071-.051-.069-.059-.071-.023-.031-.03-.035-.03-.033-.031-.034-.024-.03-.031-.032-.031-.033-.031-.032-.032-.032-.031-.031-.032-.03-.033-.03-.032-.03-.033-.029-.033-.029-.034-.028-.039-.031-.035-.027-.034-.027-.035-.027-.041-.029-.035-.026-.035-.025-.042-.028-.035-.024-.037-.023-.042-.026-.037-.023-.043-.026-.037-.021-9.963-5.639ZM86.302,62.414l.068.04.061.038.061.038.06.039.06.04.059.04.065.045.058.042.058.043.052.04.057.044.056.045.057.045.056.046.056.048.054.049.049.044.055.05.053.051.053.051.048.048.046.048.051.054.046.049.045.05.051.056.043.054.044.052.05.058.087.108.078.109.083.114.075.113.074.116.073.12.072.12.062.121.068.127.056.119.059.128.052.126.053.124.044.127.052.14.035.126.037.125.039.134.029.137.034.143.024.133.021.124.019.14.012.138.015.134.011.142.003.14.003.141v.13s-.005.14-.005.14l-.005.14-.013.138-.013.139-.014.128-.017.088-.007.069-.01.047-.017.089-.013.067-.01.047-.017.088-.024.087-.01.047-.014.068-.025.087-.016.043-.02.064-.025.088-.02.066-.021.065-.031.085-.027.062-.016.043-.027.063-.031.084-.038.081-.027.063-.023.04-.027.063-.038.081-.038.081-.033.059-.023.04-.033.059-3.193,5.642-.033.059-.023.04-.033.059-.05.074-.05.074-.04.055-.023.04-.04.056-.05.074-.057.071-.04.056-.029.036-.039.055-.056.07-.045.052-.046.051-.062.066-.045.052-.028.036-.062.065-.052.047-.035.033-.062.065-.068.061-.034.032-.051.046-.067.061-.035.032-.056.042-.067.06-.102.079-.112.082-.112.082-.118.077-.117.076-.112.067-.122.07-.121.069-.127.064-.122.056-.125.061-.13.056-.117.046-.125.047-.14.044-.133.046-.135.035-.126.032-.127.036-.147.028-.131.027-.134.019-.136.021-.14.015-.13.013-.144.007-.136.009h-.14s-.141,0-.141,0l-.137-.004-.136-.007-.141-.012-.133-.011-.137-.019-.076-.011-.061-.008-.074-.013-.075-.014-.067-.013-.066-.014-.072-.017-.065-.015-.066-.016-.072-.018-.071-.02-.07-.022-.063-.019-.069-.022-.07-.023-.069-.023-.068-.025-.068-.025-.067-.026-.061-.024-.066-.028-.066-.028-.072-.033-.065-.03-.065-.031-.064-.031-.064-.033-.063-.033-.069-.038-.056-.031-9.976-5.646-.056-.032-.062-.037-.067-.04-.061-.038-.06-.039-.06-.04-.059-.04-.059-.041-.065-.046-.058-.043-.052-.04-.057-.044-.056-.045-.063-.049-.049-.043-.056-.047-.049-.044-.06-.053-.048-.046-.054-.05-.047-.047-.047-.048-.053-.053-.052-.053-.046-.05-.051-.056-.045-.051-.045-.051-.048-.06-.049-.06-.076-.098-.085-.111-.082-.116-.081-.118-.069-.11-.074-.118-.075-.129-.058-.114-.063-.121-.065-.133-.055-.121-.054-.123-.048-.132-.05-.13-.044-.125-.041-.13-.038-.137-.033-.13-.032-.133-.031-.134-.025-.131-.02-.139-.023-.134-.012-.138-.017-.144-.008-.132v-.128s-.011-.144-.011-.144l.005-.139.005-.139.006-.141.013-.138.013-.138.018-.148.014-.068.004-.049.017-.088.014-.068.013-.067.014-.067.014-.068.02-.065.015-.068.014-.069.021-.065.024-.087.02-.066.021-.065.02-.066.027-.062.021-.065.02-.066.038-.081.02-.066.027-.063.027-.062.027-.062.027-.064.038-.081.044-.078.023-.04.027-.063.044-.078,3.239-5.723.044-.078.062-.096.044-.078.05-.074.04-.055.04-.056.04-.056.085-.107.05-.074.046-.051.046-.052.039-.054.046-.051.045-.052.045-.05.063-.067.045-.051.051-.047.051-.048.046-.051.051-.046.051-.047.051-.046.051-.047.067-.061.04-.028.051-.047.118-.091.113-.083.112-.082.117-.077.117-.077.116-.075.128-.066.111-.065.117-.06.132-.059.125-.061.127-.049.13-.055.126-.047.131-.042.129-.04.129-.04.138-.039.132-.03.13-.026.138-.025.138-.026.133-.017.132-.015.147-.013.136-.008.128-.009.149-.002.139.003.129.003.144.008.142.011.139.015.123.015.069.009.083.013.067.012.067.013.074.015.066.014.073.016.073.017.065.016.064.017.064.017.078.023.069.022.063.019.069.024.062.02.075.028.068.025.067.026.061.024.066.028.073.032.065.03.065.03.065.031.064.031.064.033.07.036.063.035.056.031,9.976,5.646.056.032Z" style="fill: #adafaf; fill-rule: evenodd;"/>
            <path d="M98.88,71.57c.203-.359.254-.784.143-1.183-.105-.395-.373-.735-.728-.936l-2.858-1.618c-.355-.201-.785-.256-1.177-.143-.399.11-.738.373-.941.731l-.303.536c-.203.359-.255.785-.143,1.184.105.394.374.734.729.935.871.493,1.986,1.124,2.858,1.618.355.201.784.256,1.176.143.399-.11.738-.373.941-.732l.303-.536Z" style="fill: #3e193f; fill-rule: evenodd;"/>
            <path d="M95.732,77.132c.203-.359.255-.785.143-1.184-.105-.395-.373-.735-.728-.936-.872-.494-1.987-1.124-2.858-1.618-.355-.201-.785-.256-1.177-.143-.399.11-.738.373-.941.732l-.303.536c-.203.359-.255.785-.143,1.184.105.395.373.735.728.936.871.493,1.986,1.124,2.858,1.618.355.201.784.256,1.177.142.399-.11.738-.373.941-.732l.303-.536Z" style="fill: #3e193f; fill-rule: evenodd;"/>
            <path d="M92.585,82.692c.203-.359.254-.784.143-1.183-.105-.395-.373-.735-.728-.936-.872-.494-1.987-1.124-2.858-1.618-.355-.201-.785-.256-1.177-.143-.399.11-.738.373-.941.731l-.303.536c-.203.359-.255.785-.143,1.183.105.395.373.735.728.936.871.493,1.986,1.124,2.858,1.618.355.201.784.256,1.177.142.399-.109.737-.372.941-.731l.303-.536Z" style="fill: #3e193f; fill-rule: evenodd;"/>
            <path d="M71.732,117.065c.234-.413.296-.9.168-1.358-.127-.458-.433-.847-.844-1.08l-.642-.363c-.411-.233-.902-.294-1.36-.168-.452.13-.844.431-1.078.844s-.289.904-.168,1.358c.127.458.433.847.844,1.08l.642.363c.411.233.902.294,1.36.168.458-.126.844-.431,1.078-.844Z" style="fill: #3e193f; fill-rule: evenodd;"/>
            <path d="M53.436,106.71c.234-.413.289-.904.162-1.362-.121-.454-.427-.843-.838-1.076l-.642-.363c-.411-.233-.902-.294-1.36-.168-.458.126-.844.431-1.078.844s-.296.9-.168,1.358c.127.458.433.847.844,1.08l.642.363c.411.233.902.294,1.354.164.458-.126.85-.427,1.084-.84Z" style="fill: #3e193f; fill-rule: evenodd;"/>
            <path d="M65.635,113.615c.234-.413.29-.904.162-1.362-.127-.458-.427-.843-.838-1.076l-.642-.363c-.417-.236-.902-.294-1.36-.168-.457.126-.844.429-1.077.842v.002c-.235.413-.297.9-.169,1.357.127.458.427.843.844,1.08l.642.363c.411.233.896.291,1.354.164.458-.126.85-.427,1.084-.84Z" style="fill: #3e193f; fill-rule: evenodd;"/>
            <path d="M47.334,103.256c.234-.413.295-.901.168-1.358-.127-.458-.433-.847-.844-1.08l-.642-.363c-.411-.233-.902-.294-1.354-.164-.458.126-.85.426-1.083.839v.002c-.235.413-.291.903-.163,1.361.121.454.427.843.838,1.076l.642.363c.411.233.902.294,1.36.168.458-.126.844-.431,1.078-.844Z" style="fill: #3e193f; fill-rule: evenodd;"/>
            <path d="M59.533,110.161c.234-.413.296-.9.168-1.358-.127-.458-.433-.847-.844-1.08l-.642-.363c-.411-.233-.902-.294-1.354-.164-.458.126-.85.427-1.084.84s-.289.904-.162,1.362c.121.454.427.843.838,1.076l.642.363c.411.233.902.294,1.36.168.458-.126.844-.431,1.078-.844Z" style="fill: #3e193f; fill-rule: evenodd;"/>
            <path d="M41.238,99.806c.234-.413.289-.904.168-1.358-.127-.458-.433-.847-.844-1.08l-.642-.363c-.411-.233-.902-.294-1.36-.168-.458.126-.844.431-1.078.844s-.296.9-.168,1.358c.127.458.433.847.844,1.08l.642.363c.411.233.902.294,1.36.168.452-.13.844-.431,1.078-.844Z" style="fill: #3e193f; fill-rule: evenodd;"/>
            <path d="M68.591,122.614c.234-.413.296-.9.168-1.358-.127-.458-.433-.847-.844-1.08l-.642-.363c-.411-.233-.902-.294-1.36-.168-.452.13-.844.431-1.078.843s-.289.904-.168,1.358c.128.457.433.847.844,1.08l.642.363c.411.233.902.294,1.36.168.458-.126.844-.431,1.078-.844Z" style="fill: #3e193f; fill-rule: evenodd;"/>
            <path d="M50.296,112.259c.234-.413.289-.904.162-1.362-.121-.454-.427-.843-.838-1.076l-.642-.363c-.411-.233-.902-.294-1.36-.168-.458.126-.844.431-1.078.843s-.296.9-.168,1.358c.128.457.433.847.844,1.08l.642.363c.411.233.902.294,1.354.164.458-.126.85-.427,1.084-.84Z" style="fill: #3e193f; fill-rule: evenodd;"/>
            <path d="M62.495,119.164c.234-.413.29-.904.162-1.362-.127-.458-.427-.843-.838-1.076l-.642-.363c-.417-.236-.902-.294-1.36-.168-.457.126-.844.429-1.077.842v.002c-.235.412-.297.9-.169,1.357.127.458.427.843.844,1.08l.642.363c.411.233.896.29,1.354.164.458-.126.85-.427,1.084-.84Z" style="fill: #3e193f; fill-rule: evenodd;"/>
            <path d="M44.193,108.805c.234-.413.295-.901.168-1.358-.127-.458-.433-.847-.844-1.08l-.642-.363c-.411-.233-.902-.294-1.354-.164-.458.126-.85.426-1.083.839v.002c-.235.412-.291.903-.163,1.361.121.454.427.843.838,1.076l.642.363c.411.233.902.294,1.36.168.458-.126.844-.431,1.078-.844Z" style="fill: #3e193f; fill-rule: evenodd;"/>
            <path d="M56.392,115.71c.234-.413.296-.9.168-1.358-.127-.458-.433-.847-.844-1.08l-.642-.363c-.411-.233-.902-.294-1.354-.164-.458.126-.85.427-1.084.84s-.289.904-.162,1.362c.121.454.427.843.838,1.076l.642.363c.411.233.902.294,1.36.168.458-.126.844-.431,1.078-.844Z" style="fill: #3e193f; fill-rule: evenodd;"/>
            <path d="M38.097,105.355c.234-.413.289-.904.168-1.358-.127-.458-.433-.847-.844-1.08l-.642-.363c-.411-.233-.902-.294-1.36-.168-.458.126-.844.431-1.078.843s-.296.9-.168,1.358c.128.457.433.847.844,1.08l.642.363c.411.233.902.294,1.36.168.452-.13.844-.431,1.078-.844Z" style="fill: #3e193f; fill-rule: evenodd;"/>
            <path d="M65.369,128.306c.234-.413.296-.9.168-1.358-.127-.458-.433-.847-.844-1.08l-.642-.363c-.411-.233-.902-.294-1.36-.168-.452.13-.844.431-1.078.843s-.289.904-.168,1.358c.128.457.433.847.844,1.08l.642.363c.411.233.902.294,1.36.168.458-.126.844-.431,1.078-.844Z" style="fill: #3e193f; fill-rule: evenodd;"/>
            <path d="M47.074,117.951c.234-.413.289-.904.162-1.362-.121-.454-.427-.843-.838-1.076l-.642-.363c-.411-.233-.902-.294-1.36-.168-.458.126-.844.431-1.078.843s-.296.9-.168,1.358c.128.457.433.847.844,1.08l.642.363c.411.233.902.294,1.354.164.458-.126.85-.427,1.084-.84Z" style="fill: #dbd0dd; fill-rule: evenodd;"/>
            <path d="M59.273,124.855c.234-.413.29-.904.162-1.362-.127-.458-.427-.843-.838-1.076l-.642-.363c-.417-.236-.902-.294-1.36-.168-.458.126-.844.43-1.078.843v.002c-.235.412-.297.9-.169,1.357.127.458.427.843.844,1.08l.642.363c.411.233.896.29,1.354.164.458-.126.85-.427,1.084-.84Z" style="fill: #3e193f; fill-rule: evenodd;"/>
            <path d="M40.972,114.497c.234-.413.295-.901.168-1.358-.127-.458-.433-.847-.844-1.08l-.642-.363c-.411-.233-.902-.294-1.353-.165-.458.126-.85.427-1.084.839v.002c-.235.412-.291.903-.163,1.361.121.454.427.843.838,1.076l.642.363c.411.233.902.294,1.36.168.458-.126.844-.431,1.078-.844Z" style="fill: #3e193f; fill-rule: evenodd;"/>
            <path d="M53.171,121.401c.234-.413.296-.9.168-1.358-.127-.458-.433-.847-.844-1.08l-.642-.363c-.411-.233-.902-.294-1.354-.164-.458.126-.85.427-1.084.84s-.289.904-.162,1.362c.121.454.427.843.838,1.076l.642.363c.411.233.902.294,1.36.168.458-.126.844-.431,1.078-.844Z" style="fill: #dbd0dd; fill-rule: evenodd;"/>
            <path d="M34.875,111.046c.234-.413.289-.904.168-1.358-.127-.458-.433-.847-.844-1.08l-.642-.363c-.411-.233-.902-.294-1.36-.168-.458.126-.844.431-1.078.843s-.296.9-.168,1.358c.128.457.433.847.844,1.08l.642.363c.411.233.902.294,1.36.168.452-.13.844-.431,1.078-.844Z" style="fill: #3e193f; fill-rule: evenodd;"/>
            <path d="M67.747,54.378c.281-.496.35-1.084.2-1.631-.151-.548-.512-1.013-1.01-1.295-.791-.447-1.7-.962-2.491-1.41-.498-.282-1.083-.353-1.63-.2-.547.153-1.015.515-1.295,1.011s-.35,1.084-.2,1.631c.151.548.512,1.013,1.01,1.295.791.447,1.7.962,2.491,1.41.498.282,1.083.353,1.63.2.547-.153,1.015-.515,1.295-1.011Z" style="fill: #3e193f; fill-rule: evenodd;"/>
            <path d="M64.575,59.982c.281-.496.35-1.084.2-1.631-.151-.548-.512-1.013-1.01-1.295-.791-.447-1.7-.962-2.491-1.41-.498-.282-1.083-.353-1.63-.2-.547.153-1.015.515-1.295,1.011s-.35,1.084-.2,1.631c.151.548.512,1.013,1.01,1.295.791.447,1.7.962,2.491,1.41.498.282,1.083.353,1.63.2.547-.153,1.015-.515,1.295-1.011Z" style="fill: #3e193f; fill-rule: evenodd;"/>
            <path d="M61.403,65.587c.281-.496.35-1.084.2-1.631-.151-.548-.512-1.013-1.01-1.295l-2.491-1.41c-.498-.282-1.083-.353-1.63-.2-.547.153-1.015.515-1.295,1.011h0c-.584,1.032-.222,2.34.811,2.926.784.444,1.7.962,2.491,1.41.498.282,1.083.353,1.63.2.547-.153,1.015-.515,1.295-1.011Z" style="fill: #3e193f; fill-rule: evenodd;"/>
            <path d="M57.526,72.437c.281-.496.35-1.084.2-1.631-.151-.548-.512-1.013-1.01-1.295-.791-.447-1.7-.962-2.491-1.41-.498-.282-1.083-.353-1.63-.2-.547.153-1.015.515-1.295,1.011s-.35,1.084-.2,1.631c.151.548.512,1.013,1.01,1.295.791.447,1.7.962,2.491,1.41.498.282,1.083.353,1.63.2.547-.153,1.015-.515,1.295-1.011Z" style="fill: #3e193f; fill-rule: evenodd;"/>
            <path d="M54.354,78.041c.281-.496.35-1.084.2-1.631-.151-.548-.512-1.013-1.01-1.295-.791-.447-1.7-.962-2.491-1.41-.498-.282-1.083-.353-1.63-.2-.547.153-1.015.515-1.295,1.011s-.35,1.084-.2,1.631c.151.548.512,1.013,1.01,1.295.791.447,1.7.962,2.491,1.41.498.282,1.083.353,1.63.2.547-.153,1.015-.515,1.295-1.011Z" style="fill: #3e193f; fill-rule: evenodd;"/>
            <path d="M51.182,83.645c.281-.496.35-1.084.2-1.631-.151-.548-.512-1.013-1.01-1.295-.791-.447-1.7-.962-2.491-1.41-.498-.282-1.083-.353-1.63-.2-.547.153-1.015.515-1.295,1.011s-.35,1.084-.2,1.631c.151.548.512,1.013,1.01,1.295.791.447,1.7.962,2.491,1.41.498.282,1.083.353,1.63.2.547-.153,1.015-.515,1.295-1.011Z" style="fill: #3e193f; fill-rule: evenodd;"/>
            <path d="M48.009,89.25c.281-.496.35-1.084.2-1.631-.151-.548-.512-1.013-1.01-1.295-.791-.447-1.7-.962-2.491-1.41-.498-.282-1.083-.353-1.63-.2-.547.153-1.015.515-1.295,1.011s-.35,1.084-.2,1.631c.151.548.512,1.013,1.01,1.295.791.447,1.7.962,2.491,1.41.498.282,1.083.353,1.63.2.547-.153,1.015-.515,1.295-1.011Z" style="fill: #3e193f; fill-rule: evenodd;"/>
            <path d="M44.837,94.854c.281-.496.35-1.084.2-1.631-.151-.548-.512-1.013-1.01-1.295l-2.491-1.41c-.498-.282-1.083-.353-1.63-.2-.547.153-1.015.515-1.295,1.011h0c-.584,1.032-.222,2.34.811,2.926l2.491,1.41c1.034.585,2.341.222,2.925-.81h0Z" style="fill: #3e193f; fill-rule: evenodd;"/>
            <path d="M98.883,72.001c.281-.496.35-1.084.2-1.631-.151-.548-.512-1.013-1.01-1.295-.791-.447-1.7-.962-2.491-1.41-.498-.282-1.083-.353-1.63-.2-.547.153-1.015.515-1.295,1.011s-.35,1.084-.2,1.631c.151.548.512,1.013,1.01,1.295.791.447,1.7.962,2.491,1.41.498.282,1.083.353,1.63.2.547-.153,1.015-.515,1.295-1.011Z" style="fill: #3e193f; fill-rule: evenodd;"/>
            <path d="M95.711,77.605c.281-.496.35-1.084.2-1.631-.151-.548-.512-1.013-1.01-1.295-.791-.447-1.7-.962-2.491-1.41-.498-.282-1.083-.353-1.63-.2-.547.153-1.015.515-1.295,1.011s-.35,1.084-.2,1.631c.151.548.512,1.013,1.01,1.295l2.491,1.41c.498.282,1.083.353,1.63.2.547-.153,1.015-.515,1.295-1.011Z" style="fill: #3e193f; fill-rule: evenodd;"/>
            <path d="M92.539,83.21c.281-.496.35-1.084.2-1.631-.151-.548-.512-1.013-1.01-1.295-.791-.447-1.7-.962-2.491-1.41-.498-.282-1.083-.353-1.63-.2-.547.153-1.015.515-1.295,1.011s-.35,1.084-.2,1.631c.151.548.512,1.013,1.01,1.295.791.447,1.7.962,2.491,1.41.498.282,1.083.353,1.63.2.547-.153,1.015-.515,1.295-1.011Z" style="fill: #3e193f; fill-rule: evenodd;"/>
            <path d="M88.662,90.06c.281-.496.35-1.084.2-1.631-.151-.548-.512-1.013-1.01-1.295-.791-.447-1.7-.962-2.491-1.41-.498-.282-1.083-.353-1.63-.2-.547.153-1.015.515-1.295,1.011s-.35,1.084-.2,1.631c.151.548.512,1.013,1.01,1.295.791.447,1.7.962,2.491,1.41.498.282,1.083.353,1.63.2.547-.153,1.015-.515,1.295-1.011Z" style="fill: #3e193f; fill-rule: evenodd;"/>
            <path d="M85.489,95.664c.281-.496.35-1.084.2-1.631-.151-.548-.512-1.013-1.01-1.295-.791-.447-1.7-.962-2.491-1.41-.498-.282-1.083-.353-1.63-.2-.547.153-1.015.515-1.295,1.011s-.35,1.084-.2,1.631c.151.548.512,1.013,1.01,1.295.791.447,1.7.962,2.491,1.41.498.282,1.083.353,1.63.2.547-.153,1.015-.515,1.295-1.011Z" style="fill: #3e193f; fill-rule: evenodd;"/>
            <path d="M82.317,101.268c.281-.496.35-1.084.2-1.631-.151-.548-.512-1.013-1.01-1.295-.791-.447-1.7-.962-2.491-1.41-.498-.282-1.083-.353-1.63-.2-.547.153-1.015.515-1.295,1.011s-.35,1.084-.2,1.631c.151.548.512,1.013,1.01,1.295.791.447,1.7.962,2.491,1.41.498.282,1.083.353,1.63.2.547-.153,1.015-.515,1.295-1.011Z" style="fill: #3e193f; fill-rule: evenodd;"/>
            <path d="M79.145,106.873c.281-.496.35-1.084.2-1.631-.151-.548-.512-1.013-1.01-1.295-.791-.447-1.7-.962-2.491-1.41-.498-.282-1.083-.353-1.63-.2-.547.153-1.015.515-1.295,1.011s-.35,1.084-.2,1.631c.151.548.512,1.013,1.01,1.295.791.447,1.7.962,2.491,1.41.498.282,1.083.353,1.63.2.547-.153,1.015-.515,1.295-1.011Z" style="fill: #3e193f; fill-rule: evenodd;"/>
            <path d="M75.973,112.477c.281-.496.35-1.084.2-1.631-.151-.548-.512-1.013-1.01-1.295-.791-.447-1.7-.962-2.491-1.41-.498-.282-1.083-.353-1.63-.2-.547.153-1.015.515-1.295,1.011s-.35,1.084-.2,1.631c.151.548.512,1.013,1.01,1.295.791.447,1.7.962,2.491,1.41.498.282,1.083.353,1.63.2.547-.153,1.015-.515,1.295-1.011Z" style="fill: #3e193f; fill-rule: evenodd;"/>
            <path d="M81.189,85.83c.281-.496.35-1.084.2-1.631-.151-.548-.512-1.013-1.01-1.295-.791-.447-1.7-.962-2.491-1.41-.498-.282-1.083-.353-1.63-.2-.547.153-1.015.515-1.295,1.011s-.35,1.084-.2,1.631c.151.548.512,1.013,1.01,1.295.791.447,1.7.962,2.491,1.41.498.282,1.083.353,1.63.2.547-.153,1.015-.515,1.295-1.011Z" style="fill: #3e193f; fill-rule: evenodd;"/>
            <path d="M78.017,91.434c.281-.496.35-1.084.2-1.631-.151-.548-.512-1.013-1.01-1.295l-2.491-1.41c-.498-.282-1.083-.353-1.63-.2-.547.153-1.015.515-1.295,1.011s-.35,1.084-.2,1.631c.151.548.512,1.013,1.01,1.295l2.491,1.41c.498.282,1.083.353,1.63.2.547-.153,1.015-.515,1.295-1.011Z" style="fill: #dbd0dd; fill-rule: evenodd;"/>
            <path d="M74.845,97.039c.281-.496.35-1.084.2-1.631-.151-.548-.512-1.013-1.01-1.295-.791-.447-1.7-.962-2.491-1.41-.498-.282-1.083-.353-1.63-.2-.547.153-1.015.515-1.295,1.011s-.35,1.084-.2,1.631c.151.548.512,1.013,1.01,1.295.791.447,1.7.962,2.491,1.41.498.282,1.083.353,1.63.2.547-.153,1.015-.515,1.295-1.011Z" style="fill: #dbd0dd; fill-rule: evenodd;"/>
            <path d="M71.673,102.643c.281-.496.35-1.084.2-1.631-.151-.548-.512-1.013-1.01-1.295l-2.491-1.41c-.498-.282-1.083-.353-1.63-.2-.547.153-1.015.515-1.295,1.011s-.35,1.084-.2,1.631c.151.548.512,1.013,1.01,1.295.791.447,1.7.962,2.491,1.41.498.282,1.083.353,1.63.2.547-.153,1.015-.515,1.295-1.011Z" style="fill: #dbd0dd; fill-rule: evenodd;"/>
            <path d="M68.5,108.248c.281-.496.35-1.084.2-1.631-.151-.548-.512-1.013-1.01-1.295-.791-.447-1.7-.962-2.491-1.41-.498-.282-1.083-.353-1.63-.2-.547.153-1.015.515-1.295,1.011s-.35,1.084-.2,1.631c.151.548.512,1.013,1.01,1.295.791.447,1.7.962,2.491,1.41.498.282,1.083.353,1.63.2.547-.153,1.015-.515,1.295-1.011Z" style="fill: #dbd0dd; fill-rule: evenodd;"/>
            <path d="M65.503,76.951c.281-.496.357-1.08.206-1.627-.157-.552-.518-1.016-1.017-1.298l-2.491-1.41c-.492-.278-1.076-.349-1.629-.2-.547.152-1.016.515-1.296,1.01s-.35,1.084-.199,1.631c.156.551.518,1.016,1.01,1.294l2.491,1.41c.499.282,1.083.353,1.637.204.547-.153,1.008-.519,1.289-1.014Z" style="fill: #3e193f; fill-rule: evenodd;"/>
            <path d="M62.33,82.556c.281-.496.357-1.08.206-1.627-.157-.552-.518-1.016-1.017-1.298l-2.491-1.41c-.492-.278-1.076-.349-1.629-.2-.547.152-1.016.515-1.296,1.01s-.35,1.084-.199,1.631c.156.551.518,1.016,1.01,1.294.791.448,1.706.966,2.491,1.41.499.282,1.083.353,1.637.204.547-.153,1.008-.519,1.289-1.014Z" style="fill: #dbd0dd; fill-rule: evenodd;"/>
            <path d="M59.158,88.16c.281-.496.357-1.08.206-1.627-.157-.552-.518-1.016-1.017-1.298l-2.491-1.41c-.492-.278-1.076-.349-1.629-.2-.547.152-1.016.515-1.296,1.01s-.35,1.084-.199,1.631c.156.551.518,1.016,1.01,1.294.791.448,1.706.966,2.491,1.41.499.282,1.083.353,1.637.204.547-.153,1.008-.519,1.289-1.014Z" style="fill: #dbd0dd; fill-rule: evenodd;"/>
            <path d="M55.986,93.765c.281-.496.357-1.08.206-1.627-.157-.552-.518-1.016-1.017-1.298l-2.491-1.41c-.492-.278-1.076-.349-1.629-.2-.547.152-1.016.515-1.296,1.01s-.35,1.084-.199,1.631c.156.551.518,1.016,1.01,1.294.791.448,1.706.966,2.491,1.41.499.282,1.083.353,1.637.204.547-.153,1.008-.519,1.289-1.014Z" style="fill: #dbd0dd; fill-rule: evenodd;"/>
            <path d="M52.814,99.369c.281-.496.357-1.08.206-1.627-.157-.552-.518-1.016-1.017-1.298-.784-.444-1.7-.962-2.491-1.41-.492-.278-1.076-.349-1.629-.2-.547.152-1.016.515-1.296,1.01s-.35,1.084-.199,1.631c.156.551.518,1.016,1.01,1.294.791.448,1.706.966,2.491,1.41.499.282,1.083.353,1.637.204.547-.153,1.008-.519,1.289-1.014Z" style="fill: #dbd0dd; fill-rule: evenodd;"/>
            <path d="M69.922,86.852c.281-.496.35-1.084.2-1.631-.151-.548-.512-1.013-1.01-1.295-.791-.447-1.7-.962-2.491-1.41-.498-.282-1.083-.353-1.63-.2-.547.153-1.015.515-1.295,1.011s-.35,1.084-.2,1.631c.151.548.512,1.013,1.01,1.295l2.491,1.41c.498.282,1.083.353,1.63.2.547-.153,1.015-.515,1.295-1.011Z" style="fill: #dbd0dd; fill-rule: evenodd;"/>
            <path d="M66.749,92.457c.281-.496.35-1.084.2-1.631-.151-.548-.512-1.013-1.01-1.295l-2.491-1.41c-.498-.282-1.083-.353-1.63-.2-.547.153-1.015.515-1.295,1.011s-.35,1.084-.2,1.631c.151.548.512,1.013,1.01,1.295.791.447,1.7.962,2.491,1.41.498.282,1.083.353,1.63.2.547-.153,1.015-.515,1.295-1.011Z" style="fill: #dbd0dd; fill-rule: evenodd;"/>
            <path d="M63.577,98.061c.281-.496.35-1.084.2-1.631-.151-.548-.512-1.013-1.01-1.295-.791-.447-1.7-.962-2.491-1.41-.498-.282-1.083-.353-1.63-.2-.547.153-1.015.515-1.295,1.011s-.35,1.084-.2,1.631c.151.548.512,1.013,1.01,1.295.791.447,1.7.962,2.491,1.41.498.282,1.083.353,1.63.2.547-.153,1.015-.515,1.295-1.011Z" style="fill: #dbd0dd; fill-rule: evenodd;"/>
            <path d="M60.405,103.666c.281-.496.35-1.084.2-1.631-.151-.548-.512-1.013-1.01-1.295-.791-.447-1.7-.962-2.491-1.41-.498-.282-1.083-.353-1.63-.2-.547.153-1.015.515-1.295,1.011s-.35,1.084-.2,1.631c.151.548.512,1.013,1.01,1.295.791.447,1.7.962,2.491,1.41.498.282,1.083.353,1.63.2.547-.153,1.015-.515,1.295-1.011Z" style="fill: #dbd0dd; fill-rule: evenodd;"/>
            <path d="M79.53,21.465h23.901c1.302,0,2.36,1.057,2.36,2.36v35.351c0,1.302-1.057,2.36-2.36,2.36h-23.901c-1.303,0-2.361-1.058-2.361-2.361V23.826c0-1.303,1.058-2.361,2.361-2.361Z" transform="translate(10.303 100.671) rotate(-60.49)" style="fill: #a0efff;"/>
            <g style="clip-path: url(#clippath-3);">
              <path d="M119.091,39.929l-42.264-23.921-15.738,27.805,6.392,3.771s9.77-17.261,13.23-23.374c.317-.56.846-.971,1.463-1.146.622-.171,1.284-.09,1.851.231,7.684,4.349,33.689,19.068,33.689,19.068l1.377-2.433Z" style="fill: #3798af; fill-rule: evenodd;"/>
              <line x1="71.946" y1="31.677" x2="109.944" y2="53.184" style="fill: none; stroke: #3e193f; stroke-linecap: round; stroke-linejoin: round; stroke-width: 2.147px;"/>
              <line x1="99.562" y1="27.948" x2="82.775" y2="57.607" style="fill: none; stroke: #3e193f; stroke-linecap: round; stroke-linejoin: round; stroke-width: 2.147px;"/>
              <line x1="84.753" y1="36.679" x2="83.966" y2="38.07" style="fill: none; stroke: #3e193f; stroke-linecap: round; stroke-linejoin: round; stroke-width: 2.147px;"/>
              <line x1="105.844" y1="48.808" x2="105.057" y2="50.198" style="fill: none; stroke: #3e193f; stroke-linecap: round; stroke-linejoin: round; stroke-width: 2.147px;"/>
              <line x1="77.904" y1="32.802" x2="77.117" y2="34.193" style="fill: none; stroke: #3e193f; stroke-linecap: round; stroke-linejoin: round; stroke-width: 2.147px;"/>
              <line x1="98.371" y1="44.578" x2="97.584" y2="45.969" style="fill: none; stroke: #3e193f; stroke-linecap: round; stroke-linejoin: round; stroke-width: 2.147px;"/>
              <line x1="95.992" y1="37.887" x2="94.603" y2="37.101" style="fill: none; stroke: #3e193f; stroke-linecap: round; stroke-linejoin: round; stroke-width: 2.147px;"/>
              <line x1="86.694" y1="53.095" x2="85.305" y2="52.309" style="fill: none; stroke: #3e193f; stroke-linecap: round; stroke-linejoin: round; stroke-width: 2.147px;"/>
              <line x1="98.886" y1="32.948" x2="97.491" y2="32.158" style="fill: none; stroke: #3e193f; stroke-linecap: round; stroke-linejoin: round; stroke-width: 2.147px;"/>
              <path d="M72.628,31.461s3.382-1.806,7.096-3.794c1.959-1.05,4.336-.964,6.215.22,1.88,1.183,2.983,3.287,2.885,5.509-.156,3.588-.333,7.575-.495,11.158-.097,2.219,1,4.32,2.878,5.505,1.878,1.186,4.252,1.277,6.208.232,8.632-4.588,19.982-10.623,19.982-10.623" style="fill: none; stroke: #af2a06; stroke-linecap: round; stroke-linejoin: round; stroke-width: 2.147px;"/>
            </g>
          </g>
        </g>
      </g>
    </g>
  </g>
</svg>