<?xml version="1.0" encoding="UTF-8"?>
<svg xmlns="http://www.w3.org/2000/svg" width="150" height="150" xmlns:xlink="http://www.w3.org/1999/xlink" version="1.1" viewBox="0 0 150 150">
  <!-- Generator: Adobe Illustrator 29.4.0, SVG Export Plug-In . SVG Version: 2.1.0 Build 152)  -->
  <defs>
    <clipPath id="clippath">
      <path d="M83.116,29.296l11.694,17.063c1.279,1.867,3.163,3.235,5.334,3.875l19.842,5.849c6.631,1.955,9.231,9.958,5.016,15.437l-12.614,16.395c-1.38,1.794-2.099,4.008-2.037,6.27l.569,20.678c.19,6.91-6.618,11.856-13.131,9.54l-19.49-6.931c-2.132-.758-4.461-.758-6.593,0l-19.49,6.931c-6.513,2.316-13.321-2.63-13.131-9.54l.569-20.678c.062-2.262-.657-4.477-2.037-6.27l-12.614-16.395c-4.215-5.479-1.615-13.482,5.016-15.437l19.842-5.849c2.171-.64,4.054-2.008,5.334-3.875l11.694-17.063c3.908-5.702,12.323-5.702,16.231,0Z" style="fill: none;"/>
    </clipPath>
    <clipPath id="clippath-2">
      <path d="M114.858,0H38.401l-3.59,70.655h9.628c-.058,1.111.253,2.258,1.01,3.243l8.127,10.563c.69.897,1.05,2.004,1.019,3.135l-.367,13.322c-.095,3.455,3.309,5.928,6.566,4.77l6.609-2.35.429-.135c5.378-1.468,10.825-1.267,15.86.525l5.514,1.961c3.257,1.158,6.66-1.315,6.565-4.77l-.367-13.323c-.031-1.131.329-2.238,1.019-3.135l2.9-3.77,3.602,5.953,1.383.203c.644.095,1.301-.011,1.884-.302l2.455-1.228,1.048-6.509,6.268-9.897L114.858,0Z" style="fill: none;"/>
    </clipPath>
    <clipPath id="clippath-4">
      <path d="M47.874,30.238c0-2.262,1.842-4.104,4.112-4.104h36.352c6.947,0,12.589,5.634,12.589,12.589v25.953c0,6.947-5.642,12.589-12.589,12.589h-27.875c-6.947,0-12.748-5.56-12.748-12.507l.159-34.519Z" style="clip-rule: evenodd; fill: none;"/>
    </clipPath>
    <clipPath id="clippath-5">
      <path d="M108.465,20.274l.005,20.809-8.1-5.201c-.329-.212-.713-.324-1.104-.324l-49.653.012c-4.753.001-8.607-3.851-8.609-8.604l-.002-8.777c-.001-5.947,4.816-10.771,10.763-10.777l43.774-.045c7.134-.008,12.923,5.772,12.925,12.907Z" style="fill: none;"/>
    </clipPath>
  </defs>
  <g style="isolation: isolate;">
    <g id="Layer_1">
      <g style="clip-path: url(#clippath);">
        <path d="M83.116,29.296l11.694,17.063c1.279,1.867,3.163,3.235,5.334,3.875l19.842,5.849c6.631,1.955,9.231,9.958,5.016,15.437l-12.614,16.395c-1.38,1.794-2.099,4.008-2.037,6.27l.569,20.678c.19,6.91-6.618,11.856-13.131,9.54l-19.49-6.931c-2.132-.758-4.461-.758-6.593,0l-19.49,6.931c-6.513,2.316-13.321-2.63-13.131-9.54l.569-20.678c.062-2.262-.657-4.477-2.037-6.27l-12.614-16.395c-4.215-5.479-1.615-13.482,5.016-15.437l19.842-5.849c2.171-.64,4.054-2.008,5.334-3.875l11.694-17.063c3.908-5.702,12.323-5.702,16.231,0Z" style="fill: #802275;"/>
        <path d="M83.692,103.728c-5.034-1.791-10.479-1.992-15.855-.526-.146.04-.291.086-.433.137l-6.608,2.35c-3.257,1.158-6.661-1.315-6.566-4.77l.367-13.322c.031-1.131-.329-2.238-1.019-3.135l-8.127-10.563c-2.108-2.739-.807-6.741,2.508-7.718l12.783-3.768c1.085-.32,2.027-1.004,2.667-1.938l7.534-10.994c1.954-2.851,6.161-2.851,8.115,0l7.535,10.994c.64.933,1.582,1.618,2.667,1.938l12.783,3.768c3.315.977,4.616,4.979,2.508,7.718l-8.127,10.562c-.69.897-1.05,2.004-1.019,3.135l.367,13.323c.095,3.455-3.309,5.928-6.566,4.77l-5.513-1.961Z" style="fill: #590e57;"/>
        <rect x="21.095" y="25.019" width="53.905" height="100.55" transform="translate(96.095 150.588) rotate(180)" style="fill: #d2deef; mix-blend-mode: multiply;"/>
      </g>
      <g style="clip-path: url(#clippath-2);">
        <g>
          <path d="M90.905,81.76h6.599c1.864,0,3.43,1.4,3.633,3.249,1.16,10.421,4.721,42.334,4.721,42.334l-3.597,2.77-8.847-1.958-2.509-46.395Z" style="fill: #5a3120; fill-rule: evenodd;"/>
          <path d="M74.473,73.037c4.699,0,8.513,3.981,8.513,8.883s-3.814,8.883-8.513,8.883-8.506-3.981-8.506-8.883,3.814-8.883,8.506-8.883Z" style="fill: #eeb318; fill-rule: evenodd;"/>
          <path d="M59.803,81.76h-6.215c-2.262,0-4.162,1.711-4.402,3.967-1.153,11.088-4.329,41.616-4.329,41.616l3.459,1.124,8.985-.312,2.502-46.395Z" style="fill: #5a3120; fill-rule: evenodd;"/>
          <path d="M92.399,81.76h-35.525l-3.952,40.13s-.515.979-1.095,2.059c-.921,1.726-.66,3.836.653,5.286h43.748c1.762-1.951,1.813-4.895.116-6.896-.391-.464-.66-.783-.66-.783l-3.285-39.796Z" style="fill: #773f2b; fill-rule: evenodd;"/>
          <polygon points="74.647 88.504 83.516 81.76 73.777 80.933 65.749 81.76 74.647 88.504" style="fill: #eeb318; fill-rule: evenodd;"/>
          <rect x="45.422" y="60.356" width="3.463" height="5.059" style="fill: #2b4745;"/>
          <g>
            <polygon points="108.469 34.739 108.469 84.792 101.865 84.792 101.865 78.518 94.918 78.518 94.918 85.871 86.958 85.871 86.958 34.739 108.469 34.739" style="fill: #c1976d;"/>
            <rect x="103.451" y="58.995" width="3.44" height="23.84" rx="1.72" ry="1.72" style="fill: #ffcc93; opacity: .5;"/>
          </g>
          <g>
            <path d="M104.241,22.189c0-1.914-.761-3.742-2.11-5.091-1.356-1.356-3.183-2.11-5.09-2.11h-37.534c0,12.712,10.304,23.024,23.024,23.024h21.711v-15.823Z" style="fill: #071c1c; fill-rule: evenodd;"/>
            <rect x="65.902" y="67.256" width="17.115" height="14.663" style="fill: #eeb318;"/>
            <path d="M74.654,58.359c4.873,0,8.832,3.981,8.832,8.883s-3.959,8.883-8.832,8.883-8.84-3.981-8.84-8.883,3.959-8.883,8.84-8.883Z" style="fill: #784379; fill-rule: evenodd;"/>
            <rect x="52.479" y="129.236" width="43.748" height="3.618" style="fill: #5a3120;"/>
            <path d="M44.278,44.161c-5.018,1.349-7.998,6.512-6.657,11.537,1.349,5.018,6.512,7.998,11.537,6.657,5.018-1.349,7.999-6.512,6.657-11.537-1.349-5.018-6.512-7.998-11.537-6.657Z" style="fill: #eeb318; fill-rule: evenodd;"/>
            <path d="M47.874,30.238c0-2.262,1.842-4.104,4.112-4.104h36.352c6.947,0,12.589,5.634,12.589,12.589v25.953c0,6.947-5.642,12.589-12.589,12.589h-27.875c-6.947,0-12.589-5.642-12.589-12.589V30.238Z" style="fill: #f4d511; fill-rule: evenodd;"/>
            <g style="clip-path: url(#clippath-4);">
              <path d="M92.557,48.989v9.513c0,2.98-2.415,5.395-5.395,5.395h-12.935c-.125-.156-.257-.306-.4-.447-1.014-1.015-2.42-1.596-3.857-1.596h-.798c-1.458,0-2.828.567-3.842,1.581-.148.146-.283.301-.413.462h-17.827v14.638h54.909v-29.95l-9.444.405Z" style="fill: #2b4745; fill-rule: evenodd;"/>
            </g>
            <rect x="53.581" y="43.276" width="11.516" height="19.775" rx="2.038" ry="2.038" style="fill: #fff;"/>
            <path d="M76.605,45.343c0-1.138.928-2.067,2.074-2.067h7.367c1.146,0,2.074.928,2.074,2.067v15.642c0,1.138-.928,2.067-2.074,2.067h-7.367c-1.146,0-2.074-.928-2.074-2.067v-15.642Z" style="fill: #fff; fill-rule: evenodd;"/>
            <rect x="57.325" y="44.731" width="6.062" height="14.931" rx="1.537" ry="1.537"/>
            <rect x="80.349" y="44.731" width="6.062" height="14.931" rx="1.537" ry="1.537"/>
            <path d="M104.965,30.173c0-3.843-3.288-6.961-7.331-6.961s-7.323,3.118-7.323,6.961v15.678c0,3.843,3.28,6.962,7.323,6.962s7.331-3.118,7.331-6.962v-15.678Z" style="fill: #c1976d; fill-rule: evenodd;"/>
            <rect x="53.523" y="38.667" width="11.365" height="4.68" style="fill: #eeb318;"/>
            <rect x="76.605" y="38.631" width="11.365" height="4.68" style="fill: #eeb318;"/>
            <path d="M68.201,57.076h1.98c.551,0,1.088.225,1.479.616.391.392.609.921.609,1.479s-.218,1.088-.609,1.479c-.392.399-.928.616-1.479.616h-1.98v-4.191Z" style="fill: #eeb318; fill-rule: evenodd;"/>
            <path d="M68.229,57.076c-1.16,0-2.096.943-2.096,2.096,0,1.16.935,2.096,2.096,2.096,1.153,0,2.096-.935,2.096-2.096,0-1.153-.943-2.096-2.096-2.096Z" style="fill: #ffe52e; fill-rule: evenodd;"/>
            <path d="M102.138,60.592v5.648c0,7.442-6.033,13.475-13.475,13.475h-29.766c-7.442,0-13.475-6.033-13.475-13.475v-.893h45.769l10.948-7.31v2.555Z" style="fill: #2b4745; fill-rule: evenodd;"/>
            <path d="M67.081,65.102c0-.189.159-.348.354-.348h4.273c.195,0,.354.159.354.348v.006c0,.568-.226,1.117-.635,1.52-.403.403-.946.629-1.52.629h-.671c-.568,0-1.117-.226-1.52-.629-.409-.403-.635-.952-.635-1.52v-.006Z" style="fill: #eeb318; fill-rule: evenodd;"/>
          </g>
          <g id="chapéu">
            <path d="M104.965,22.596l-47.881.012c-3.886,0-7.037-3.148-7.038-7.034v-3.093c-.002-6.877,5.57-12.455,12.447-12.46L90.706,0c7.871-.006,14.255,6.372,14.257,14.243l.002,8.353Z" style="fill: #773f2b;"/>
            <path d="M108.465,20.274l.004,15.283-58.855.014c-4.753.001-8.607-3.851-8.609-8.604l-.002-8.777c-.001-5.947,4.816-10.771,10.763-10.777l43.774-.045c7.134-.008,12.923,5.772,12.925,12.907Z" style="fill: #c1976d;"/>
            <g style="clip-path: url(#clippath-5);">
              <path d="M100.029,35.55l-53.578.013c-7.728.002-13.995-6.262-13.997-13.99l-.005-22.449,8.49-.002.005,22.449c0,3.039,2.465,5.502,5.504,5.502l53.578-.013c4.689-.001,8.491,3.799,8.493,8.488l-.05.727h0c-1.537-.481-3.139-.726-4.75-.726h-3.69Z" style="fill: #ffeac0;"/>
              <path d="M110.214,17.446l-15.762.004c-1.472.015-2.654,1.222-2.639,2.694.015,1.472,1.222,2.654,2.694,2.639l15.762-.004c1.472-.016,2.654-1.223,2.639-2.694-.015-1.471-1.222-2.654-2.694-2.639Z" style="fill: #ffcc93; opacity: .5;"/>
              <path d="M80.857,17.491l-7.858-.016c-1.472.015-2.654,1.222-2.639,2.694.015,1.472,1.222,2.654,2.694,2.639l7.858.016c1.472-.016,2.654-1.223,2.639-2.694-.015-1.471-1.222-2.654-2.694-2.639Z" style="fill: #ffcc93; opacity: .5;"/>
            </g>
          </g>
          <path d="M102.855,44.161c-5.025,1.349-8.006,6.512-6.664,11.537,1.349,5.018,6.519,7.998,11.537,6.657,4.9-1.317,8.123-6.074,6.657-11.537-1.342-5.018-6.512-7.998-11.53-6.657Z" style="fill: #f4d511; fill-rule: evenodd;"/>
          <path d="M104.473,50.385c-1.682.457-2.676,2.183-2.226,3.865.45,1.682,2.183,2.683,3.858,2.226,1.682-.45,2.683-2.175,2.233-3.858-.45-1.682-2.183-2.683-3.865-2.234Z" style="fill: #eeb318; fill-rule: evenodd;"/>
          <path d="M85.97,82.83l-2.902-2.869-3.749,3.716c-2.692,2.668-7.056,2.668-9.748,0l-3.749-3.716-4.463,4.431,8.912,8.84,4.174-4.137,4.167,4.137,7.358-10.401Z" style="fill: #773f2b; fill-rule: evenodd;"/>
        </g>
      </g>
    </g>
  </g>
</svg>