<?xml version="1.0" encoding="UTF-8"?>
<svg xmlns="http://www.w3.org/2000/svg" width="150" height="150" xmlns:xlink="http://www.w3.org/1999/xlink" version="1.1" viewBox="0 0 150 150">
  <!-- Generator: Adobe Illustrator 29.4.0, SVG Export Plug-In . SVG Version: 2.1.0 Build 152)  -->
  <defs>
    <clipPath id="clippath">
      <path d="M83.116,29.296l11.694,17.063c1.279,1.867,3.163,3.235,5.334,3.875l19.842,5.849c6.631,1.955,9.231,9.958,5.016,15.437l-12.614,16.395c-1.38,1.794-2.099,4.008-2.037,6.27l.569,20.678c.19,6.91-6.618,11.856-13.131,9.54l-19.49-6.931c-2.132-.758-4.461-.758-6.593,0l-19.49,6.931c-6.513,2.316-13.321-2.63-13.131-9.54l.569-20.678c.062-2.262-.657-4.477-2.037-6.27l-12.614-16.395c-4.215-5.479-1.615-13.482,5.016-15.437l19.842-5.849c2.171-.64,4.054-2.008,5.334-3.875l11.694-17.063c3.908-5.702,12.323-5.702,16.231,0Z" style="fill: none;"/>
    </clipPath>
    <clipPath id="clippath-2">
      <path d="M125.858,0H29.401v70.655h15.038c-.058,1.111.253,2.258,1.01,3.243l8.127,10.563c.69.897,1.05,2.004,1.019,3.135l-.367,13.322c-.095,3.455,3.309,5.928,6.566,4.77l6.608-2.35c.142-.051.288-.097.433-.137,5.377-1.466,10.821-1.265,15.855.526l5.513,1.96c3.257,1.158,6.661-1.315,6.566-4.77l-.367-13.323c-.031-1.131.329-2.239,1.019-3.135l8.127-10.562c.758-.984,1.068-2.131,1.01-3.243h20.297V0Z" style="fill: none;"/>
    </clipPath>
  </defs>
  <g style="isolation: isolate;">
    <g id="Layer_1">
      <g style="clip-path: url(#clippath);">
        <path d="M83.116,29.296l11.694,17.063c1.279,1.867,3.163,3.235,5.334,3.875l19.842,5.849c6.631,1.955,9.231,9.958,5.016,15.437l-12.614,16.395c-1.38,1.794-2.099,4.008-2.037,6.27l.569,20.678c.19,6.91-6.618,11.856-13.131,9.54l-19.49-6.931c-2.132-.758-4.461-.758-6.593,0l-19.49,6.931c-6.513,2.316-13.321-2.63-13.131-9.54l.569-20.678c.062-2.262-.657-4.477-2.037-6.27l-12.614-16.395c-4.215-5.479-1.615-13.482,5.016-15.437l19.842-5.849c2.171-.64,4.054-2.008,5.334-3.875l11.694-17.063c3.908-5.702,12.323-5.702,16.231,0Z" style="fill: #802275;"/>
        <path d="M83.692,103.728c-5.034-1.791-10.479-1.992-15.855-.526-.146.04-.291.086-.433.137l-6.608,2.35c-3.257,1.158-6.661-1.315-6.566-4.77l.367-13.322c.031-1.131-.329-2.238-1.019-3.135l-8.127-10.563c-2.108-2.739-.807-6.741,2.508-7.718l12.783-3.768c1.085-.32,2.027-1.004,2.667-1.938l7.534-10.994c1.954-2.851,6.161-2.851,8.115,0l7.535,10.994c.64.933,1.582,1.618,2.667,1.938l12.783,3.768c3.315.977,4.616,4.979,2.508,7.718l-8.127,10.562c-.69.897-1.05,2.004-1.019,3.135l.367,13.323c.095,3.455-3.309,5.928-6.566,4.77l-5.513-1.961Z" style="fill: #590e57;"/>
        <rect x="21.095" y="25.019" width="53.905" height="100.55" transform="translate(96.095 150.588) rotate(180)" style="fill: #d2deef; mix-blend-mode: multiply;"/>
      </g>
      <g style="clip-path: url(#clippath-2);">
        <g>
          <rect x="61.28" y="71.438" width="30.782" height="4.482" style="fill: #32303e;"/>
          <g>
            <path d="M110.252,6.271C110.252,2.808,107.109,0,103.23,0c-18.178,0-65.363,0-65.363,0,0,0-.086,12.928-.136,20.701-.01,1.517.657,2.974,1.855,4.049,1.197,1.075,2.826,1.68,4.524,1.68,17.739,0,66.143,0,66.143,0,0,0,0-12.343,0-20.16Z" style="fill: #fff; fill-rule: evenodd;"/>
            <rect x="65.708" y="63.869" width="20.668" height="16.97" style="fill: #edb218;"/>
            <circle cx="53.25" cy="81.725" r="6.128" style="fill: #050505;"/>
            <polygon points="40.551 114.047 61.116 115.228 59.239 81.123 55.018 75.597 53.114 75.597 52.137 80.643 47.41 80.322 40.551 114.047" style="fill: #050505; fill-rule: evenodd;"/>
            <path d="M98.305,74.151c-3.323,0-6.021,2.698-6.021,6.021,0,3.322,2.698,6.02,6.021,6.02s6.021-2.698,6.021-6.02-2.698-6.021-6.021-6.021Z" style="fill: #050505; fill-rule: evenodd;"/>
            <polygon points="112.81 112.292 90.804 113.782 92.681 79.677 104.325 79.861 112.81 112.292" style="fill: #050505; fill-rule: evenodd;"/>
            <path d="M40.941,29.254c-5.81,1.557-9.264,7.539-7.708,13.349,1.557,5.81,7.539,9.264,13.349,7.707,5.81-1.557,9.264-7.538,7.708-13.348-1.557-5.811-7.539-9.265-13.349-7.708Z" style="fill: #edb218; fill-rule: evenodd;"/>
            <path d="M59.417,8.388h32.263c8.041,0,14.569,6.528,14.569,14.569v30.04c0,8.041-6.529,14.57-14.57,14.57h-32.262c-8.041,0-14.569-6.528-14.569-14.569v-30.041c0-8.041,6.528-14.569,14.569-14.569Z" style="fill: #f3d412;"/>
            <path d="M66.384,52.482c0-.49.397-.886.886-.886h5.071c.49,0,.886.396.886.886v.002c0,1.411-1.144,2.555-2.555,2.555-.566,0-1.167,0-1.733,0-1.411,0-2.555-1.144-2.555-2.555v-.002Z" style="fill: #edb218; fill-rule: evenodd;"/>
            <g>
              <path d="M67.006,44.419h3.814c.643,0,1.259.255,1.714.71.454.455.71,1.071.71,1.714v.003c0,.643-.255,1.26-.71,1.714-.454.454-1.071.709-1.714.709h-3.814v-4.851Z" style="fill: #edb218; fill-rule: evenodd;"/>
              <path d="M67.42,44.419c-1.339,0-2.425,1.087-2.425,2.425,0,1.339,1.087,2.425,2.425,2.425s2.425-1.087,2.425-2.425c0-1.339-1.087-2.425-2.425-2.425Z" style="fill: #ffe42e; fill-rule: evenodd;"/>
            </g>
            <path d="M110.271,17.831c0-3.918-3.181-7.099-7.099-7.099s-7.099,3.181-7.099,7.099v13.047c0,3.918,3.181,7.099,7.099,7.099,3.918,0,7.099-3.181,7.099-7.099v-13.047Z" style="fill: #fff; fill-rule: evenodd;"/>
            <path d="M108.73,29.254c-5.81,1.557-9.264,7.539-7.707,13.349,1.557,5.81,7.538,9.264,13.349,7.707,5.81-1.557,9.264-7.538,7.707-13.348-1.557-5.811-7.538-9.265-13.349-7.708Z" style="fill: #f3d412; fill-rule: evenodd;"/>
            <path d="M110.607,36.258c-1.946.521-3.102,2.524-2.581,4.469.521,1.946,2.524,3.102,4.47,2.581,1.946-.521,3.102-2.524,2.581-4.47s-2.524-3.102-4.47-2.58Z" style="fill: #edb218; fill-rule: evenodd;"/>
            <polygon points="100.183 91.348 75.33 76.956 54.511 84.237 49.524 148.017 102.138 148.017 100.183 91.348" style="fill: #060606; fill-rule: evenodd;"/>
            <g>
              <rect x="77.615" y="32.435" width="12.174" height="18.376" rx="3.044" ry="3.044" style="fill: #fff;"/>
              <rect x="77.668" y="26.246" width="12.069" height="4.668" style="fill: #edb218;"/>
              <rect x="77.668" y="50.849" width="12.069" height="4.668" rx="2.334" ry="2.334" style="fill: #ffe42e;"/>
            </g>
            <g>
              <rect x="51.515" y="32.435" width="12.174" height="18.376" rx="3.044" ry="3.044" style="fill: #fff;"/>
              <path d="M56.644,34.575h4.186c.666,0,1.207.541,1.207,1.207v10.387c0,.667-.541,1.208-1.208,1.208h-4.187c-.666,0-1.207-.541-1.207-1.207v-10.386c0-.667.541-1.208,1.208-1.208Z" style="fill: #071c1c;"/>
              <path d="M83.106,34.575h4.186c.666,0,1.207.541,1.207,1.207v10.387c0,.667-.541,1.208-1.208,1.208h-4.187c-.666,0-1.207-.541-1.207-1.207v-10.386c0-.667.541-1.208,1.208-1.208Z" style="fill: #071c1c;"/>
              <rect x="51.568" y="26.246" width="12.069" height="4.668" style="fill: #edb218;"/>
              <rect x="51.568" y="50.849" width="12.069" height="4.668" rx="2.334" ry="2.334" style="fill: #ffe42e;"/>
            </g>
          </g>
          <g>
            <polygon points="91.749 73.679 83.762 73.679 74.625 77.235 68.574 73.679 59.444 73.679 70.452 115.593 72.682 115.122 92.756 79.579 91.749 73.679" style="fill: #e0e0e0; fill-rule: evenodd;"/>
            <line x1="74.538" y1="79.015" x2="70.452" y2="116.626" style="fill: none; stroke: #d1cfcf; stroke-miterlimit: 10; stroke-width: 1.031px;"/>
            <g>
              <path d="M74.502,78.229l1.671,6c.205.735,1.06,1.065,1.705.658l11.627-7.339c.55-.347.698-1.083.325-1.616l-2.824-4.035c-.326-.466-.947-.62-1.453-.36l-10.474,5.373c-.481.247-.722.798-.577,1.319Z" style="fill: #ececec; fill-rule: evenodd;"/>
              <path d="M74.056,76.863l-7.789-5.355c-.475-.327-1.119-.25-1.505.179l-3.179,3.545c-.433.483-.38,1.228.116,1.645l8.637,7.258c.59.496,1.491.281,1.794-.427l2.331-5.448c.215-.503.046-1.087-.405-1.397Z" style="fill: #ececec; fill-rule: evenodd;"/>
            </g>
            <g>
              <path d="M80.644,74.205l-6.106,4.81-6.106-4.81c-.676-.533-1.669-.051-1.669.81v8.189c0,.861.993,1.343,1.669.81l6.106-4.81,6.106,4.81c.676.533,1.669.051,1.669-.81v-8.189c0-.861-.993-1.343-1.669-.81Z" style="fill: #101010; fill-rule: evenodd;"/>
              <rect x="72.687" y="77.164" width="3.703" height="3.703" rx="1.031" ry="1.031" style="fill: #101010;"/>
            </g>
            <g>
              <path d="M90.86,71.899l-20.309,43.134c-.065.137-.098.287-.098.439v.121c0,.881,1.032,1.356,1.702.784l26.514-22.676c.178-.153.299-.362.343-.592l2.779-14.699c.077-.41-.1-.826-.449-1.054l-8.983-5.88c-.524-.343-1.231-.143-1.498.424Z" style="fill: #101010; fill-rule: evenodd;"/>
              <path d="M61.073,71.449l-9.29,3.555c-.374.143-.631.49-.66.889l-1.078,14.999c-.017.237.048.473.185.667l19.306,27.445c.579.824,1.875.414,1.875-.593v-3.541c0-.071-.007-.143-.022-.212l-8.938-42.457c-.131-.621-.785-.977-1.378-.751Z" style="fill: #101010; fill-rule: evenodd;"/>
            </g>
            <g>
              <circle cx="76.39" cy="88.075" r="1.007" style="fill: #adadad;"/>
              <circle cx="75.652" cy="93.966" r="1.007" style="fill: #adadad;"/>
              <circle cx="74.915" cy="99.857" r="1.007" style="fill: #adadad;"/>
            </g>
          </g>
        </g>
      </g>
    </g>
  </g>
</svg>