<?xml version="1.0" encoding="UTF-8"?>
<svg xmlns="http://www.w3.org/2000/svg" width="150" height="150" xmlns:xlink="http://www.w3.org/1999/xlink" version="1.1" viewBox="0 0 150 150">
  <!-- Generator: Adobe Illustrator 29.4.0, SVG Export Plug-In . SVG Version: 2.1.0 Build 152)  -->
  <defs>
    <clipPath id="clippath">
      <path d="M83.116,29.296l11.694,17.063c1.279,1.867,3.163,3.235,5.334,3.875l19.842,5.849c6.631,1.955,9.231,9.958,5.016,15.437l-12.614,16.395c-1.38,1.794-2.099,4.008-2.037,6.27l.569,20.678c.19,6.91-6.618,11.856-13.131,9.54l-19.49-6.931c-2.132-.758-4.461-.758-6.593,0l-19.49,6.931c-6.513,2.316-13.321-2.63-13.131-9.54l.569-20.678c.062-2.262-.657-4.477-2.037-6.27l-12.614-16.395c-4.215-5.479-1.615-13.482,5.016-15.437l19.842-5.849c2.171-.64,4.054-2.008,5.334-3.875l11.694-17.063c3.908-5.702,12.323-5.702,16.231,0Z" style="fill: none;"/>
    </clipPath>
    <clipPath id="clippath-1">
      <path d="M114.858,0H36.401v70.655h8.038c-.058,1.111.253,2.258,1.01,3.243l8.127,10.563c.69.897,1.05,2.004,1.019,3.135l-.367,13.322c-.095,3.455,3.309,5.928,6.566,4.77l6.608-2.35c.142-.051.288-.097.433-.137,5.377-1.466,10.821-1.265,15.855.526l5.513,1.96c3.257,1.158,6.661-1.315,6.566-4.77l-.367-13.323c-.031-1.131.329-2.239,1.019-3.135l8.127-10.562c.758-.984,1.068-2.131,1.01-3.243h9.297V0Z" style="fill: none;"/>
    </clipPath>
  </defs>
  <g style="isolation: isolate;">
    <g id="Layer_1">
      <g style="clip-path: url(#clippath);">
        <path d="M83.116,29.296l11.694,17.063c1.279,1.867,3.163,3.235,5.334,3.875l19.842,5.849c6.631,1.955,9.231,9.958,5.016,15.437l-12.614,16.395c-1.38,1.794-2.099,4.008-2.037,6.27l.569,20.678c.19,6.91-6.618,11.856-13.131,9.54l-19.49-6.931c-2.132-.758-4.461-.758-6.593,0l-19.49,6.931c-6.513,2.316-13.321-2.63-13.131-9.54l.569-20.678c.062-2.262-.657-4.477-2.037-6.27l-12.614-16.395c-4.215-5.479-1.615-13.482,5.016-15.437l19.842-5.849c2.171-.64,4.054-2.008,5.334-3.875l11.694-17.063c3.908-5.702,12.323-5.702,16.231,0Z" style="fill: #802275;"/>
        <path d="M83.692,103.728c-5.034-1.791-10.479-1.992-15.855-.526-.146.04-.291.086-.433.137l-6.608,2.35c-3.257,1.158-6.661-1.315-6.566-4.77l.367-13.322c.031-1.131-.329-2.238-1.019-3.135l-8.127-10.563c-2.108-2.739-.807-6.741,2.508-7.718l12.783-3.768c1.085-.32,2.027-1.004,2.667-1.938l7.534-10.994c1.954-2.851,6.161-2.851,8.115,0l7.535,10.994c.64.933,1.582,1.618,2.667,1.938l12.783,3.768c3.315.977,4.616,4.979,2.508,7.718l-8.127,10.562c-.69.897-1.05,2.004-1.019,3.135l.367,13.323c.095,3.455-3.309,5.928-6.566,4.77l-5.513-1.961Z" style="fill: #590e57;"/>
        <rect x="21.095" y="25.019" width="53.905" height="100.55" transform="translate(96.095 150.588) rotate(180)" style="fill: #d2deef; mix-blend-mode: multiply;"/>
      </g>
      <g style="clip-path: url(#clippath-1);">
        <g>
          <path d="M46.591,24.692v30.622c0,3.268-.819,6.483-2.383,9.352l-.002.003c-.391.718.128,1.593.946,1.593h8.152c1.285,0,2.326-1.041,2.326-2.326V24.692s-9.04-3.604-9.04,0" style="fill: #081c1c; fill-rule: evenodd;"/>
          <path d="M101.885,38.101c.421-.084.85-.127,1.28-.127l6.882,2.006c-3.604,0-6.525,2.921-6.525,6.525v.909c0,3.267.819,6.483,2.383,9.352l.002.003c.391.718-.129,1.593-.946,1.593h-12.468v-18.382s7.191-1.438,9.393-1.879" style="fill: #081c1c; fill-rule: evenodd;"/>
          <path d="M71.939,82.907h-11.726v-11.057c0-.606.491-1.097,1.097-1.097h9.532c.606,0,1.097.491,1.097,1.097v11.057Z" style="fill: #c0ccd6; fill-rule: evenodd;"/>
          <rect x="66.209" y="69.717" width="17.411" height="11.698" style="fill: #e1671e;"/>
          <polygon points="98.382 167.287 51.666 167.287 51.334 141.575 76.733 114.837 94.387 141.437 98.453 141.575 98.382 167.287" style="fill: #b67d42; fill-rule: evenodd;"/>
          <path d="M88.3,76.363h-28.257c-7.554,0-5.988,5.795-6.608,13.324-1.383,16.805-3.583,43.533-3.583,43.533h50.949l-12.501-56.857Z" style="fill: #d5dde6; fill-rule: evenodd;"/>
          <polygon points="90.694 96.956 71.72 111.227 55.541 106.481 57.389 135.202 88.518 135.202 90.694 96.956" style="fill: #444356; fill-rule: evenodd;"/>
          <path d="M66.209,76.402s1.451,3.654,8.119,3.654,9.292-3.654,9.292-3.654l-10.042-2.639-7.369,2.639Z" style="fill: #e1671e; fill-rule: evenodd;"/>
          <path d="M107.493,16.526c0-4.1-3.135-7.521-7.22-7.877-2.318-.201-4.298-.373-4.298-.373v-.369c0-2.105-.839-4.123-2.333-5.607C92.15.815,90.126-.012,88.021,0c-8.625.053-22.554.138-32.988.201-7.674.047-13.871,6.281-13.871,13.956v13.184c0,1.099.891,1.99,1.99,1.99h3.023v13.369l19.729-3.342,8.288,10.027h25.721c4.186,0,7.58-3.394,7.58-7.58v-25.28Z" style="fill: #081c1c; fill-rule: evenodd;"/>
          <path d="M45.275,36.832c-4.852,1.301-7.736,6.295-6.436,11.147,1.3,4.853,6.295,7.737,11.148,6.436,4.852-1.3,7.736-6.296,6.436-11.147-1.3-4.853-6.295-7.737-11.147-6.436" style="fill: #e1671e; fill-rule: evenodd;"/>
          <rect x="50.468" y="9.278" width="47.245" height="63.503" rx="11.632" ry="11.632" style="fill: #f58028;"/>
          <rect x="76.13" y="26.749" width="12.123" height="4.466" style="fill: #e1671e;"/>
          <rect x="52.521" y="26.749" width="12.123" height="4.466" style="fill: #e1671e;"/>
          <path d="M78.363,60.536h7.657c1.233,0,2.233-1,2.233-2.233s-1-2.233-2.233-2.233h-7.657c-1.233,0-2.233,1-2.233,2.233s1,2.233,2.233,2.233" style="fill: #f5a040; fill-rule: evenodd;"/>
          <path d="M54.754,60.536h7.657c1.234,0,2.233-1,2.233-2.233s-1-2.233-2.233-2.233h-7.657c-1.233,0-2.233,1-2.233,2.233s1,2.233,2.233,2.233" style="fill: #f5a040; fill-rule: evenodd;"/>
          <path d="M79.16,32.674h6.062c1.673,0,3.031,1.358,3.031,3.031v17.334c0,1.673-1.358,3.031-3.031,3.031h-6.062c-1.673,0-3.031-1.358-3.031-3.031v-17.334c0-1.673,1.358-3.03,3.03-3.03Z" style="fill: #fff;"/>
          <path d="M55.552,32.674h6.062c1.673,0,3.031,1.358,3.031,3.031v17.334c0,1.673-1.358,3.031-3.031,3.031h-6.062c-1.673,0-3.031-1.358-3.031-3.031v-17.334c0-1.673,1.358-3.03,3.03-3.03Z" style="fill: #fff;"/>
          <path d="M81.372,37.146h3.839c.701,0,1.27.569,1.27,1.27v13.056c0,.701-.569,1.271-1.271,1.271h-3.839c-.701,0-1.271-.569-1.271-1.271v-13.056c0-.702.57-1.271,1.271-1.271Z" style="fill: #081c1c;"/>
          <path d="M57.764,37.146h3.839c.701,0,1.27.569,1.27,1.27v13.056c0,.701-.569,1.271-1.271,1.271h-3.839c-.701,0-1.271-.569-1.271-1.271v-13.056c0-.702.57-1.271,1.271-1.271Z" style="fill: #081c1c;"/>
          <path d="M101.222,36.328c-4.852,1.301-7.736,6.295-6.436,11.148,1.3,4.852,6.295,7.736,11.148,6.435,4.852-1.3,7.736-6.295,6.436-11.147-1.301-4.852-6.295-7.736-11.148-6.436" style="fill: #f58028; fill-rule: evenodd;"/>
          <path d="M102.789,42.176c-1.625.435-2.591,2.108-2.155,3.733.435,1.625,2.108,2.591,3.733,2.155,1.625-.436,2.591-2.108,2.155-3.733-.436-1.625-2.108-2.591-3.733-2.155" style="fill: #e1671e; fill-rule: evenodd;"/>
          <path d="M68.829,52.377h2.904c1.019,0,1.845.826,1.845,1.845v.002c0,1.019-.826,1.845-1.845,1.845h-2.904v-3.692Z" style="fill: #e1671e; fill-rule: evenodd;"/>
          <path d="M68.78,52.377c-1.019,0-1.846.828-1.846,1.847s.827,1.846,1.846,1.846,1.846-.827,1.846-1.846-.827-1.847-1.846-1.847" style="fill: #f5a040; fill-rule: evenodd;"/>
          <path d="M74.844,60.555c.094-.262.054-.553-.106-.78-.16-.228-.421-.363-.699-.363h-6.738c-.278,0-.539.136-.699.363-.16.227-.2.518-.106.78.036.102.073.205.11.307.262.734.957,1.223,1.736,1.223h4.654c.779,0,1.474-.489,1.736-1.223.037-.102.074-.206.11-.307" style="fill: #e1671e; fill-rule: evenodd;"/>
          <path d="M89.92,7.733c-.421-.084-.85-.127-1.28-.127h-31.599c-3.604,0-6.525,2.921-6.525,6.525v2.006c0-1.731.687-3.39,1.911-4.614,1.224-1.224,2.883-1.911,4.614-1.911h24.717c3.604,0,6.525,2.922,6.525,6.525v.909c0,3.267-.819,6.483-2.383,9.352l-.002.003c-.391.718.129,1.593.946,1.593h12.468V9.612s-7.191-1.438-9.393-1.879" style="fill: #081c1c; fill-rule: evenodd;"/>
          <path d="M88.279,82.907h-11.726v-11.057c0-.606.491-1.097,1.097-1.097h9.532c.606,0,1.097.491,1.097,1.097v11.057Z" style="fill: #d5dde6; fill-rule: evenodd;"/>
          <path d="M92.23,24.692v30.622c0,3.268-.819,6.483-2.383,9.352l-.002.003c-.391.718.128,1.593.946,1.593h8.152c1.285,0,2.326-1.041,2.326-2.326V24.692s-9.04-3.604-9.04,0" style="fill: #081c1c; fill-rule: evenodd;"/>
          <path d="M73.365,87.904c0,.737-.598,1.335-1.335,1.335s-1.336-.598-1.336-1.335.598-1.336,1.336-1.336,1.335.598,1.335,1.336" style="fill: #c0ccd6; fill-rule: evenodd;"/>
          <path d="M73.365,98.872c0,.737-.598,1.335-1.335,1.335s-1.336-.598-1.336-1.335.598-1.336,1.336-1.336,1.335.598,1.335,1.336" style="fill: #c0ccd6; fill-rule: evenodd;"/>
          <path d="M93.444,89.645l-21.887,20.816c-.645.614-.051,1.684.811,1.46l16.952-4.401,4.124-17.875Z" style="fill: #363644; fill-rule: evenodd;"/>
          <line x1="72.03" y1="110.976" x2="72.03" y2="128.44" style="fill: none; stroke: #363644; stroke-miterlimit: 10; stroke-width: .796px;"/>
          <path d="M89.306,83.462l-17.897,27.119c-.491.743.329,1.652,1.119,1.24l18.167-9.479-1.388-18.88Z" style="fill: #444356; fill-rule: evenodd;"/>
          <path d="M50.453,89.645l21.887,20.816c.645.614.051,1.684-.811,1.46l-16.952-4.401-4.124-17.875Z" style="fill: #363644; fill-rule: evenodd;"/>
          <path d="M55.841,85.378l16.647,25.203c.491.743-.329,1.652-1.118,1.24l-15.529-8.099v-18.344Z" style="fill: #444356; fill-rule: evenodd;"/>
          <path d="M88.3,76.402h3.826c4.717,0,8.54,3.823,8.54,8.54v82.11c0,.335-.133.656-.37.892-.237.237-.558.37-.893.37h-9.842c-.335,0-.656-.133-.893-.37-.237-.237-.37-.558-.37-.892v-90.649Z" style="fill: #32303f; fill-rule: evenodd;"/>
          <path d="M92.682,107.643c-.01-.304.104-.6.316-.818.212-.219.503-.343.808-.343h.002c.684,0,1.273.484,1.408,1.154,1.357,6.786,8.332,41.664,11.05,55.251.267,1.333-.078,2.715-.94,3.766-.862,1.052-2.15,1.661-3.509,1.661h-7.166s-1.692-52.182-1.968-60.671" style="fill: #22212b; fill-rule: evenodd;"/>
          <path d="M109.189,92.054c-.549-8.798-7.845-15.653-16.661-15.653h-.001s6.086,71.805,7.995,94.334c.32,3.775,3.478,6.677,7.267,6.677h.001c1.745,0,3.411-.722,4.607-1.993,1.194-1.272,1.811-2.981,1.701-4.722-.993-15.905-3.51-56.219-4.91-78.644" style="fill: #32303f; fill-rule: evenodd;"/>
          <path d="M58.04,76.402h-3.412c-6.606,0-12.083,5.117-12.532,11.708-.733,10.772-1.775,26.073-2.237,32.853-.061.896.252,1.778.866,2.435.613.656,1.472,1.029,2.37,1.029h8.79c1.71,0,3.126-1.327,3.237-3.033.684-10.548,2.918-44.992,2.918-44.992" style="fill: #22212b; fill-rule: evenodd;"/>
          <path d="M36.998,160.313c-.162,2.149.579,4.268,2.045,5.847,1.466,1.58,3.523,2.478,5.678,2.478h.002c2.242,0,4.375-.965,5.854-2.649,1.48-1.684,2.163-3.923,1.875-6.146-.781-6.032-1.676-12.949-1.676-12.949,0,0,2.549-22.861,3.307-29.66.054-.48-.1-.96-.422-1.32-.322-.36-.782-.565-1.265-.565h-10.44c-.888,0-1.626.685-1.693,1.57-.478,6.356-2.292,30.459-3.265,43.394" style="fill: #22212b; fill-rule: evenodd;"/>
          <path d="M60.213,76.402h-3.629c-2.406,0-4.713.956-6.415,2.657-1.701,1.701-2.657,4.008-2.657,6.415v79.465c0,1.864,1.511,3.375,3.376,3.375h5.949c1.864,0,3.376-1.511,3.376-3.375v-88.536Z" style="fill: #32303f; fill-rule: evenodd;"/>
          <polygon points="78.006 76.402 88.3 76.402 88.3 80.211 78.022 77.927 78.006 76.402" style="fill: #081c1c; fill-rule: evenodd;"/>
          <path d="M71.815,77.354l-10.17-3.57c-.528-.185-1.106.092-1.292.619l-1.338,3.796c-.111.313-.06.661.135.931l1.637,2.264c.243.336.667.49,1.07.389l9.871-2.49c.45-.114.766-.519.766-.983,0-.43-.272-.814-.678-.957" style="fill: #081c1c; fill-rule: evenodd;"/>
          <path d="M71.248,77.426l-8.436,3.203c-.438.166-.658.656-.492,1.094l1.192,3.151c.098.26.319.456.588.523l2.269.565c.337.084.692-.046.894-.328l4.974-6.919c.227-.316.21-.745-.04-1.042-.232-.275-.613-.374-.95-.246" style="fill: #081c1c; fill-rule: evenodd;"/>
          <path d="M71.449,77.354l10.17-3.57c.528-.185,1.106.092,1.292.619l1.338,3.796c.111.313.06.661-.135.931l-1.637,2.264c-.243.336-.667.49-1.07.389l-9.871-2.49c-.45-.114-.766-.519-.766-.983,0-.43.272-.814.678-.957" style="fill: #081c1c; fill-rule: evenodd;"/>
          <path d="M72.015,77.426l8.435,3.203c.438.166.658.656.492,1.094l-1.192,3.151c-.098.26-.319.456-.589.523l-2.269.565c-.337.084-.692-.046-.895-.328l-4.974-6.919c-.227-.316-.21-.745.04-1.042.232-.275.613-.374.95-.246" style="fill: #081c1c; fill-rule: evenodd;"/>
          <path d="M73.028,83.345h-2.792c-.955,0-1.729-.774-1.729-1.729v-3.883c0-.955.774-1.729,1.729-1.729h2.792c.955,0,1.729.774,1.729,1.729v3.883c0,.955-.774,1.729-1.729,1.729" style="fill: #0c2827; fill-rule: evenodd;"/>
        </g>
      </g>
    </g>
  </g>
</svg>