<?xml version="1.0" encoding="UTF-8"?>
<svg xmlns="http://www.w3.org/2000/svg" width="150" height="150" xmlns:xlink="http://www.w3.org/1999/xlink" version="1.1" viewBox="0 0 150 150">
  <!-- Generator: Adobe Illustrator 29.4.0, SVG Export Plug-In . SVG Version: 2.1.0 Build 152)  -->
  <defs>
    <clipPath id="clippath">
      <path d="M83.116,29.296l11.694,17.063c1.279,1.867,3.163,3.235,5.334,3.875l19.842,5.849c6.631,1.955,9.231,9.958,5.016,15.437l-12.614,16.395c-1.38,1.794-2.099,4.008-2.037,6.27l.569,20.678c.19,6.91-6.618,11.856-13.131,9.54l-19.49-6.931c-2.132-.758-4.461-.758-6.593,0l-19.49,6.931c-6.513,2.316-13.321-2.63-13.131-9.54l.569-20.678c.062-2.262-.657-4.477-2.037-6.27l-12.614-16.395c-4.215-5.479-1.615-13.482,5.016-15.437l19.842-5.849c2.171-.64,4.054-2.008,5.334-3.875l11.694-17.063c3.908-5.702,12.323-5.702,16.231,0Z" style="fill: none;"/>
    </clipPath>
    <clipPath id="clippath-1">
      <path d="M113.735,0H32.895v71.054h11.535c.028.984.352,1.977,1.019,2.844l8.127,10.563c.69.897,1.05,2.004,1.019,3.135l-.367,13.322c-.095,3.455,3.309,5.928,6.566,4.77l6.608-2.35c.142-.051.288-.097.433-.137,5.377-1.466,10.821-1.265,15.855.526l5.513,1.96c3.257,1.158,6.661-1.315,6.566-4.77l-.367-13.323c-.031-1.131.329-2.239,1.019-3.135l8.127-10.562c.667-.867.991-1.86,1.019-2.844h11.236L113.735,0Z" style="fill: none;"/>
    </clipPath>
  </defs>
  <g style="isolation: isolate;">
    <g id="Layer_1">
      <g style="clip-path: url(#clippath);">
        <path d="M83.116,29.296l11.694,17.063c1.279,1.867,3.163,3.235,5.334,3.875l19.842,5.849c6.631,1.955,9.231,9.958,5.016,15.437l-12.614,16.395c-1.38,1.794-2.099,4.008-2.037,6.27l.569,20.678c.19,6.91-6.618,11.856-13.131,9.54l-19.49-6.931c-2.132-.758-4.461-.758-6.593,0l-19.49,6.931c-6.513,2.316-13.321-2.63-13.131-9.54l.569-20.678c.062-2.262-.657-4.477-2.037-6.27l-12.614-16.395c-4.215-5.479-1.615-13.482,5.016-15.437l19.842-5.849c2.171-.64,4.054-2.008,5.334-3.875l11.694-17.063c3.908-5.702,12.323-5.702,16.231,0Z" style="fill: #802275;"/>
        <path d="M83.692,103.728c-5.034-1.791-10.479-1.992-15.855-.526-.146.04-.291.086-.433.137l-6.608,2.35c-3.257,1.158-6.661-1.315-6.566-4.77l.367-13.322c.031-1.131-.329-2.238-1.019-3.135l-8.127-10.563c-2.108-2.739-.807-6.741,2.508-7.718l12.783-3.768c1.085-.32,2.027-1.004,2.667-1.938l7.534-10.994c1.954-2.851,6.161-2.851,8.115,0l7.535,10.994c.64.933,1.582,1.618,2.667,1.938l12.783,3.768c3.315.977,4.616,4.979,2.508,7.718l-8.127,10.562c-.69.897-1.05,2.004-1.019,3.135l.367,13.323c.095,3.455-3.309,5.928-6.566,4.77l-5.513-1.961Z" style="fill: #590e57;"/>
        <rect x="21.095" y="25.019" width="53.905" height="100.55" transform="translate(96.095 150.588) rotate(180)" style="fill: #d2deef; mix-blend-mode: multiply;"/>
      </g>
      <g style="clip-path: url(#clippath-1);">
        <g>
          <path d="M75.674,71.259h12.009c1.299,0,2.462.797,2.928,2.009,1.701,4.427,5.715,14.875,6.895,17.96.266.695.408,1.432.419,2.176.046,3.178.178,12.281.242,16.756.01.671-.25,1.319-.722,1.797-.472.478-1.115.748-1.787.748-7.747,0-19.985,0-19.985,0v-41.446Z" style="fill: #414a9e; fill-rule: evenodd;"/>
          <g>
            <path d="M82.502,37.559V0h-21.523C51.018,0,42.943,8.075,42.943,18.036v12.356c0,3.585-1.424,7.022-3.959,9.557h0c-2.535,2.535-3.959,5.972-3.959,9.557v7.634c0,6.498,5.268,11.766,11.766,11.766h41.603v-31.347h-5.893Z" style="fill: #081c1c;"/>
            <path d="M69.817,37.559V0h23.662c8.78,0,15.897,7.117,15.897,15.897v23.083c0,1.974.784,3.867,2.18,5.263h0c1.396,1.396,2.18,3.289,2.18,5.263v7.634c0,6.498-5.268,11.766-11.766,11.766h-38.046v-28.727s5.893-2.62,5.893-2.62Z" style="fill: #081c1c;"/>
          </g>
          <rect x="46.862" y="34.296" width="13.462" height="16.429" rx="6.731" ry="6.731" style="fill: #e57e24;"/>
          <rect x="67.117" y="62.361" width="17.79" height="14.873" style="fill: #e57e24;"/>
          <rect x="53.593" y="6.14" width="50.486" height="60.234" rx="11.766" ry="11.766" style="fill: #f7952b;"/>
          <path d="M50.085,19.61v11.379c0,1.76,1.44,3.199,3.199,3.199h2.57c3.422,0,6.222-2.8,6.222-6.222v-8.053c0-4.181,3.389-7.57,7.57-7.57h17.283c4.314,0,7.844-3.53,7.844-7.844V0h-25.079c-10.83,0-19.61,8.78-19.61,19.61Z" style="fill: #081c1c;"/>
          <g>
            <rect x="64.134" y="20.855" width="12.173" height="5.063" style="fill: #e57e24;"/>
            <rect x="88.804" y="20.855" width="12.173" height="5.063" style="fill: #e57e24;"/>
            <rect x="64.738" y="28.382" width="11.568" height="23.47" rx="2.745" ry="2.745" transform="translate(141.045 80.234) rotate(180)" style="fill: #fff;"/>
            <rect x="88.804" y="28.382" width="11.568" height="23.47" rx="2.745" ry="2.745" transform="translate(189.177 80.234) rotate(180)" style="fill: #fff;"/>
            <rect x="65.458" y="52.385" width="10.849" height="5.424" rx="2.712" ry="2.712" style="fill: #f7b232;"/>
            <rect x="89.524" y="52.385" width="10.849" height="5.424" rx="2.712" ry="2.712" style="fill: #f7b232;"/>
            <g>
              <path d="M84.186,49.608h-1.903c-.899,0-1.627.729-1.627,1.627h0c0,.9.728,1.628,1.627,1.628h1.903s0-3.254,0-3.254Z" style="fill: #e57e24; fill-rule: evenodd;"/>
              <circle cx="84.197" cy="51.235" r="1.627" style="fill: #f7b232;"/>
            </g>
            <rect x="90.535" y="31.668" width="6.089" height="14.696" rx="2.263" ry="2.263" transform="translate(187.158 78.031) rotate(180)" style="fill: #081c1c;"/>
            <rect x="66.469" y="31.668" width="6.089" height="14.696" rx="2.263" ry="2.263" transform="translate(139.026 78.031) rotate(180)" style="fill: #081c1c;"/>
            <path d="M82.826,56.958h-1.743c-.825,0-1.599-.401-2.074-1.075l-.32-.453c-.206-.292.003-.696.361-.696h5.81c.358,0,.567.403.361.696l-.32.453c-.476.674-1.249,1.075-2.074,1.075Z" style="fill: #e57e24; fill-rule: evenodd;"/>
            <path d="M84.587,56.958h-3.503c-.825,0-1.599-.401-2.074-1.075l-.32-.453c-.206-.292.003-.696.361-.696h7.57c.358,0,.567.403.361.696l-.32.453c-.476.674-1.249,1.075-2.074,1.075Z" style="fill: #e57e24; fill-rule: evenodd;"/>
          </g>
          <polygon points="97.614 79.991 108.828 155.76 95.404 157.294 87.385 81.128 97.614 79.991" style="fill: #2a2b7a; fill-rule: evenodd;"/>
          <path d="M88.972,73.743c-3.793.9-6.138,4.703-5.238,8.496.899,3.793,4.703,6.137,8.495,5.237,3.793-.899,6.138-4.702,5.238-8.495-.899-3.793-4.703-6.137-8.495-5.238Z" style="fill: #2a2b7a; fill-rule: evenodd;"/>
          <path d="M93.149,107.765l-32.535,3.946-2.019,7.349c-3.15,3.15-4.92,7.423-4.92,11.878v74.622h41.588l3.423-72.354c.131-2.762-.169-5.527-.889-8.197l-4.648-17.244Z" style="fill: #2f358a;"/>
          <polygon points="95.947 118.246 58.828 118.246 60.529 112.08 94.301 112.08 95.947 118.246" style="fill: #28246b; fill-rule: evenodd;"/>
          <path d="M58.06,73.754c4.011.952,6.491,4.974,5.54,8.985-.951,4.011-4.973,6.491-8.984,5.539-4.011-.951-6.491-4.973-5.54-8.984.951-4.011,4.973-6.491,8.984-5.54Z" style="fill: #414a9e; fill-rule: evenodd;"/>
          <path d="M97.506,91.228c-1.512-3.949-6.767-17.677-6.767-17.677l-34.172.016c-2.199.001-3.898,1.931-3.62,4.113l4.107,32.231c.204,1.597,1.563,2.794,3.173,2.794h32.823c1.579,0,2.911-1.168,3.112-2.734.612-4.768,1.796-14.313,1.764-16.567-.011-.744-.152-1.481-.419-2.176Z" style="fill: #414a9e;"/>
          <path d="M63.868,71.259h10.524c1.102,0,2.152.463,2.895,1.276l10.685,11.694-.266,25.93s-.25,1.319-.722,1.797c-.472.478-1.115.748-1.787.748-7.747,0-23.683,0-23.683,0v-39.093c0-1.3,1.054-2.353,2.353-2.353Z" style="fill: #414a9e; fill-rule: evenodd;"/>
          <path d="M59.51,88.041c.248-.573-.015-1.239-.588-1.489h0c-.276-.12-.588-.125-.867-.015-.28.11-.504.328-.623.603-.617,1.424-2.534,5.845-2.534,5.845l.561,4.405s1.389-3.206,4.052-9.349Z" style="fill: #2f358a; fill-rule: evenodd;"/>
          <g>
            <g>
              <path d="M89.244,93.323s.255,0-.671,0c-.899,0-1.627.729-1.627,1.627h0c0,.9.728,1.628,1.627,1.628.926,0,.671,0,.671,0v-3.254Z" style="fill: #e57e24; fill-rule: evenodd;"/>
              <circle cx="89.244" cy="94.95" r="1.627" style="fill: #f7b232;"/>
            </g>
            <g>
              <path d="M89.244,100.866s.255,0-.671,0c-.899,0-1.627.729-1.627,1.627h0c0,.9.728,1.628,1.627,1.628.926,0,.671,0,.671,0v-3.254Z" style="fill: #e57e24; fill-rule: evenodd;"/>
              <circle cx="89.244" cy="102.493" r="1.627" style="fill: #f7b232;"/>
            </g>
          </g>
          <path d="M49.531,77.986l-14.977,30.242c-1.848,3.732.348,8.201,4.432,9.017h0c2.929.586,5.869-.956,7.053-3.699l13.422-31.101-9.929-4.459Z" style="fill: #414a9e; fill-rule: evenodd;"/>
          <g>
            <g>
              <path d="M65.882,136.515c-1.417-1.1-3.231-1.555-4.999-1.255-.639.108-1.352.23-2.099.357-4.874.828-8.252,5.321-7.691,10.234,0,0,0,0,0,.001.327,2.869,1.797,5.484,4.077,7.258,2.279,1.773,5.178,2.551,8.039,2.16,1.146-.156,2.184-.298,2.986-.408.993-.135,1.787-.894,1.967-1.88.297-1.622.705-3.853.705-3.853,0,0,.425-.097.95-.217,1.097-.25,1.821-1.298,1.668-2.412-.12-.875-.266-1.931-.403-2.926-.299-2.17-1.435-4.138-3.165-5.481-.673-.522-1.387-1.077-2.034-1.579Z" style="fill: #f7952b; fill-rule: evenodd;"/>
              <path d="M59.438,144.455c-.356-2.337,1.253-4.522,3.589-4.878,2.337-.355,4.522,1.253,4.878,3.589l1.304,8.569c.356,2.337-1.252,4.523-3.589,4.878-2.336.356-4.522-1.252-4.878-3.589l-1.304-8.569Z" style="fill: #f7952b; fill-rule: evenodd;"/>
              <path d="M45.251,107.876l18.991,29.759c4.687,8.074-6.854,14.98-11.749,7.014,0,0-17.184-30.837-17.184-30.837-1.557-2.794-.554-6.322,2.24-7.88,2.688-1.498,6.064-.612,7.703,1.944h0Z" style="fill: #f7952b;"/>
            </g>
            <path d="M34.689,114.224l7.473,13.678,12.224-7.401-8.571-12.975c-2.034-3.08-6.222-3.849-9.218-1.693h0c-2.662,1.915-3.48,5.513-1.907,8.391Z" style="fill: #414a9e; fill-rule: evenodd;"/>
          </g>
          <path d="M87.086,80.553l5.872,8.61c.969,1.421,1.422,3.132,1.282,4.846l-.479,5.892" style="fill: none; fill-rule: evenodd; stroke: #2f358a; stroke-linecap: round; stroke-linejoin: round; stroke-width: 1.569px;"/>
          <polygon points="90.705 87.219 84.907 73.554 84.907 71.259 76.121 71.259 90.705 87.219" style="fill: #e57e24;"/>
          <g>
            <path d="M69.919,51.852h1.206c3.883,0,7.06-3.177,7.06-7.06v-15.737c0-2.166-1.756-3.922-3.922-3.922h-7.482c-2.166,0-3.922,1.756-3.922,3.922v15.737c0,3.883,3.177,7.06,7.06,7.06Z" style="fill: none; fill-rule: evenodd; stroke: #2f358a; stroke-linecap: round; stroke-linejoin: round; stroke-width: 2.353px;"/>
            <path d="M93.948,51.852h1.206c3.883,0,7.06-3.177,7.06-7.06v-15.737c0-2.166-1.756-3.922-3.922-3.922h-7.482c-2.166,0-3.922,1.756-3.922,3.922v15.737c0,3.883,3.177,7.06,7.06,7.06Z" style="fill: none; fill-rule: evenodd; stroke: #2f358a; stroke-linecap: round; stroke-linejoin: round; stroke-width: 2.353px;"/>
            <g>
              <line x1="62.86" y1="33.12" x2="53.201" y2="33.12" style="fill: none; stroke: #2f358a; stroke-linecap: round; stroke-linejoin: round; stroke-width: 2.353px;"/>
              <line x1="78.608" y1="33.12" x2="86.494" y2="33.12" style="fill: none; stroke: #2f358a; stroke-linecap: round; stroke-linejoin: round; stroke-width: 2.353px;"/>
              <line x1="102.214" y1="33.12" x2="105.246" y2="33.12" style="fill: none; stroke: #2f358a; stroke-linecap: round; stroke-linejoin: round; stroke-width: 2.353px;"/>
              <path d="M62.86,35.473c0-1.3-1.054-2.353-2.353-2.353" style="fill: none; fill-rule: evenodd; stroke: #2f358a; stroke-linecap: round; stroke-linejoin: round; stroke-width: 2.353px;"/>
              <path d="M84.535,33.12c1.3,0,2.353-1.054,2.353-2.353" style="fill: none; fill-rule: evenodd; stroke: #2f358a; stroke-linecap: round; stroke-linejoin: round; stroke-width: 2.353px;"/>
              <path d="M60.324,33.12c1.3,0,2.353-1.054,2.353-2.353" style="fill: none; fill-rule: evenodd; stroke: #2f358a; stroke-linecap: round; stroke-linejoin: round; stroke-width: 2.353px;"/>
              <path d="M86.888,36.257c0-1.3-1.054-2.353-2.353-2.353" style="fill: none; fill-rule: evenodd; stroke: #2f358a; stroke-linecap: round; stroke-linejoin: round; stroke-width: 2.353px;"/>
              <path d="M80.539,33.904c-1.3,0-2.353,1.054-2.353,2.353" style="fill: none; fill-rule: evenodd; stroke: #2f358a; stroke-linecap: round; stroke-linejoin: round; stroke-width: 2.353px;"/>
              <path d="M78.185,30.766c0,1.3,1.054,2.353,2.353,2.353" style="fill: none; fill-rule: evenodd; stroke: #2f358a; stroke-linecap: round; stroke-linejoin: round; stroke-width: 2.353px;"/>
              <path d="M104.567,33.12c-1.3,0-2.353,1.054-2.353,2.353" style="fill: none; fill-rule: evenodd; stroke: #2f358a; stroke-linecap: round; stroke-linejoin: round; stroke-width: 2.353px;"/>
              <path d="M102.214,30.766c0,1.3,1.054,2.353,2.353,2.353" style="fill: none; fill-rule: evenodd; stroke: #2f358a; stroke-linecap: round; stroke-linejoin: round; stroke-width: 2.353px;"/>
              <line x1="78.608" y1="33.904" x2="86.494" y2="33.904" style="fill: none; stroke: #2f358a; stroke-linecap: round; stroke-linejoin: round; stroke-width: 2.353px;"/>
            </g>
            <path d="M68.16,25.133h-7.778l2.478,5.25-.013-2.889c-.004-1.302,1.05-2.36,2.352-2.36h2.96Z" style="fill: #2f358a; fill-rule: evenodd; stroke: #2f358a; stroke-linecap: round; stroke-linejoin: round; stroke-width: 2.353px;"/>
            <path d="M96.908,25.133h7.778s-2.478,5.25-2.478,5.25l.013-2.889c.004-1.302-1.05-2.36-2.352-2.36h-2.96Z" style="fill: #2f358a; fill-rule: evenodd; stroke: #2f358a; stroke-linecap: round; stroke-linejoin: round; stroke-width: 2.353px;"/>
          </g>
        </g>
      </g>
    </g>
  </g>
</svg>